<?xml version="1.0" encoding="utf-8"?>
<!-- Generator: Adobe Illustrator 27.9.5, SVG Export Plug-In . SVG Version: 9.03 Build 54986)  -->
<svg version="1.1" xmlns="http://www.w3.org/2000/svg" xmlns:xlink="http://www.w3.org/1999/xlink" x="0px" y="0px"
	 viewBox="0 0 64 64" style="enable-background:new 0 0 64 64;" xml:space="preserve">
<style type="text/css">
	.st0{display:none;}
	.st1{display:inline;}
	.st2{display:inline;fill:none;stroke:#000000;stroke-width:2;stroke-linecap:round;stroke-linejoin:round;stroke-miterlimit:10;}
	.st3{fill:none;stroke:#000000;stroke-width:2;stroke-linecap:round;stroke-linejoin:round;stroke-miterlimit:10;}
	.st4{display:inline;fill:#231F20;}
	
		.st5{display:inline;fill:#FFFFFF;stroke:#000000;stroke-width:2;stroke-linecap:round;stroke-linejoin:round;stroke-miterlimit:10;}
	.st6{stroke:#000000;stroke-width:2;stroke-linecap:round;stroke-linejoin:round;stroke-miterlimit:10;}
</style>
<g id="Layer_1" class="st0">
</g>
<g id="Basic" class="st0">
	<rect x="29" y="8" class="st2" width="6" height="44"/>
	<rect x="30" y="43" transform="matrix(6.123234e-17 -1 1 6.123234e-17 -22 86)" class="st2" width="4" height="22"/>
	<polygon class="st2" points="18,33 45,33 45,45 18,45 12,39 	"/>
	<polygon class="st2" points="46,26 19,26 19,14 46,14 52,20 	"/>
	<polyline class="st2" points="42,23 46,20 42,17 	"/>
	<polyline class="st2" points="22,36 18,39 22,42 	"/>
</g>
<g id="Glyph">
	<path d="M36,11h-8V8c0-0.5,0.5-1,1-1h6c0.5,0,1,0.5,1,1V11z M28,29v20h8V29H28z M43,51H21c-0.6,0-1,0.4-1,1v4c0,0.6,0.4,1,1,1h22
		c0.6,0,1-0.4,1-1v-4C44,51.4,43.6,51,43,51z M45,32h-7v14h7c0.5,0,1-0.5,1-1V33C46,32.5,45.5,32,45,32z M52.7,20.7l-6,6
		C46.5,26.9,46.3,27,46,27H19c-0.6,0-1-0.4-1-1V14c0-0.6,0.4-1,1-1h27c0.3,0,0.5,0.1,0.7,0.3l6,6C53.1,19.7,53.1,20.3,52.7,20.7z
		 M47,20c0-0.3-0.1-0.6-0.4-0.8l-4-3c-0.4-0.3-1.1-0.2-1.4,0.2c-0.3,0.4-0.2,1.1,0.2,1.4l2.9,2.2l-2.9,2.2c-0.4,0.3-0.5,1-0.2,1.4
		c0.2,0.3,0.5,0.4,0.8,0.4c0.2,0,0.4-0.1,0.6-0.2l4-3C46.9,20.6,47,20.3,47,20z M26,46h-8c-0.3,0-0.5-0.1-0.7-0.3l-6-6
		c-0.4-0.4-0.4-1,0-1.4l6-6c0.2-0.2,0.4-0.3,0.7-0.3h8V46z M18.7,39l2.9-2.2c0.4-0.3,0.5-1,0.2-1.4c-0.3-0.4-1-0.5-1.4-0.2l-4,3
		C16.1,38.4,16,38.7,16,39s0.1,0.6,0.4,0.8l4,3c0.2,0.1,0.4,0.2,0.6,0.2c0.3,0,0.6-0.1,0.8-0.4c0.3-0.4,0.2-1.1-0.2-1.4L18.7,39z"/>
</g>
<g id="Outline" class="st0">
	<path class="st1" d="M52.7,19.3l-6-6C46.5,13.1,46.3,13,46,13H30V9h4v2c0,0.6,0.4,1,1,1s1-0.4,1-1V8c0-0.6-0.4-1-1-1h-6
		c-0.6,0-1,0.4-1,1v5h-9c-0.6,0-1,0.4-1,1v12c0,0.6,0.4,1,1,1h9v5H18c-0.3,0-0.5,0.1-0.7,0.3l-6,6c-0.4,0.4-0.4,1,0,1.4l6,6
		c0.2,0.2,0.4,0.3,0.7,0.3h8c0.6,0,1-0.4,1-1s-0.4-1-1-1h-7.6l-5-5l5-5H28v17h-7c-0.6,0-1,0.4-1,1v4c0,0.6,0.4,1,1,1h22
		c0.6,0,1-0.4,1-1v-4c0-0.6-0.4-1-1-1h-7v-5h9c0.6,0,1-0.4,1-1V33c0-0.6-0.4-1-1-1h-9v-5h10c0.3,0,0.5-0.1,0.7-0.3l6-6
		C53.1,20.3,53.1,19.7,52.7,19.3z M42,55H22v-2h7h6h7V55z M44,34v10h-8V34H44z M34,51h-4V27h4V51z M45.6,25H20V15h25.6l5,5L45.6,25z
		 M42.6,16.2l4,3c0.3,0.2,0.4,0.5,0.4,0.8s-0.1,0.6-0.4,0.8l-4,3C42.4,23.9,42.2,24,42,24c-0.3,0-0.6-0.1-0.8-0.4
		c-0.3-0.4-0.2-1.1,0.2-1.4l2.9-2.2l-2.9-2.2c-0.4-0.3-0.5-1-0.2-1.4C41.5,16,42.2,15.9,42.6,16.2z M22.6,36.8L19.7,39l2.9,2.2
		c0.4,0.3,0.5,1,0.2,1.4C22.6,42.9,22.3,43,22,43c-0.2,0-0.4-0.1-0.6-0.2l-4-3C17.1,39.6,17,39.3,17,39s0.1-0.6,0.4-0.8l4-3
		c0.4-0.3,1.1-0.2,1.4,0.2C23.1,35.8,23,36.5,22.6,36.8z"/>
</g>
<g id="Animation_Glyph" class="st0">
	<path class="st1" d="M36,8v3h-8V8c0-0.5,0.5-1,1-1h6C35.5,7,36,7.5,36,8z"/>
	<rect x="28" y="29" class="st1" width="8" height="20"/>
	<path class="st1" d="M43,51H21c-0.6,0-1,0.4-1,1v4c0,0.6,0.4,1,1,1h22c0.6,0,1-0.4,1-1v-4C44,51.4,43.6,51,43,51z"/>
	<path class="st1" d="M46,33v12c0,0.5-0.5,1-1,1h-7V32h7C45.5,32,46,32.5,46,33z"/>
	<path class="st1" d="M52.7,19.3l-6-6C46.5,13.1,46.3,13,46,13H19c-0.6,0-1,0.4-1,1v12c0,0.6,0.4,1,1,1h27c0.3,0,0.5-0.1,0.7-0.3
		l6-6C53.1,20.3,53.1,19.7,52.7,19.3z M46.6,20.8l-4,3C42.4,23.9,42.2,24,42,24c-0.3,0-0.6-0.1-0.8-0.4c-0.3-0.4-0.2-1.1,0.2-1.4
		l2.9-2.2l-2.9-2.2c-0.4-0.3-0.5-1-0.2-1.4c0.3-0.4,1-0.5,1.4-0.2l4,3c0.3,0.2,0.4,0.5,0.4,0.8S46.9,20.6,46.6,20.8z"/>
	<path class="st1" d="M18,32c-0.3,0-0.5,0.1-0.7,0.3l-6,6c-0.4,0.4-0.4,1,0,1.4l6,6c0.2,0.2,0.4,0.3,0.7,0.3h8V32H18z M21.6,41.2
		c0.4,0.3,0.5,1,0.2,1.4C21.6,42.9,21.3,43,21,43c-0.2,0-0.4-0.1-0.6-0.2l-4-3C16.1,39.6,16,39.3,16,39s0.1-0.6,0.4-0.8l4-3
		c0.4-0.3,1.1-0.2,1.4,0.2c0.3,0.4,0.2,1.1-0.2,1.4L18.7,39L21.6,41.2z"/>
</g>
<g id="Animation_Outline" class="st0">
	<polyline class="st2" points="29,14 29,8 35,8 35,11 	"/>
	<polyline class="st2" points="35,26 35,33 35,45 35,52 29,52 29,45 29,33 29,26 	"/>
	<rect x="30" y="43" transform="matrix(6.123234e-17 -1 1 6.123234e-17 -22 86)" class="st2" width="4" height="22"/>
	<polyline class="st2" points="35,33 45,33 45,45 35,45 	"/>
	<polyline class="st2" points="26,45 18,45 12,39 18,33 29,33 	"/>
	<polygon class="st2" points="46,26 19,26 19,14 46,14 52,20 	"/>
	<polyline class="st2" points="42,23 46,20 42,17 	"/>
	<polyline class="st2" points="22,36 18,39 22,42 	"/>
</g>
</svg>
