<?xml version="1.0" encoding="utf-8"?>
<!-- Generator: Adobe Illustrator 27.9.5, SVG Export Plug-In . SVG Version: 9.03 Build 54986)  -->
<svg version="1.1" xmlns="http://www.w3.org/2000/svg" xmlns:xlink="http://www.w3.org/1999/xlink" x="0px" y="0px"
	 viewBox="0 0 64 64" style="enable-background:new 0 0 64 64;" xml:space="preserve">
<style type="text/css">
	.st0{display:none;}
	.st1{display:inline;}
	.st2{display:inline;fill:none;stroke:#000000;stroke-width:2;stroke-linecap:round;stroke-linejoin:round;stroke-miterlimit:10;}
	.st3{fill:none;stroke:#000000;stroke-width:2;stroke-linecap:round;stroke-linejoin:round;stroke-miterlimit:10;}
	.st4{display:inline;fill:#231F20;}
	
		.st5{display:inline;fill:#FFFFFF;stroke:#000000;stroke-width:2;stroke-linecap:round;stroke-linejoin:round;stroke-miterlimit:10;}
	.st6{stroke:#000000;stroke-width:2;stroke-linecap:round;stroke-linejoin:round;stroke-miterlimit:10;}
</style>
<g id="Layer_1" class="st0">
</g>
<g id="Basic" class="st0">
	<path class="st2" d="M47,20v27c0,1.1-0.9,2-2,2H19c-1.1,0-2-0.9-2-2V11c0-1.1,0.9-2,2-2h17L47,20z"/>
	<polygon class="st2" points="36,9 36,20 47,20 	"/>
	<circle class="st2" cx="32" cy="38" r="4"/>
	<circle class="st2" cx="32" cy="38" r="8"/>
	<polyline class="st2" points="37,45 37,55 32.1,51 27,55 27,45 	"/>
	<line class="st2" x1="32" y1="46" x2="32" y2="51"/>
	<line class="st2" x1="21" y1="14" x2="26" y2="14"/>
	<line class="st2" x1="21" y1="18" x2="31" y2="18"/>
	<line class="st2" x1="21" y1="22" x2="28" y2="22"/>
	<line class="st2" x1="21" y1="26" x2="31" y2="26"/>
</g>
<g id="Glyph">
	<path d="M35,20V9c0-0.4,0.2-0.8,0.6-0.9C36,7.9,36.4,8,36.7,8.3l11,11c0.3,0.3,0.4,0.7,0.2,1.1C47.8,20.8,47.4,21,47,21H36
		C35.4,21,35,20.6,35,20z M32,41c1.7,0,3-1.3,3-3s-1.3-3-3-3s-3,1.3-3,3S30.3,41,32,41z M37.9,44.7c0,0.1,0.1,0.2,0.1,0.3v10
		c0,0.4-0.2,0.7-0.6,0.9C37.3,56,37.1,56,37,56c-0.2,0-0.4-0.1-0.6-0.2L33,53v-5c0-0.6-0.4-1-1-1s-1,0.4-1,1v5.1l-3.4,2.7
		c-0.3,0.2-0.7,0.3-1.1,0.1C26.2,55.7,26,55.4,26,55V45c0-0.1,0-0.2,0.1-0.3C24.2,43.1,23,40.7,23,38c0-5,4-9,9-9s9,4,9,9
		C41,40.7,39.8,43.1,37.9,44.7z M27,38c0,2.8,2.2,5,5,5s5-2.2,5-5s-2.2-5-5-5S27,35.2,27,38z M48,22.8V47c0,1.6-1.3,3-3,3h-5v-4.5
		c1.8-2,3-4.6,3-7.5c0-6.1-4.9-11-11-11s-11,4.9-11,11c0,2.9,1.2,5.6,3,7.5V50h-5c-1.7,0-3-1.4-3-3V11c0-1.7,1.3-3,3-3h14.2
		C33.1,8.3,33,8.7,33,9v11c0,1.6,1.3,3,3,3h11C47.3,23,47.7,22.9,48,22.8z M19,14c0,0.6,0.4,1,1,1h5c0.6,0,1-0.4,1-1s-0.4-1-1-1h-5
		C19.4,13,19,13.4,19,14z M28,22c0-0.6-0.4-1-1-1h-7c-0.6,0-1,0.4-1,1s0.4,1,1,1h7C27.6,23,28,22.6,28,22z M29,18c0-0.6-0.4-1-1-1
		h-8c-0.6,0-1,0.4-1,1s0.4,1,1,1h8C28.6,19,29,18.6,29,18z"/>
</g>
<g id="Outline" class="st0">
	<path class="st1" d="M48,19.9c0-0.1,0-0.2-0.1-0.3c0,0,0-0.1,0-0.1c0-0.1-0.1-0.2-0.2-0.3l-11-11c-0.1-0.1-0.2-0.1-0.3-0.2
		c0,0-0.1,0-0.1,0c-0.1,0-0.2,0-0.2,0c0,0,0,0-0.1,0H19c-1.7,0-3,1.3-3,3v3c0,0.6,0.4,1,1,1s1-0.4,1-1v-3c0-0.6,0.4-1,1-1h16v10
		c0,0.6,0.4,1,1,1h10v26c0,0.6-0.4,1-1,1h-4c-0.6,0-1,0.4-1,1s0.4,1,1,1h4c1.7,0,3-1.3,3-3L48,19.9C48,20,48,20,48,19.9z M37,19
		v-7.6l7.6,7.6H37z M32,43c2.8,0,5-2.2,5-5s-2.2-5-5-5s-5,2.2-5,5S29.2,43,32,43z M32,35c1.7,0,3,1.3,3,3s-1.3,3-3,3s-3-1.3-3-3
		S30.3,35,32,35z M41,38c0-5-4-9-9-9s-9,4-9,9c0,2.7,1.2,5.1,3.1,6.7c0,0.1-0.1,0.2-0.1,0.3v3h-7c-0.6,0-1-0.4-1-1V17.6
		c0-0.6-0.4-1-1-1s-1,0.4-1,1V47c0,1.7,1.3,3,3,3h7v5c0,0.4,0.2,0.7,0.6,0.9c0.3,0.2,0.8,0.1,1.1-0.1l4.5-3.5l4.3,3.5
		c0.2,0.1,0.4,0.2,0.6,0.2c0.1,0,0.3,0,0.4-0.1c0.3-0.2,0.6-0.5,0.6-0.9V45c0-0.1,0-0.2-0.1-0.3C39.8,43.1,41,40.7,41,38z M25,38
		c0-3.9,3.1-7,7-7s7,3.1,7,7s-3.1,7-7,7S25,41.9,25,38z M28,46.1c0.9,0.5,1.9,0.8,3,0.9v3.6l-3,2.4V46.1z M36,52.9l-3-2.4v-3.5
		c1.1-0.1,2.1-0.4,3-0.9V52.9z M20,14c0-0.6,0.4-1,1-1h5c0.6,0,1,0.4,1,1s-0.4,1-1,1h-5C20.4,15,20,14.6,20,14z M20,18
		c0-0.6,0.4-1,1-1h10c0.6,0,1,0.4,1,1s-0.4,1-1,1H21C20.4,19,20,18.6,20,18z M20,22c0-0.6,0.4-1,1-1h7c0.6,0,1,0.4,1,1s-0.4,1-1,1
		h-7C20.4,23,20,22.6,20,22z M20,26c0-0.6,0.4-1,1-1h10c0.6,0,1,0.4,1,1s-0.4,1-1,1H21C20.4,27,20,26.6,20,26z"/>
</g>
<g id="Animation_Glyph" class="st0">
	<path class="st1" d="M47.7,19.3l-11-11C36.4,8,36,7.9,35.6,8.1C35.2,8.2,35,8.6,35,9v11c0,0.6,0.4,1,1,1h11c0.4,0,0.8-0.2,0.9-0.6
		C48.1,20,48,19.6,47.7,19.3z"/>
	<g class="st1">
		<circle cx="32" cy="38" r="3"/>
		<path d="M32,29c-5,0-9,4-9,9s4,9,9,9s9-4,9-9S37,29,32,29z M32,43c-2.8,0-5-2.2-5-5s2.2-5,5-5s5,2.2,5,5S34.8,43,32,43z"/>
	</g>
	<path class="st1" d="M37,44H27c-0.6,0-1,0.4-1,1v10c0,0.4,0.2,0.7,0.6,0.9c0.3,0.2,0.8,0.1,1.1-0.1l3.4-2.7V48c0-0.6,0.4-1,1-1
		s1,0.4,1,1v5l3.4,2.7c0.2,0.1,0.4,0.2,0.6,0.2c0.1,0,0.3,0,0.4-0.1c0.3-0.2,0.6-0.5,0.6-0.9V45C38,44.4,37.6,44,37,44z"/>
	<path class="st1" d="M47,23H36c-1.7,0-3-1.4-3-3V9c0-0.3,0.1-0.7,0.2-1H19c-1.7,0-3,1.3-3,3v36c0,1.6,1.3,3,3,3h5v-4.5
		c-1.8-2-3-4.6-3-7.5c0-6.1,4.9-11,11-11s11,4.9,11,11c0,2.9-1.2,5.6-3,7.5V50h5c1.7,0,3-1.4,3-3V22.8C47.7,22.9,47.3,23,47,23z
		 M20,13h5c0.6,0,1,0.4,1,1s-0.4,1-1,1h-5c-0.6,0-1-0.4-1-1S19.4,13,20,13z M27,23h-7c-0.6,0-1-0.4-1-1s0.4-1,1-1h7c0.6,0,1,0.4,1,1
		S27.6,23,27,23z M28,19h-8c-0.6,0-1-0.4-1-1s0.4-1,1-1h8c0.6,0,1,0.4,1,1S28.6,19,28,19z"/>
</g>
<g id="Animation_Outline" class="st0">
	<path class="st2" d="M17,14v-3c0-1.1,0.9-2,2-2h17l11,11v27c0,1.1-0.9,2-2,2h-4"/>
	<path class="st2" d="M27,49h-8c-1.1,0-2-0.9-2-2V17.6"/>
	<polygon class="st2" points="36,9 36,20 47,20 	"/>
	<circle class="st2" cx="32" cy="38" r="4"/>
	<circle class="st2" cx="32" cy="38" r="8"/>
	<polyline class="st2" points="37,45 37,55 32.1,51 27,55 27,45 	"/>
	<line class="st2" x1="32" y1="46" x2="32" y2="51"/>
	<line class="st2" x1="21" y1="14" x2="26" y2="14"/>
	<line class="st2" x1="21" y1="18" x2="31" y2="18"/>
	<line class="st2" x1="21" y1="22" x2="28" y2="22"/>
	<line class="st2" x1="21" y1="26" x2="31" y2="26"/>
</g>
</svg>
