<?xml version="1.0" encoding="utf-8"?>
<!-- Generator: Adobe Illustrator 27.9.5, SVG Export Plug-In . SVG Version: 9.03 Build 54986)  -->
<svg version="1.1" xmlns="http://www.w3.org/2000/svg" xmlns:xlink="http://www.w3.org/1999/xlink" x="0px" y="0px"
	 viewBox="0 0 64 64" style="enable-background:new 0 0 64 64;" xml:space="preserve">
<style type="text/css">
	.st0{display:none;}
	.st1{display:inline;}
	.st2{display:inline;fill:none;stroke:#000000;stroke-width:2;stroke-linecap:round;stroke-linejoin:round;stroke-miterlimit:10;}
	.st3{fill:none;stroke:#000000;stroke-width:2;stroke-linecap:round;stroke-linejoin:round;stroke-miterlimit:10;}
	.st4{display:inline;fill:#231F20;}
	
		.st5{display:inline;fill:#FFFFFF;stroke:#000000;stroke-width:2;stroke-linecap:round;stroke-linejoin:round;stroke-miterlimit:10;}
	.st6{stroke:#000000;stroke-width:2;stroke-linecap:round;stroke-linejoin:round;stroke-miterlimit:10;}
</style>
<g id="Layer_1" class="st0">
</g>
<g id="Basic" class="st0">
	<circle class="st2" cx="32" cy="49" r="2"/>
	<circle class="st2" cx="32" cy="25" r="16"/>
	<path class="st2" d="M32,55L32,55c-3.2,0-5.6-2.8-5.2-5.9L28,41h8l1.2,8.1C37.6,52.2,35.2,55,32,55z"/>
	<circle class="st2" cx="32" cy="25" r="11"/>
	<circle class="st2" cx="32" cy="23" r="4"/>
	<path class="st2" d="M39,38H25v-3c0-3.9,3.1-7,7-7h0c3.9,0,7,3.1,7,7V38z"/>
</g>
<g id="Glyph">
	<path d="M32.7,49.3c0.2,0.2,0.3,0.4,0.3,0.7s-0.1,0.5-0.3,0.7c-0.4,0.4-1,0.4-1.4,0C31.1,50.5,31,50.3,31,50s0.1-0.5,0.3-0.7
		c0.2-0.2,0.4-0.3,0.7-0.3S32.5,49.1,32.7,49.3C32.7,49.3,32.7,49.3,32.7,49.3z M38.1,49.9c0.3,1.8-0.3,3.6-1.5,4.9S33.8,57,32,57
		s-3.5-0.8-4.7-2.1s-1.7-3.2-1.5-4.9l1.1-7.6c1.6,0.5,3.3,0.7,5,0.7s3.4-0.2,5-0.7L38.1,49.9z M35,50c0-0.8-0.3-1.5-0.9-2.1
		c-1.1-1.1-3.1-1.1-4.2,0C29.3,48.5,29,49.2,29,50s0.3,1.5,0.9,2.1S31.2,53,32,53s1.5-0.3,2.1-0.9S35,50.8,35,50z M35,22
		c0-1.7-1.3-3-3-3s-3,1.3-3,3s1.3,3,3,3S35,23.7,35,22z M32,28c-2.6,0-4.9,1.7-5.7,4.2c0,0,0.1,0,0.1,0.1c0.1,0.1,0.2,0.1,0.3,0.2
		c0.1,0.1,0.3,0.2,0.4,0.3c0.1,0.1,0.2,0.1,0.3,0.2c0.1,0.1,0.3,0.1,0.4,0.2c0.1,0,0.2,0.1,0.3,0.1c0.1,0.1,0.3,0.1,0.4,0.2
		c0.1,0,0.2,0.1,0.3,0.1c0.1,0,0.3,0.1,0.4,0.1c0.1,0,0.2,0.1,0.3,0.1c0.2,0,0.3,0.1,0.5,0.1c0.1,0,0.2,0,0.3,0.1
		c0.2,0,0.4,0,0.5,0.1c0.1,0,0.2,0,0.3,0c0.3,0,0.5,0,0.8,0s0.5,0,0.8,0c0.1,0,0.2,0,0.3,0c0.2,0,0.4,0,0.5-0.1c0.1,0,0.2,0,0.3-0.1
		c0.2,0,0.3-0.1,0.5-0.1c0.1,0,0.2-0.1,0.3-0.1c0.1,0,0.3-0.1,0.4-0.1c0.1,0,0.2-0.1,0.3-0.1c0.1-0.1,0.3-0.1,0.4-0.2
		c0.1,0,0.2-0.1,0.3-0.1c0.1-0.1,0.3-0.1,0.4-0.2c0.1-0.1,0.2-0.1,0.3-0.2c0.1-0.1,0.3-0.2,0.4-0.2c0.1-0.1,0.2-0.1,0.3-0.2
		c0,0,0.1,0,0.1-0.1c-0.3-0.9-0.8-1.8-1.5-2.4C35.1,28.6,33.6,28,32,28z M49,24c0,4.5-1.8,8.8-5,12c-3.2,3.2-7.5,5-12,5
		s-8.8-1.8-12-5c-3.2-3.2-5-7.5-5-12s1.8-8.8,5-12c3.2-3.2,7.5-5,12-5s8.8,1.8,12,5C47.2,15.2,49,19.5,49,24z M44,24
		c0-6.6-5.4-12-12-12s-12,5.4-12,12c0,3.7,1.6,7.1,4.5,9.4c2.1,1.7,4.7,2.6,7.5,2.6c0.7,0,1.4-0.1,2-0.2c2-0.3,3.8-1.2,5.5-2.4
		C42.4,31.1,44,27.7,44,24z M32,14c-5.5,0-10,4.5-10,10c0,2.6,1,5,2.7,6.8c0.9-2.1,2.8-3.7,4.9-4.4C28.1,25.5,27,23.9,27,22
		c0-2.8,2.2-5,5-5s5,2.2,5,5c0,1.9-1.1,3.5-2.6,4.4c1.2,0.4,2.3,1,3.3,2c0.7,0.7,1.3,1.6,1.7,2.5C41,29,42,26.6,42,24
		C42,18.5,37.5,14,32,14z"/>
</g>
<g id="Outline" class="st0">
	<path class="st1" d="M32,52c0.8,0,1.6-0.3,2.1-0.9c0.6-0.6,0.9-1.3,0.9-2.1s-0.3-1.6-0.9-2.1c0,0,0,0,0,0s0,0,0,0
		c-1.1-1.1-3.1-1.1-4.2,0C29.3,47.4,29,48.2,29,49s0.3,1.6,0.9,2.1C30.4,51.7,31.2,52,32,52z M31.3,48.3c0.2-0.2,0.4-0.3,0.7-0.3
		s0.5,0.1,0.7,0.3c0,0,0,0,0,0c0.2,0.2,0.3,0.4,0.3,0.7s-0.1,0.5-0.3,0.7c-0.4,0.4-1,0.4-1.4,0C31.1,49.5,31,49.3,31,49
		S31.1,48.5,31.3,48.3z M49,25c0-0.6-0.4-1-1-1s-1,0.4-1,1c0,4-1.6,7.8-4.4,10.6S36,40,32,40s-7.8-1.6-10.6-4.4S17,29,17,25
		s1.6-7.8,4.4-10.6S28,10,32,10s7.8,1.6,10.6,4.4c2.1,2.1,3.5,4.6,4.1,7.5c0.1,0.5,0.6,0.9,1.2,0.8c0.5-0.1,0.9-0.6,0.8-1.2
		c-0.7-3.2-2.3-6.1-4.6-8.5c-3.2-3.2-7.5-5-12-5s-8.8,1.8-12,5c-3.2,3.2-5,7.5-5,12s1.8,8.8,5,12c2,2,4.4,3.4,7,4.2l-1.1,7.7
		c-0.3,1.8,0.3,3.6,1.5,4.9c1.2,1.4,2.9,2.1,4.7,2.1s3.5-0.8,4.7-2.1c1.2-1.4,1.7-3.2,1.5-4.9L37,41.2c2.6-0.8,5-2.2,7-4.2
		C47.2,33.8,49,29.5,49,25z M35.1,42l1,7.2c0.2,1.2-0.2,2.4-1,3.3c-0.8,0.9-2,1.4-3.2,1.4s-2.4-0.5-3.2-1.4c-0.8-0.9-1.2-2.1-1-3.3
		l1-7.2H35.1z M32,13c-6.6,0-12,5.4-12,12c0,3.7,1.6,7.1,4.5,9.4c2.1,1.7,4.7,2.6,7.5,2.6c0.7,0,1.4-0.1,2-0.2
		c2-0.3,3.8-1.2,5.5-2.4c2.9-2.3,4.5-5.7,4.5-9.4C44,18.4,38.6,13,32,13z M31.2,35c-0.1,0-0.2,0-0.3,0c-0.2,0-0.4,0-0.5-0.1
		c-0.1,0-0.2,0-0.3-0.1c-0.2,0-0.3-0.1-0.5-0.1c-0.1,0-0.2-0.1-0.3-0.1c-0.2,0-0.3-0.1-0.4-0.1c-0.1,0-0.2-0.1-0.3-0.1
		c-0.1-0.1-0.3-0.1-0.4-0.2c-0.1,0-0.2-0.1-0.3-0.1c-0.1-0.1-0.3-0.1-0.4-0.2c-0.1-0.1-0.2-0.1-0.3-0.2c-0.1-0.1-0.3-0.2-0.4-0.3
		c-0.1-0.1-0.2-0.1-0.3-0.2c0,0-0.1,0-0.1-0.1c0.8-2.5,3.1-4.2,5.7-4.2c1.6,0,3.1,0.6,4.2,1.8c0.7,0.7,1.2,1.5,1.5,2.4
		c0,0-0.1,0-0.1,0.1c-0.1,0.1-0.2,0.1-0.3,0.2c-0.1,0.1-0.3,0.2-0.4,0.2c-0.1,0.1-0.2,0.1-0.3,0.2c-0.1,0.1-0.3,0.1-0.4,0.2
		c-0.1,0-0.2,0.1-0.3,0.1c-0.1,0.1-0.3,0.1-0.4,0.2c-0.1,0-0.2,0.1-0.3,0.1c-0.1,0-0.3,0.1-0.4,0.1c-0.1,0-0.2,0.1-0.3,0.1
		c-0.2,0-0.3,0.1-0.5,0.1c-0.1,0-0.2,0-0.3,0.1c-0.2,0-0.4,0-0.5,0.1c-0.1,0-0.2,0-0.3,0c-0.3,0-0.5,0-0.8,0S31.5,35,31.2,35z
		 M32,26c-1.7,0-3-1.3-3-3s1.3-3,3-3s3,1.3,3,3S33.7,26,32,26z M39.3,31.8c-0.4-0.9-0.9-1.8-1.7-2.5c-0.9-0.9-2-1.6-3.3-2
		c1.5-0.9,2.6-2.5,2.6-4.4c0-2.8-2.2-5-5-5s-5,2.2-5,5c0,1.9,1.1,3.5,2.6,4.4c-2.2,0.7-4,2.3-4.9,4.4C23,30,22,27.6,22,25
		c0-5.5,4.5-10,10-10s10,4.5,10,10C42,27.6,41,30,39.3,31.8z"/>
</g>
<g id="Animation_Glyph" class="st0">
	<g class="st1">
		<path d="M32.7,49.3C32.5,49.1,32.3,49,32,49s-0.5,0.1-0.7,0.3C31.1,49.5,31,49.7,31,50s0.1,0.5,0.3,0.7c0.4,0.4,1,0.4,1.4,0
			c0.2-0.2,0.3-0.4,0.3-0.7S32.9,49.5,32.7,49.3C32.7,49.3,32.7,49.3,32.7,49.3z"/>
		<path d="M38.1,49.9L37,42.3c-1.6,0.5-3.3,0.7-5,0.7s-3.4-0.2-5-0.7l-1.1,7.6c-0.3,1.8,0.3,3.6,1.5,4.9S30.2,57,32,57
			s3.5-0.8,4.7-2.1S38.4,51.7,38.1,49.9z M34.1,52.1C33.5,52.7,32.8,53,32,53s-1.5-0.3-2.1-0.9S29,50.8,29,50s0.3-1.5,0.9-2.1
			c1.1-1.1,3.1-1.1,4.2,0c0.6,0.6,0.9,1.3,0.9,2.1S34.7,51.5,34.1,52.1z"/>
	</g>
	<g class="st1">
		<circle cx="32" cy="22" r="3"/>
		<path d="M33.1,33.9c0.2,0,0.4,0,0.5-0.1c0.1,0,0.2,0,0.3-0.1c0.2,0,0.3-0.1,0.5-0.1c0.1,0,0.2-0.1,0.3-0.1c0.1,0,0.3-0.1,0.4-0.1
			c0.1,0,0.2-0.1,0.3-0.1c0.1-0.1,0.3-0.1,0.4-0.2c0.1,0,0.2-0.1,0.3-0.1c0.1-0.1,0.3-0.1,0.4-0.2c0.1-0.1,0.2-0.1,0.3-0.2
			c0.1-0.1,0.3-0.2,0.4-0.2c0.1-0.1,0.2-0.1,0.3-0.2c0,0,0.1,0,0.1-0.1c-0.3-0.9-0.8-1.8-1.5-2.4C35.1,28.6,33.6,28,32,28
			c-2.6,0-4.9,1.7-5.7,4.2c0,0,0.1,0,0.1,0.1c0.1,0.1,0.2,0.1,0.3,0.2c0.1,0.1,0.3,0.2,0.4,0.3c0.1,0.1,0.2,0.1,0.3,0.2
			c0.1,0.1,0.3,0.1,0.4,0.2c0.1,0,0.2,0.1,0.3,0.1c0.1,0.1,0.3,0.1,0.4,0.2c0.1,0,0.2,0.1,0.3,0.1c0.1,0,0.3,0.1,0.4,0.1
			c0.1,0,0.2,0.1,0.3,0.1c0.2,0,0.3,0.1,0.5,0.1c0.1,0,0.2,0,0.3,0.1c0.2,0,0.4,0,0.5,0.1c0.1,0,0.2,0,0.3,0c0.3,0,0.5,0,0.8,0
			s0.5,0,0.8,0C32.9,34,33,33.9,33.1,33.9z"/>
		<path d="M44,12c-3.2-3.2-7.5-5-12-5s-8.8,1.8-12,5c-3.2,3.2-5,7.5-5,12s1.8,8.8,5,12c3.2,3.2,7.5,5,12,5s8.8-1.8,12-5
			c3.2-3.2,5-7.5,5-12C49,19.5,47.2,15.2,44,12z M39.5,33.4c-1.6,1.3-3.5,2.1-5.5,2.4c-0.7,0.1-1.3,0.2-2,0.2
			c-2.7,0-5.3-0.9-7.5-2.6C21.6,31.1,20,27.7,20,24c0-6.6,5.4-12,12-12s12,5.4,12,12C44,27.7,42.4,31.1,39.5,33.4z"/>
		<path d="M32,14c-5.5,0-10,4.5-10,10c0,2.6,1,5,2.7,6.8c0.9-2.1,2.8-3.7,4.9-4.4C28.1,25.5,27,23.9,27,22c0-2.8,2.2-5,5-5
			s5,2.2,5,5c0,1.9-1.1,3.5-2.6,4.4c1.2,0.4,2.3,1,3.3,2c0.7,0.7,1.3,1.6,1.7,2.5C41,29,42,26.6,42,24C42,18.5,37.5,14,32,14z"/>
	</g>
</g>
<g id="Animation_Outline" class="st0">
	<circle class="st2" cx="32" cy="49" r="2"/>
	<path class="st2" d="M48,25c0,4.1-1.6,8.2-4.7,11.3c-6.2,6.2-16.4,6.2-22.6,0s-6.2-16.4,0-22.6s16.4-6.2,22.6,0
		c2.3,2.3,3.7,5.1,4.3,8"/>
	<path class="st2" d="M32,55L32,55c-3.2,0-5.6-2.8-5.2-5.9L28,41h8l1.2,8.1C37.6,52.2,35.2,55,32,55z"/>
	<path class="st2" d="M43,25c0,3.5-1.6,6.6-4.1,8.6C37,35.1,34.6,36,32,36s-5-0.9-6.9-2.4c-2.5-2-4.1-5.1-4.1-8.6
		c0-6.1,4.9-11,11-11S43,18.9,43,25z"/>
	<circle class="st2" cx="32" cy="23" r="4"/>
	<path class="st2" d="M38.9,33.6C37,35.1,34.6,36,32,36s-5-0.9-6.9-2.4c0.6-3.2,3.5-5.6,6.9-5.6c1.9,0,3.7,0.8,5,2
		C37.9,31,38.6,32.2,38.9,33.6z"/>
</g>
</svg>
