<?xml version="1.0" encoding="utf-8"?>
<!-- Generator: Adobe Illustrator 27.9.5, SVG Export Plug-In . SVG Version: 9.03 Build 54986)  -->
<svg version="1.1" xmlns="http://www.w3.org/2000/svg" xmlns:xlink="http://www.w3.org/1999/xlink" x="0px" y="0px"
	 viewBox="0 0 64 64" style="enable-background:new 0 0 64 64;" xml:space="preserve">
<style type="text/css">
	.st0{display:none;}
	.st1{display:inline;}
	.st2{display:inline;fill:none;stroke:#000000;stroke-width:2;stroke-linecap:round;stroke-linejoin:round;stroke-miterlimit:10;}
	.st3{fill:none;stroke:#000000;stroke-width:2;stroke-linecap:round;stroke-linejoin:round;stroke-miterlimit:10;}
	.st4{display:inline;fill:#231F20;}
	
		.st5{display:inline;fill:#FFFFFF;stroke:#000000;stroke-width:2;stroke-linecap:round;stroke-linejoin:round;stroke-miterlimit:10;}
	.st6{stroke:#000000;stroke-width:2;stroke-linecap:round;stroke-linejoin:round;stroke-miterlimit:10;}
</style>
<g id="Layer_1" class="st0">
</g>
<g id="Basic" class="st0">
	<rect x="-8" y="26" transform="matrix(4.488149e-11 -1 1 4.488149e-11 -17 47)" class="st2" width="46" height="12"/>
	<rect x="6.5" y="39.5" transform="matrix(4.494011e-11 -1 1 4.494011e-11 -26.5 56.5)" class="st2" width="17" height="4"/>
	<rect x="35" y="31" transform="matrix(6.366469e-11 -1 1 6.366469e-11 -3.034756e-09 82)" class="st2" width="12" height="20"/>
	<circle class="st2" cx="15" cy="16" r="2"/>
	<circle class="st2" cx="15" cy="25" r="2"/>
	<path class="st2" d="M55,23v27c0,1.1-0.9,2-2,2H29c-1.1,0-2-0.9-2-2V14c0-1.1,0.9-2,2-2h15L55,23z"/>
	<polygon class="st2" points="44,12 44,23 55,23 	"/>
	<line class="st2" x1="31" y1="16" x2="36" y2="16"/>
	<line class="st2" x1="31" y1="20" x2="40" y2="20"/>
	<line class="st2" x1="31" y1="24" x2="38" y2="24"/>
	<line class="st2" x1="31" y1="28" x2="41" y2="28"/>
</g>
<g id="Glyph">
	<path d="M16,16c0,0.6-0.4,1-1,1s-1-0.4-1-1s0.4-1,1-1S16,15.4,16,16z M14,49h2V34h-2V49z M15,24c-0.6,0-1,0.4-1,1s0.4,1,1,1
		s1-0.4,1-1S15.6,24,15,24z M22,9v46c0,0.6-0.4,1-1,1H9c-0.6,0-1-0.4-1-1V9c0-0.6,0.4-1,1-1h12C21.6,8,22,8.4,22,9z M18,33
		c0-0.6-0.4-1-1-1h-4c-0.6,0-1,0.4-1,1v17c0,0.6,0.4,1,1,1h4c0.6,0,1-0.4,1-1V33z M18,25c0-1.7-1.3-3-3-3s-3,1.3-3,3s1.3,3,3,3
		S18,26.7,18,25z M18,16c0-1.7-1.3-3-3-3s-3,1.3-3,3s1.3,3,3,3S18,17.7,18,16z M44,24h11c0.4,0,0.8-0.2,0.9-0.6
		c0.2-0.4,0.1-0.8-0.2-1.1l-11-11c-0.3-0.3-0.7-0.4-1.1-0.2C43.2,11.2,43,11.6,43,12v11C43,23.6,43.4,24,44,24z M32,46h18V36H32V46z
		 M56,25.8V50c0,1.6-1.3,3-3,3H29c-1.7,0-3-1.4-3-3V14c0-1.7,1.3-3,3-3h12.2c-0.1,0.3-0.2,0.6-0.2,1v11c0,1.6,1.3,3,3,3h11
		C55.3,26,55.7,25.9,56,25.8z M29,16c0,0.6,0.4,1,1,1h5c0.6,0,1-0.4,1-1s-0.4-1-1-1h-5C29.4,15,29,15.4,29,16z M29,20
		c0,0.6,0.4,1,1,1h7c0.6,0,1-0.4,1-1s-0.4-1-1-1h-7C29.4,19,29,19.4,29,20z M29,24c0,0.6,0.4,1,1,1h7c0.6,0,1-0.4,1-1s-0.4-1-1-1h-7
		C29.4,23,29,23.4,29,24z M30,29h9c0.6,0,1-0.4,1-1s-0.4-1-1-1h-9c-0.6,0-1,0.4-1,1S29.4,29,30,29z M52,35c0-0.6-0.4-1-1-1H31
		c-0.6,0-1,0.4-1,1v12c0,0.6,0.4,1,1,1h20c0.6,0,1-0.4,1-1V35z"/>
</g>
<g id="Outline" class="st0">
	<path class="st1" d="M22,9v46c0,0.6-0.4,1-1,1H9c-0.6,0-1-0.4-1-1v-5c0-0.6,0.4-1,1-1s1,0.4,1,1v4h10V10H10v35.8c0,0.6-0.4,1-1,1
		s-1-0.4-1-1V9c0-0.6,0.4-1,1-1h12C21.6,8,22,8.4,22,9z M12,33c0-0.6,0.4-1,1-1h4c0.6,0,1,0.4,1,1v17c0,0.6-0.4,1-1,1h-4
		c-0.6,0-1-0.4-1-1V33z M14,49h2V34h-2V49z M30,35c0-0.6,0.4-1,1-1h20c0.6,0,1,0.4,1,1v12c0,0.6-0.4,1-1,1H31c-0.6,0-1-0.4-1-1V35z
		 M32,46h18V36H32V46z M12,16c0-1.7,1.3-3,3-3s3,1.3,3,3s-1.3,3-3,3S12,17.7,12,16z M14,16c0,0.6,0.4,1,1,1s1-0.4,1-1s-0.4-1-1-1
		S14,15.4,14,16z M12,25c0-1.7,1.3-3,3-3s3,1.3,3,3s-1.3,3-3,3S12,26.7,12,25z M14,25c0,0.6,0.4,1,1,1s1-0.4,1-1s-0.4-1-1-1
		S14,24.4,14,25z M54,29.3V24H44c-0.6,0-1-0.4-1-1V13H29c-0.6,0-1,0.4-1,1v36c0,0.6,0.4,1,1,1h24c0.6,0,1-0.4,1-1V33
		c0-0.6,0.4-1,1-1s1,0.4,1,1v17c0,1.7-1.3,3-3,3H29c-1.7,0-3-1.3-3-3V14c0-1.7,1.3-3,3-3h15c0,0,0,0,0.1,0c0.1,0,0.2,0,0.2,0
		c0,0,0.1,0,0.1,0c0.1,0,0.2,0.1,0.3,0.2l11,11c0.1,0.1,0.1,0.2,0.2,0.3c0,0,0,0.1,0,0.1c0,0.1,0,0.2,0.1,0.3c0,0,0,0,0,0.1v6.3
		c0,0.6-0.4,1-1,1S54,29.9,54,29.3z M52.6,22L45,14.4V22H52.6z M31,17h5c0.6,0,1-0.4,1-1s-0.4-1-1-1h-5c-0.6,0-1,0.4-1,1
		S30.4,17,31,17z M31,21h9c0.6,0,1-0.4,1-1s-0.4-1-1-1h-9c-0.6,0-1,0.4-1,1S30.4,21,31,21z M31,25h7c0.6,0,1-0.4,1-1s-0.4-1-1-1h-7
		c-0.6,0-1,0.4-1,1S30.4,25,31,25z M31,29h10c0.6,0,1-0.4,1-1s-0.4-1-1-1H31c-0.6,0-1,0.4-1,1S30.4,29,31,29z"/>
</g>
<g id="Animation_Glyph" class="st0">
	<g class="st1">
		<circle cx="15" cy="16" r="1"/>
		<rect x="14" y="34" width="2" height="15"/>
		<circle cx="15" cy="25" r="1"/>
		<path d="M21,8H9C8.4,8,8,8.4,8,9v46c0,0.6,0.4,1,1,1h12c0.6,0,1-0.4,1-1V9C22,8.4,21.6,8,21,8z M18,50c0,0.6-0.4,1-1,1h-4
			c-0.6,0-1-0.4-1-1V33c0-0.6,0.4-1,1-1h4c0.6,0,1,0.4,1,1V50z M15,28c-1.7,0-3-1.3-3-3s1.3-3,3-3s3,1.3,3,3S16.7,28,15,28z M15,19
			c-1.7,0-3-1.3-3-3s1.3-3,3-3s3,1.3,3,3S16.7,19,15,19z"/>
	</g>
	<path class="st1" d="M55.7,22.3l-11-11c-0.3-0.3-0.7-0.4-1.1-0.2C43.2,11.2,43,11.6,43,12v11c0,0.6,0.4,1,1,1h11
		c0.4,0,0.8-0.2,0.9-0.6C56.1,23,56,22.6,55.7,22.3z"/>
	<g class="st1">
		<rect x="32" y="36" width="18" height="10"/>
		<path d="M55,26H44c-1.7,0-3-1.4-3-3V12c0-0.4,0.1-0.7,0.2-1H29c-1.7,0-3,1.3-3,3v36c0,1.6,1.3,3,3,3h24c1.7,0,3-1.4,3-3V25.8
			C55.7,25.9,55.3,26,55,26z M30,15h5c0.6,0,1,0.4,1,1s-0.4,1-1,1h-5c-0.6,0-1-0.4-1-1S29.4,15,30,15z M30,19h7c0.6,0,1,0.4,1,1
			s-0.4,1-1,1h-7c-0.6,0-1-0.4-1-1S29.4,19,30,19z M30,23h7c0.6,0,1,0.4,1,1s-0.4,1-1,1h-7c-0.6,0-1-0.4-1-1S29.4,23,30,23z M29,28
			c0-0.6,0.4-1,1-1h9c0.6,0,1,0.4,1,1s-0.4,1-1,1h-9C29.4,29,29,28.6,29,28z M52,47c0,0.6-0.4,1-1,1H31c-0.6,0-1-0.4-1-1V35
			c0-0.6,0.4-1,1-1h20c0.6,0,1,0.4,1,1V47z"/>
	</g>
</g>
<g id="Animation_Outline" class="st0">
	<polyline class="st2" points="9,45.8 9,9 21,9 21,55 9,55 9,50 	"/>
	<rect x="6.5" y="39.5" transform="matrix(4.494011e-11 -1 1 4.494011e-11 -26.5 56.5)" class="st2" width="17" height="4"/>
	<rect x="35" y="31" transform="matrix(6.366469e-11 -1 1 6.366469e-11 -3.034756e-09 82)" class="st2" width="12" height="20"/>
	<circle class="st2" cx="15" cy="16" r="2"/>
	<circle class="st2" cx="15" cy="25" r="2"/>
	<path class="st2" d="M55,33v17c0,1.1-0.9,2-2,2H29c-1.1,0-2-0.9-2-2V14c0-1.1,0.9-2,2-2h15l11,11v6.3"/>
	<polygon class="st2" points="44,12 44,23 55,23 	"/>
	<line class="st2" x1="31" y1="16" x2="36" y2="16"/>
	<line class="st2" x1="31" y1="20" x2="40" y2="20"/>
	<line class="st2" x1="31" y1="24" x2="38" y2="24"/>
	<line class="st2" x1="31" y1="28" x2="41" y2="28"/>
</g>
</svg>
