<?xml version="1.0" encoding="utf-8"?>
<!-- Generator: Adobe Illustrator 27.9.5, SVG Export Plug-In . SVG Version: 9.03 Build 54986)  -->
<svg version="1.1" xmlns="http://www.w3.org/2000/svg" xmlns:xlink="http://www.w3.org/1999/xlink" x="0px" y="0px"
	 viewBox="0 0 64 64" style="enable-background:new 0 0 64 64;" xml:space="preserve">
<style type="text/css">
	.st0{display:none;}
	.st1{display:inline;}
	.st2{display:inline;fill:none;stroke:#000000;stroke-width:2;stroke-linecap:round;stroke-linejoin:round;stroke-miterlimit:10;}
	.st3{fill:none;stroke:#000000;stroke-width:2;stroke-linecap:round;stroke-linejoin:round;stroke-miterlimit:10;}
	.st4{display:inline;fill:#231F20;}
	
		.st5{display:inline;fill:#FFFFFF;stroke:#000000;stroke-width:2;stroke-linecap:round;stroke-linejoin:round;stroke-miterlimit:10;}
	.st6{stroke:#000000;stroke-width:2;stroke-linecap:round;stroke-linejoin:round;stroke-miterlimit:10;}
</style>
<g id="Layer_1" class="st0">
</g>
<g id="Basic" class="st0">
	<path class="st2" d="M9,17v14c0,2.2,1.8,4,4,4h4h30h4c2.2,0,4-1.8,4-4V17H9z"/>
	<path class="st2" d="M52,35v18c0,1.1-0.9,2-2,2H14c-1.1,0-2-0.9-2-2V35"/>
	<path class="st2" d="M40,17H24v-4c0-2.2,1.8-4,4-4h8c2.2,0,4,1.8,4,4V17z"/>
	<rect x="16" y="32" class="st2" width="6" height="6"/>
	<rect x="27" y="32" class="st2" width="10" height="6"/>
	<rect x="17" y="17" class="st2" width="4" height="15"/>
	<path class="st2" d="M19,43L19,43c-1.1,0-2-0.9-2-2v-3h4v3C21,42.1,20.1,43,19,43z"/>
	<rect x="42" y="32" class="st2" width="6" height="6"/>
	<path class="st2" d="M45,43L45,43c-1.1,0-2-0.9-2-2v-3h4v3C47,42.1,46.1,43,45,43z"/>
	<rect x="43" y="17" class="st2" width="4" height="15"/>
	<line class="st2" x1="31" y1="35" x2="33" y2="35"/>
	<line class="st2" x1="30" y1="48" x2="34" y2="48"/>
	<line class="st2" x1="29" y1="51" x2="35" y2="51"/>
</g>
<g id="Glyph">
	<path d="M18,51v-2h2v2c0,0.6-0.4,1-1,1S18,51.6,18,51z M47,43h-4v4h4V43z M21,43h-4v4h4V43z M45,52c0.6,0,1-0.4,1-1v-2h-2v2
		C44,51.6,44.4,52,45,52z M46,38h-2v3h2V38z M20,38h-2v3h2V38z M51,38c1.1,0,2.1-0.2,3-0.7V55c0,1.6-1.3,3-3,3H13c-1.7,0-3-1.4-3-3
		V37.3c0.9,0.4,1.9,0.7,3,0.7h3v3c-0.5,0-1,0.5-1,1v6c0,0.5,0.5,1,1,1v2c0,1.6,1.3,3,3,3s3-1.4,3-3v-2c0.5,0,1-0.5,1-1v-6
		c0-0.5-0.5-1-1-1v-3h20v3c-0.5,0-1,0.5-1,1v6c0,0.5,0.5,1,1,1v2c0,1.6,1.3,3,3,3s3-1.4,3-3v-2c0.5,0,1-0.5,1-1v-6c0-0.5-0.5-1-1-1
		v-3H51z M29,50c0,0.5,0.5,1,1,1h4c0.5,0,1-0.5,1-1s-0.5-1-1-1h-4C29.5,49,29,49.5,29,50z M36,53c0-0.5-0.5-1-1-1h-6
		c-0.5,0-1,0.5-1,1s0.5,1,1,1h6C35.5,54,36,53.5,36,53z M20,16h-2v20h2V16z M28,24h8v4h-8V24z M30,26c0,0.6,0.4,1,1,1h2
		c0.6,0,1-0.4,1-1s-0.4-1-1-1h-2C30.4,25,30,25.4,30,26z M42,36H22V16h20V36z M38,23c0-0.6-0.4-1-1-1H27c-0.6,0-1,0.4-1,1v6
		c0,0.6,0.4,1,1,1h10c0.6,0,1-0.4,1-1V23z M46,16h-2v20h2V16z M16,36V16H9c-0.6,0-1,0.4-1,1v14c0,2.8,2.2,5,5,5H16z M55,16h-7v20h3
		c2.8,0,5-2.2,5-5V17C56,16.4,55.6,16,55,16z M41,14H23v-3c0-2.8,2.2-5,5-5h8c2.8,0,5,2.2,5,5V14z M33.5,10c0-0.8-0.7-1.5-1.5-1.5
		s-1.5,0.7-1.5,1.5s0.7,1.5,1.5,1.5S33.5,10.8,33.5,10z"/>
</g>
<g id="Outline" class="st0">
	<path class="st1" d="M55,16h-8h-4h-2v-3c0-2.8-2.2-5-5-5h-8c-2.8,0-5,2.2-5,5v3h-2h-4H9c-0.6,0-1,0.4-1,1v3.3c0,0.6,0.4,1,1,1
		s1-0.4,1-1V18h6v13c-0.6,0-1,0.4-1,1v2h-2c-1.7,0-3-1.3-3-3v-7c0-0.6-0.4-1-1-1s-1,0.4-1,1v7c0,2,1.2,3.8,3,4.6V53c0,1.7,1.3,3,3,3
		h36c1.7,0,3-1.3,3-3V39c0-0.6-0.4-1-1-1s-1,0.4-1,1v14c0,0.6-0.4,1-1,1H14c-0.6,0-1-0.4-1-1V36h2v2c0,0.6,0.4,1,1,1v2
		c0,1.7,1.3,3,3,3s3-1.3,3-3v-2c0.6,0,1-0.4,1-1v-2h18v2c0,0.6,0.4,1,1,1v2c0,1.7,1.3,3,3,3s3-1.3,3-3v-2c0.6,0,1-0.4,1-1v-2h2
		c2.8,0,5-2.2,5-5V17C56,16.4,55.6,16,55,16z M46,18v13h-2V18H46z M43,33h4v4h-4V33z M25,13c0-1.7,1.3-3,3-3h8c1.7,0,3,1.3,3,3v3H25
		V13z M18,18h2v13h-2V18z M17,33h4v4h-4V33z M20,41c0,0.6-0.4,1-1,1s-1-0.4-1-1v-2h2V41z M23,34v-2c0-0.6-0.4-1-1-1V18h2h16h2v13
		c-0.6,0-1,0.4-1,1v2H23z M46,41c0,0.6-0.4,1-1,1s-1-0.4-1-1v-2h2V41z M54,31c0,1.7-1.3,3-3,3h-2v-2c0-0.6-0.4-1-1-1V18h6V31z
		 M37,22H27c-0.6,0-1,0.4-1,1v6c0,0.6,0.4,1,1,1h10c0.6,0,1-0.4,1-1v-6C38,22.4,37.6,22,37,22z M36,28h-8v-4h8V28z M30,26
		c0-0.6,0.4-1,1-1h2c0.6,0,1,0.4,1,1s-0.4,1-1,1h-2C30.4,27,30,26.6,30,26z M30,49c-0.6,0-1-0.4-1-1s0.4-1,1-1h4c0.6,0,1,0.4,1,1
		s-0.4,1-1,1H30z M29,50h6c0.6,0,1,0.4,1,1s-0.4,1-1,1h-6c-0.6,0-1-0.4-1-1S28.4,50,29,50z"/>
</g>
<g id="Animation_Glyph" class="st0">
	<g class="st1">
		<path d="M18,51c0,0.6,0.4,1,1,1s1-0.4,1-1v-2h-2V51z"/>
		<rect x="43" y="43" width="4" height="4"/>
		<rect x="17" y="43" width="4" height="4"/>
		<path d="M44,51c0,0.6,0.4,1,1,1s1-0.4,1-1v-2h-2V51z"/>
		<path d="M44,38v3h2v-3H44z M51,38h-3v3c0.5,0,1,0.5,1,1v6c0,0.5-0.5,1-1,1v2c0,1.6-1.3,3-3,3s-3-1.4-3-3v-2c-0.5,0-1-0.5-1-1v-6
			c0-0.5,0.5-1,1-1v-3H22v3c0.5,0,1,0.5,1,1v6c0,0.5-0.5,1-1,1v2c0,1.6-1.3,3-3,3s-3-1.4-3-3v-2c-0.5,0-1-0.5-1-1v-6
			c0-0.5,0.5-1,1-1v-3h-3c-1.1,0-2.1-0.2-3-0.7V55c0,1.6,1.3,3,3,3h38c1.7,0,3-1.4,3-3V37.3C53.1,37.8,52.1,38,51,38z M30,49h4
			c0.5,0,1,0.5,1,1s-0.5,1-1,1h-4c-0.5,0-1-0.5-1-1S29.5,49,30,49z M35,54h-6c-0.5,0-1-0.5-1-1s0.5-1,1-1h6c0.5,0,1,0.5,1,1
			S35.5,54,35,54z M44,38v3h2v-3H44z M18,38v3h2v-3H18z"/>
	</g>
	<g class="st1">
		<rect x="18" y="16" width="2" height="20"/>
		<path d="M28,28h8v-4h-8V28z M31,25h2c0.6,0,1,0.4,1,1s-0.4,1-1,1h-2c-0.6,0-1-0.4-1-1S30.4,25,31,25z"/>
		<path d="M42,16H22v20h20V16z M37,30H27c-0.6,0-1-0.4-1-1v-6c0-0.6,0.4-1,1-1h10c0.6,0,1,0.4,1,1v6C38,29.6,37.6,30,37,30z"/>
		<rect x="44" y="16" width="2" height="20"/>
		<path d="M16,16H9c-0.6,0-1,0.4-1,1v14c0,2.8,2.2,5,5,5h3V16z"/>
		<path d="M55,16h-7v20h3c2.8,0,5-2.2,5-5V17C56,16.4,55.6,16,55,16z"/>
	</g>
	<path class="st1" d="M36,6h-8c-2.8,0-5,2.2-5,5v3h18v-3C41,8.2,38.8,6,36,6z M32,11.5c-0.8,0-1.5-0.7-1.5-1.5s0.7-1.5,1.5-1.5
		s1.5,0.7,1.5,1.5S32.8,11.5,32,11.5z"/>
</g>
<g id="Animation_Outline" class="st0">
	<line class="st2" x1="42" y1="35" x2="22" y2="35"/>
	<path class="st2" d="M9,20.3V17h46v14c0,2.2-1.8,4-4,4h-3"/>
	<path class="st2" d="M16,35h-3c-2.2,0-4-1.8-4-4v-7"/>
	<path class="st2" d="M52,39v14c0,1.1-0.9,2-2,2H14c-1.1,0-2-0.9-2-2V35"/>
	<path class="st2" d="M40,17H24v-4c0-2.2,1.8-4,4-4h8c2.2,0,4,1.8,4,4V17z"/>
	<rect x="16" y="32" class="st2" width="6" height="6"/>
	<rect x="27" y="23" class="st2" width="10" height="6"/>
	<rect x="17" y="17" class="st2" width="4" height="15"/>
	<path class="st2" d="M19,43L19,43c-1.1,0-2-0.9-2-2v-3h4v3C21,42.1,20.1,43,19,43z"/>
	<rect x="42" y="32" class="st2" width="6" height="6"/>
	<path class="st2" d="M45,43L45,43c-1.1,0-2-0.9-2-2v-3h4v3C47,42.1,46.1,43,45,43z"/>
	<rect x="43" y="17" class="st2" width="4" height="15"/>
	<line class="st2" x1="31" y1="26" x2="33" y2="26"/>
	<line class="st2" x1="30" y1="48" x2="34" y2="48"/>
	<line class="st2" x1="29" y1="51" x2="35" y2="51"/>
</g>
</svg>
