<?xml version="1.0" encoding="utf-8"?>
<!-- Generator: Adobe Illustrator 27.9.5, SVG Export Plug-In . SVG Version: 9.03 Build 54986)  -->
<svg version="1.1" xmlns="http://www.w3.org/2000/svg" xmlns:xlink="http://www.w3.org/1999/xlink" x="0px" y="0px"
	 viewBox="0 0 64 64" style="enable-background:new 0 0 64 64;" xml:space="preserve">
<style type="text/css">
	.st0{display:none;}
	.st1{display:inline;}
	.st2{display:inline;fill:none;stroke:#000000;stroke-width:2;stroke-linecap:round;stroke-linejoin:round;stroke-miterlimit:10;}
	.st3{fill:none;stroke:#000000;stroke-width:2;stroke-linecap:round;stroke-linejoin:round;stroke-miterlimit:10;}
	.st4{display:inline;fill:#231F20;}
	
		.st5{display:inline;fill:#FFFFFF;stroke:#000000;stroke-width:2;stroke-linecap:round;stroke-linejoin:round;stroke-miterlimit:10;}
	.st6{stroke:#000000;stroke-width:2;stroke-linecap:round;stroke-linejoin:round;stroke-miterlimit:10;}
</style>
<g id="Layer_1" class="st0">
</g>
<g id="Basic" class="st0">
	<path class="st2" d="M49,21v32c0,1.1-0.9,2-2,2H17c-1.1,0-2-0.9-2-2V11c0-1.1,0.9-2,2-2h20L49,21z"/>
	<polygon class="st2" points="37,9 37,21 49,21 	"/>
	<rect x="19" y="45" class="st2" width="26" height="6"/>
	<rect x="19" y="35" class="st2" width="26" height="6"/>
	<rect x="19" y="25" class="st2" width="26" height="6"/>
	<line class="st2" x1="19" y1="15" x2="26" y2="15"/>
	<line class="st2" x1="19" y1="19" x2="33" y2="19"/>
</g>
<g id="Glyph">
	<path d="M36,21V9c0-0.4,0.2-0.8,0.6-0.9C37,7.9,37.4,8,37.7,8.3l12,12c0.3,0.3,0.4,0.7,0.2,1.1C49.8,21.8,49.4,22,49,22H37
		C36.4,22,36,21.6,36,21z M20,42h24v-4H20V42z M20,33h24v-4H20V33z M20,51h24v-4H20V51z M50,23.8V53c0,1.6-1.3,3-3,3H17
		c-1.7,0-3-1.4-3-3V11c0-1.7,1.3-3,3-3h17.2C34.1,8.3,34,8.7,34,9v12c0,1.6,1.3,3,3,3h12C49.3,24,49.7,23.9,50,23.8z M18,15
		c0,0.6,0.4,1,1,1h6c0.6,0,1-0.4,1-1s-0.4-1-1-1h-6C18.4,14,18,14.4,18,15z M18,19c0,0.6,0.4,1,1,1h11c0.6,0,1-0.4,1-1s-0.4-1-1-1
		H19C18.4,18,18,18.4,18,19z M46,46c0-0.6-0.4-1-1-1H19c-0.6,0-1,0.4-1,1v6c0,0.6,0.4,1,1,1h26c0.6,0,1-0.4,1-1V46z M46,37
		c0-0.6-0.4-1-1-1H19c-0.6,0-1,0.4-1,1v6c0,0.6,0.4,1,1,1h26c0.6,0,1-0.4,1-1V37z M46,28c0-0.6-0.4-1-1-1H19c-0.6,0-1,0.4-1,1v6
		c0,0.6,0.4,1,1,1h26c0.6,0,1-0.4,1-1V28z"/>
</g>
<g id="Outline" class="st0">
	<path class="st1" d="M50,20.9c0-0.1,0-0.2-0.1-0.3c0,0,0-0.1,0-0.1c0-0.1-0.1-0.2-0.2-0.3l-12-12c-0.1-0.1-0.2-0.1-0.3-0.2
		c0,0-0.1,0-0.1,0c-0.1,0-0.2,0-0.3-0.1c0,0,0,0-0.1,0H17c-1.7,0-3,1.3-3,3v4c0,0.6,0.4,1,1,1s1-0.4,1-1v-4c0-0.6,0.4-1,1-1h19v11
		c0,0.6,0.4,1,1,1h11v25c0,0.6,0.4,1,1,1s1-0.4,1-1L50,20.9C50,21,50,21,50,20.9z M38,20v-8.6l8.6,8.6H38z M50,51v2c0,1.7-1.3,3-3,3
		H17c-1.7,0-3-1.3-3-3V19.3c0-0.6,0.4-1,1-1s1,0.4,1,1V53c0,0.6,0.4,1,1,1h30c0.6,0,1-0.4,1-1v-2c0-0.6,0.4-1,1-1S50,50.4,50,51z
		 M18,51c0,0.6,0.4,1,1,1h26c0.6,0,1-0.4,1-1v-6c0-0.6-0.4-1-1-1H19c-0.6,0-1,0.4-1,1V51z M20,46h24v4H20V46z M18,41
		c0,0.6,0.4,1,1,1h26c0.6,0,1-0.4,1-1v-6c0-0.6-0.4-1-1-1H19c-0.6,0-1,0.4-1,1V41z M20,36h24v4H20V36z M18,31c0,0.6,0.4,1,1,1h26
		c0.6,0,1-0.4,1-1v-6c0-0.6-0.4-1-1-1H19c-0.6,0-1,0.4-1,1V31z M20,26h24v4H20V26z M18,15c0-0.6,0.4-1,1-1h7c0.6,0,1,0.4,1,1
		s-0.4,1-1,1h-7C18.4,16,18,15.6,18,15z M18,19c0-0.6,0.4-1,1-1h14c0.6,0,1,0.4,1,1s-0.4,1-1,1H19C18.4,20,18,19.6,18,19z"/>
</g>
<g id="Animation_Glyph" class="st0">
	<path class="st1" d="M49.7,20.3l-12-12C37.4,8,37,7.9,36.6,8.1C36.2,8.2,36,8.6,36,9v12c0,0.6,0.4,1,1,1h12c0.4,0,0.8-0.2,0.9-0.6
		C50.1,21,50,20.6,49.7,20.3z"/>
	<g class="st1">
		<rect x="20" y="38" width="24" height="4"/>
		<rect x="20" y="29" width="24" height="4"/>
		<rect x="20" y="47" width="24" height="4"/>
		<path d="M49,24H37c-1.7,0-3-1.4-3-3V9c0-0.3,0.1-0.7,0.2-1H17c-1.7,0-3,1.3-3,3v42c0,1.6,1.3,3,3,3h30c1.7,0,3-1.4,3-3V23.8
			C49.7,23.9,49.3,24,49,24z M19,14h6c0.6,0,1,0.4,1,1s-0.4,1-1,1h-6c-0.6,0-1-0.4-1-1S18.4,14,19,14z M19,18h11c0.6,0,1,0.4,1,1
			s-0.4,1-1,1H19c-0.6,0-1-0.4-1-1S18.4,18,19,18z M46,52c0,0.6-0.4,1-1,1H19c-0.6,0-1-0.4-1-1v-6c0-0.6,0.4-1,1-1h26
			c0.6,0,1,0.4,1,1V52z M46,43c0,0.6-0.4,1-1,1H19c-0.6,0-1-0.4-1-1v-6c0-0.6,0.4-1,1-1h26c0.6,0,1,0.4,1,1V43z M46,34
			c0,0.6-0.4,1-1,1H19c-0.6,0-1-0.4-1-1v-6c0-0.6,0.4-1,1-1h26c0.6,0,1,0.4,1,1V34z"/>
	</g>
</g>
<g id="Animation_Outline" class="st0">
	<path class="st2" d="M15,15v-4c0-1.1,0.9-2,2-2h20l12,12v26"/>
	<path class="st2" d="M49,51v2c0,1.1-0.9,2-2,2H17c-1.1,0-2-0.9-2-2V19.3"/>
	<polygon class="st2" points="37,9 37,21 49,21 	"/>
	<rect x="19" y="45" class="st2" width="26" height="6"/>
	<rect x="19" y="35" class="st2" width="26" height="6"/>
	<rect x="19" y="25" class="st2" width="26" height="6"/>
	<line class="st2" x1="19" y1="15" x2="26" y2="15"/>
	<line class="st2" x1="19" y1="19" x2="33" y2="19"/>
</g>
</svg>
