<?xml version="1.0" encoding="utf-8"?>
<!-- Generator: Adobe Illustrator 27.9.5, SVG Export Plug-In . SVG Version: 9.03 Build 54986)  -->
<svg version="1.1" xmlns="http://www.w3.org/2000/svg" xmlns:xlink="http://www.w3.org/1999/xlink" x="0px" y="0px"
	 viewBox="0 0 64 64" style="enable-background:new 0 0 64 64;" xml:space="preserve">
<style type="text/css">
	.st0{display:none;}
	.st1{display:inline;}
	.st2{display:inline;fill:none;stroke:#000000;stroke-width:2;stroke-linecap:round;stroke-linejoin:round;stroke-miterlimit:10;}
	.st3{fill:none;stroke:#000000;stroke-width:2;stroke-linecap:round;stroke-linejoin:round;stroke-miterlimit:10;}
	.st4{display:inline;fill:#231F20;}
	
		.st5{display:inline;fill:#FFFFFF;stroke:#000000;stroke-width:2;stroke-linecap:round;stroke-linejoin:round;stroke-miterlimit:10;}
	.st6{stroke:#000000;stroke-width:2;stroke-linecap:round;stroke-linejoin:round;stroke-miterlimit:10;}
</style>
<g id="Layer_1" class="st0">
</g>
<g id="Basic" class="st0">
	<circle class="st2" cx="32" cy="32" r="2"/>
	<line class="st2" x1="32" y1="14" x2="32" y2="16"/>
	<line class="st2" x1="22" y1="17.2" x2="23" y2="18.9"/>
	<line class="st2" x1="16.2" y1="24" x2="17.9" y2="25"/>
	<line class="st2" x1="32" y1="50" x2="32" y2="48"/>
	<line class="st2" x1="42" y1="46.8" x2="41" y2="45.1"/>
	<line class="st2" x1="22" y1="46.8" x2="23" y2="45.1"/>
	<line class="st2" x1="16" y1="39.8" x2="18" y2="39.1"/>
	<line class="st2" x1="47.8" y1="40" x2="46.1" y2="39"/>
	<line class="st2" x1="50" y1="32" x2="48" y2="32"/>
	<line class="st2" x1="16" y1="32" x2="14" y2="32"/>
	<line class="st2" x1="47.8" y1="24" x2="46.1" y2="25"/>
	<line class="st2" x1="42" y1="17.2" x2="41" y2="18.9"/>
	<line class="st2" x1="23" y1="37" x2="30.8" y2="33.8"/>
	<line class="st2" x1="28" y1="18" x2="31.4" y2="30"/>
	<circle class="st2" cx="32" cy="32" r="18"/>
	<circle class="st2" cx="32" cy="32" r="23"/>
	<circle class="st5" cx="45" cy="45" r="10"/>
	<circle class="st2" cx="45" cy="44" r="3"/>
	<path class="st2" d="M50,59H40v-6c0-2.8,2.2-5,5-5h0c2.8,0,5,2.2,5,5V59z"/>
</g>
<g id="Glyph">
	<path d="M32,31c0,0.6-0.4,1-1,1s-1-0.4-1-1s0.4-1,1-1S32,30.4,32,31z M31,50c-10.5,0-19-8.5-19-19s8.5-19,19-19s19,8.5,19,19
		c0,0.9-0.1,1.7-0.2,2.6c1.7,0.5,3.3,1.4,4.6,2.5c0.4-1.7,0.6-3.4,0.6-5.1C55,17.8,44.2,7,31,7S7,17.8,7,31c0,13.2,10.8,24,24,24
		c1.8,0,3.5-0.2,5.1-0.6c-1.2-1.4-2-2.9-2.6-4.6C32.7,49.9,31.9,50,31,50z M46,31c0,0.6,0.4,1,1,1h0.9c0,0.4-0.1,0.8-0.1,1.1
		C47.2,33.1,46.6,33,46,33c-7.2,0-13,5.8-13,13c0,0.6,0.1,1.2,0.1,1.8c-0.4,0-0.8,0.1-1.1,0.1V47c0-0.6-0.4-1-1-1s-1,0.4-1,1v0.9
		c-2.8-0.2-5.4-1-7.7-2.4l0.6-1c0.3-0.5,0.1-1.1-0.4-1.4s-1.1-0.1-1.4,0.4l-0.5,0.9c-1.8-1.4-3.3-3.1-4.4-5l1.1-0.4
		c0.5-0.2,0.8-0.8,0.6-1.3c-0.2-0.5-0.8-0.8-1.3-0.6l-1.3,0.5c-0.7-1.7-1.2-3.6-1.3-5.6H15c0.6,0,1-0.4,1-1s-0.4-1-1-1h-0.9
		c0.1-2,0.6-4,1.3-5.7l1,0.6c0.2,0.1,0.3,0.1,0.5,0.1c0.3,0,0.7-0.2,0.9-0.5c0.3-0.5,0.1-1.1-0.4-1.4l-1.1-0.7
		c1.1-1.9,2.6-3.6,4.3-4.9l0.5,0.9c0.2,0.3,0.5,0.5,0.9,0.5c0.2,0,0.3,0,0.5-0.1c0.5-0.3,0.6-0.9,0.4-1.4l-0.6-1
		c2.3-1.4,4.9-2.2,7.7-2.4V15c0,0.6,0.4,1,1,1s1-0.4,1-1v-0.9c2.8,0.2,5.4,1,7.7,2.4l-0.6,1c-0.3,0.5-0.1,1.1,0.4,1.4
		c0.2,0.1,0.3,0.1,0.5,0.1c0.3,0,0.7-0.2,0.9-0.5l0.5-0.9c1.7,1.3,3.2,3,4.3,4.9l-1.1,0.7c-0.5,0.3-0.6,0.9-0.4,1.4
		c0.2,0.3,0.5,0.5,0.9,0.5c0.2,0,0.3,0,0.5-0.1l1-0.6c0.8,1.8,1.2,3.7,1.3,5.7H47C46.4,30,46,30.4,46,31z M34,31
		c0-1.6-1.3-2.9-2.8-3L28,16.7c-0.1-0.5-0.7-0.8-1.2-0.7c-0.5,0.2-0.8,0.7-0.7,1.2l3.2,11.3C28.5,29.1,28,30,28,31
		c0,0.5,0.1,0.9,0.3,1.3l-6.7,2.8c-0.5,0.2-0.8,0.8-0.5,1.3c0.2,0.4,0.5,0.6,0.9,0.6c0.1,0,0.3,0,0.4-0.1l7.6-3.1
		c0.3,0.1,0.7,0.2,1,0.2C32.7,34,34,32.7,34,31z M46,50c-2.2,0-4,1.8-4,4v2.2c1.2,0.5,2.6,0.8,4,0.8s2.8-0.3,4-0.8V54
		C50,51.8,48.2,50,46,50z M48,45c0-1.1-0.9-2-2-2s-2,0.9-2,2s0.9,2,2,2S48,46.1,48,45z M46,35c-6.1,0-11,4.9-11,11
		c0,3.9,2,7.2,5,9.2V54c0-2.6,1.6-4.8,3.9-5.6c-1.1-0.7-1.9-2-1.9-3.4c0-2.2,1.8-4,4-4s4,1.8,4,4c0,1.4-0.8,2.7-1.9,3.4
		c2.3,0.9,3.9,3,3.9,5.6v1.2c3-2,5-5.4,5-9.2C57,39.9,52.1,35,46,35z"/>
</g>
<g id="Outline" class="st0">
	<path class="st1" d="M48,31h0.9c-0.1-2-0.6-4-1.3-5.7l-1,0.6C46.4,26,46.2,26,46.1,26c-0.3,0-0.7-0.2-0.9-0.5
		c-0.3-0.5-0.1-1.1,0.4-1.4l1.1-0.7c-1.1-1.9-2.6-3.6-4.3-4.9l-0.5,0.9c-0.2,0.3-0.5,0.5-0.9,0.5c-0.2,0-0.3,0-0.5-0.1
		c-0.5-0.3-0.6-0.9-0.4-1.4l0.6-1c-2.3-1.4-4.9-2.2-7.7-2.4V16c0,0.6-0.4,1-1,1s-1-0.4-1-1v-0.9c-2.8,0.2-5.4,1-7.7,2.4l0.6,1
		c0.3,0.5,0.1,1.1-0.4,1.4c-0.2,0.1-0.3,0.1-0.5,0.1c-0.3,0-0.7-0.2-0.9-0.5l-0.5-0.9c-1.7,1.3-3.2,3-4.3,4.9l1.1,0.7
		c0.5,0.3,0.6,0.9,0.4,1.4c-0.2,0.3-0.5,0.5-0.9,0.5c-0.2,0-0.3,0-0.5-0.1l-1-0.6C15.6,27,15.2,29,15.1,31H16c0.6,0,1,0.4,1,1
		s-0.4,1-1,1h-0.9c0.1,2,0.5,3.9,1.3,5.6l1.3-0.5c0.5-0.2,1.1,0.1,1.3,0.6c0.2,0.5-0.1,1.1-0.6,1.3l-1.1,0.4c1.1,2,2.6,3.7,4.4,5
		l0.5-0.9c0.3-0.5,0.9-0.6,1.4-0.4s0.6,0.9,0.4,1.4l-0.6,1c2.3,1.4,4.9,2.2,7.7,2.4V48c0-0.6,0.4-1,1-1s1,0.4,1,1v2c0,0.6-0.4,1-1,1
		c-10.5,0-19-8.5-19-19s8.5-19,19-19s19,8.5,19,19c0,0.6-0.4,1-1,1h-2c-0.6,0-1-0.4-1-1S47.4,31,48,31z M22.6,36.1l6.7-2.8
		C29.1,32.9,29,32.5,29,32c0-1,0.5-1.9,1.2-2.4L27,18.3c-0.2-0.5,0.2-1.1,0.7-1.2c0.5-0.2,1.1,0.2,1.2,0.7L32.2,29
		c1.6,0.1,2.8,1.4,2.8,3c0,1.7-1.3,3-3,3c-0.4,0-0.7-0.1-1-0.2l-7.6,3.1C23.3,38,23.1,38,23,38c-0.4,0-0.8-0.2-0.9-0.6
		C21.9,36.9,22.1,36.3,22.6,36.1z M32,31c-0.6,0-1,0.4-1,1s0.4,1,1,1s1-0.4,1-1S32.6,31,32,31z M34.4,53.9C33.6,54,32.8,54,32,54
		c-12.1,0-22-9.9-22-22s9.9-22,22-22s22,9.9,22,22c0,0.7,0,1.4-0.1,2.1c-0.1,0.5,0.4,1,0.9,1.1c0.5,0.1,1-0.4,1.1-0.9
		C56,33.5,56,32.8,56,32C56,18.8,45.2,8,32,8S8,18.8,8,32s10.8,24,24,24c0.9,0,1.7,0,2.6-0.1c0.5-0.1,0.9-0.6,0.9-1.1
		C35.4,54.2,34.9,53.8,34.4,53.9z M56,45c0,6.1-4.9,11-11,11s-11-4.9-11-11s4.9-11,11-11S56,38.9,56,45z M45,54c1.4,0,2.8-0.3,4-0.9
		V53c0-2.2-1.8-4-4-4s-4,1.8-4,4v0.1C42.2,53.7,43.6,54,45,54z M45,47c1.1,0,2-0.9,2-2s-0.9-2-2-2s-2,0.9-2,2S43.9,47,45,47z M54,45
		c0-5-4-9-9-9s-9,4-9,9c0,2.7,1.2,5.1,3.1,6.8c0.4-1.7,1.5-3.2,3-4.1C41.4,47,41,46.1,41,45c0-2.2,1.8-4,4-4s4,1.8,4,4
		c0,1.1-0.4,2-1.1,2.7c1.5,0.8,2.6,2.3,3,4.1C52.8,50.1,54,47.7,54,45z"/>
</g>
<g id="Animation_Glyph" class="st0">
	<g class="st1">
		<circle cx="31" cy="31" r="1"/>
		<path d="M31,7C17.8,7,7,17.8,7,31c0,13.2,10.8,24,24,24c1.8,0,3.5-0.2,5.1-0.6c-1.2-1.4-2-2.9-2.6-4.6C32.7,49.9,31.9,50,31,50
			c-10.5,0-19-8.5-19-19s8.5-19,19-19s19,8.5,19,19c0,0.9-0.1,1.7-0.2,2.6c1.7,0.5,3.3,1.4,4.6,2.5c0.4-1.7,0.6-3.4,0.6-5.1
			C55,17.8,44.2,7,31,7z"/>
		<path d="M33.1,47.8C33.1,47.2,33,46.6,33,46c0-7.2,5.8-13,13-13c0.6,0,1.2,0.1,1.8,0.1c0-0.4,0.1-0.8,0.1-1.1H47c-0.6,0-1-0.4-1-1
			s0.4-1,1-1h0.9c-0.1-2-0.6-4-1.3-5.7l-1,0.6C45.4,25,45.2,25,45.1,25c-0.3,0-0.7-0.2-0.9-0.5c-0.3-0.5-0.1-1.1,0.4-1.4l1.1-0.7
			c-1.1-1.9-2.6-3.6-4.3-4.9l-0.5,0.9c-0.2,0.3-0.5,0.5-0.9,0.5c-0.2,0-0.3,0-0.5-0.1c-0.5-0.3-0.6-0.9-0.4-1.4l0.6-1
			c-2.3-1.4-4.9-2.2-7.7-2.4V15c0,0.6-0.4,1-1,1s-1-0.4-1-1v-0.9c-2.8,0.2-5.4,1-7.7,2.4l0.6,1c0.3,0.5,0.1,1.1-0.4,1.4
			c-0.2,0.1-0.3,0.1-0.5,0.1c-0.3,0-0.7-0.2-0.9-0.5l-0.5-0.9c-1.7,1.3-3.2,3-4.3,4.9l1.1,0.7c0.5,0.3,0.6,0.9,0.4,1.4
			c-0.2,0.3-0.5,0.5-0.9,0.5c-0.2,0-0.3,0-0.5-0.1l-1-0.6C14.6,26,14.2,28,14.1,30H15c0.6,0,1,0.4,1,1s-0.4,1-1,1h-0.9
			c0.1,2,0.5,3.9,1.3,5.6l1.3-0.5c0.5-0.2,1.1,0.1,1.3,0.6c0.2,0.5-0.1,1.1-0.6,1.3l-1.1,0.4c1.1,2,2.6,3.7,4.4,5l0.5-0.9
			c0.3-0.5,0.9-0.6,1.4-0.4s0.6,0.9,0.4,1.4l-0.6,1c2.3,1.4,4.9,2.2,7.7,2.4V47c0-0.6,0.4-1,1-1s1,0.4,1,1v0.9
			C32.4,47.9,32.8,47.9,33.1,47.8z M31,34c-0.4,0-0.7-0.1-1-0.2l-7.6,3.1C22.3,37,22.1,37,22,37c-0.4,0-0.8-0.2-0.9-0.6
			c-0.2-0.5,0-1.1,0.5-1.3l6.7-2.8C28.1,31.9,28,31.5,28,31c0-1,0.5-1.9,1.2-2.4L26,17.3c-0.2-0.5,0.2-1.1,0.7-1.2
			c0.5-0.2,1.1,0.2,1.2,0.7L31.2,28c1.6,0.1,2.8,1.4,2.8,3C34,32.7,32.7,34,31,34z"/>
	</g>
	<g class="st1">
		<path d="M42,54v2.2c1.2,0.5,2.6,0.8,4,0.8s2.8-0.3,4-0.8V54c0-2.2-1.8-4-4-4S42,51.8,42,54z"/>
		<circle cx="46" cy="45" r="2"/>
		<path d="M46,35c-6.1,0-11,4.9-11,11c0,3.9,2,7.2,5,9.2V54c0-2.6,1.6-4.8,3.9-5.6c-1.1-0.7-1.9-2-1.9-3.4c0-2.2,1.8-4,4-4
			s4,1.8,4,4c0,1.4-0.8,2.7-1.9,3.4c2.3,0.9,3.9,3,3.9,5.6v1.2c3-2,5-5.4,5-9.2C57,39.9,52.1,35,46,35z"/>
	</g>
</g>
<g id="Animation_Outline" class="st0">
	<circle class="st2" cx="32" cy="32" r="2"/>
	<line class="st2" x1="32" y1="14" x2="32" y2="16"/>
	<line class="st2" x1="22" y1="17.2" x2="23" y2="18.9"/>
	<line class="st2" x1="16.2" y1="24" x2="17.9" y2="25"/>
	<line class="st2" x1="32" y1="50" x2="32" y2="48"/>
	<line class="st2" x1="22" y1="46.8" x2="23" y2="45.1"/>
	<line class="st2" x1="16" y1="39.8" x2="18" y2="39.1"/>
	<line class="st2" x1="50" y1="32" x2="48" y2="32"/>
	<line class="st2" x1="16" y1="32" x2="14" y2="32"/>
	<line class="st2" x1="47.8" y1="24" x2="46.1" y2="25"/>
	<line class="st2" x1="42" y1="17.2" x2="41" y2="18.9"/>
	<line class="st2" x1="23" y1="37" x2="30.8" y2="33.8"/>
	<line class="st2" x1="28" y1="18" x2="31.4" y2="30"/>
	<path class="st2" d="M49.5,36.1c0.3-1.3,0.5-2.7,0.5-4.1c0-9.9-8.1-18-18-18s-18,8.1-18,18s8.1,18,18,18c1.4,0,2.8-0.2,4.1-0.5"/>
	<path class="st2" d="M54.7,35.9c0.2-1.3,0.3-2.6,0.3-3.9C55,19.3,44.7,9,32,9S9,19.3,9,32s10.3,23,23,23c2.8,0,5.4-0.5,7.9-1.4"/>
	<path class="st2" d="M55,45c0,3.7-2,6.9-5,8.7c-1.5,0.9-3.2,1.3-5,1.3s-3.5-0.5-5-1.3c-3-1.7-5-5-5-8.7c0-5.5,4.5-10,10-10
		S55,39.5,55,45z"/>
	<circle class="st2" cx="45" cy="44" r="3"/>
	<path class="st2" d="M50,53v0.7c-1.5,0.9-3.2,1.3-5,1.3s-3.5-0.5-5-1.3V53c0-2.8,2.2-5,5-5c1.4,0,2.6,0.6,3.5,1.5
		C49.4,50.4,50,51.6,50,53z"/>
</g>
</svg>
