<?xml version="1.0" encoding="utf-8"?>
<!-- Generator: Adobe Illustrator 27.9.5, SVG Export Plug-In . SVG Version: 9.03 Build 54986)  -->
<svg version="1.1" xmlns="http://www.w3.org/2000/svg" xmlns:xlink="http://www.w3.org/1999/xlink" x="0px" y="0px"
	 viewBox="0 0 64 64" style="enable-background:new 0 0 64 64;" xml:space="preserve">
<style type="text/css">
	.st0{display:none;}
	.st1{display:inline;}
	.st2{display:inline;fill:none;stroke:#000000;stroke-width:2;stroke-linecap:round;stroke-linejoin:round;stroke-miterlimit:10;}
	.st3{fill:none;stroke:#000000;stroke-width:2;stroke-linecap:round;stroke-linejoin:round;stroke-miterlimit:10;}
	.st4{display:inline;fill:#231F20;}
	
		.st5{display:inline;fill:#FFFFFF;stroke:#000000;stroke-width:2;stroke-linecap:round;stroke-linejoin:round;stroke-miterlimit:10;}
	.st6{stroke:#000000;stroke-width:2;stroke-linecap:round;stroke-linejoin:round;stroke-miterlimit:10;}
</style>
<g id="Layer_1" class="st0">
</g>
<g id="Basic" class="st0">
	<circle class="st2" cx="32" cy="27" r="18"/>
	<rect x="29" y="49" class="st2" width="6" height="6"/>
	<rect x="13" y="49" class="st2" width="6" height="6"/>
	<rect x="45" y="49" class="st2" width="6" height="6"/>
	<circle class="st1" cx="16" cy="52" r="1"/>
	<circle class="st2" cx="32" cy="27" r="13"/>
	<circle class="st2" cx="32" cy="27" r="8"/>
	<rect x="8" y="23" class="st2" width="6" height="8"/>
	<rect x="50" y="23" class="st2" width="6" height="8"/>
	<line class="st2" x1="24" y1="27" x2="26" y2="27"/>
	<line class="st2" x1="38" y1="27" x2="40" y2="27"/>
	<line class="st2" x1="32" y1="35" x2="32" y2="33"/>
	<line class="st2" x1="32" y1="21" x2="32" y2="19"/>
	<line class="st2" x1="32" y1="27" x2="50" y2="9"/>
</g>
<g id="Glyph">
	<path d="M36,49v6c0,0.6-0.4,1-1,1h-6c-0.6,0-1-0.4-1-1v-6c0-0.6,0.4-1,1-1h6C35.6,48,36,48.4,36,49z M51,48h-6c-0.6,0-1,0.4-1,1v6
		c0,0.6,0.4,1,1,1h6c0.6,0,1-0.4,1-1v-6C52,48.4,51.6,48,51,48z M20,49v6c0,0.6-0.4,1-1,1h-6c-0.6,0-1-0.4-1-1v-6c0-0.6,0.4-1,1-1h6
		C19.6,48,20,48.4,20,49z M17,52c0-0.6-0.4-1-1-1s-1,0.4-1,1c0,0.6,0.4,1,1,1S17,52.6,17,52z M56,22h-5.7c-0.6-2.2-1.6-4.3-2.9-6.1
		l-3.6,3.6c1.4,2.2,2.2,4.8,2.2,7.5c0,7.7-6.3,14-14,14s-14-6.3-14-14c0-7.7,6.3-14,14-14c2.8,0,5.4,0.8,7.5,2.2l3.6-3.6
		C40,9.3,36.2,8,32,8c-8.7,0-16.1,5.9-18.3,14H8c-0.6,0-1,0.4-1,1v8c0,0.6,0.4,1,1,1h5.7c2.2,8.1,9.6,14,18.3,14s16.1-5.9,18.3-14
		H56c0.6,0,1-0.4,1-1v-8C57,22.4,56.6,22,56,22z M34.3,20.4c-0.4-0.2-0.9-0.3-1.3-0.3V21c0,0.5-0.5,1-1,1s-1-0.5-1-1v-0.9
		c-3.1,0.4-5.5,2.9-5.9,5.9H26c0.5,0,1,0.5,1,1s-0.5,1-1,1h-0.9c0.4,3.1,2.9,5.5,5.9,5.9V33c0-0.5,0.5-1,1-1s1,0.5,1,1v0.9
		c3.1-0.4,5.5-2.9,5.9-5.9H38c-0.5,0-1-0.5-1-1s0.5-1,1-1h0.9c-0.1-0.5-0.2-0.9-0.3-1.3l-4.5,4.5C33.5,29.7,32.8,30,32,30
		s-1.5-0.3-2.1-0.9c-1.2-1.2-1.2-3.1,0-4.2L34.3,20.4z M38.1,16.7C36.3,15.6,34.2,15,32,15c-6.6,0-12,5.4-12,12s5.4,12,12,12
		s12-5.4,12-12c0-2.2-0.6-4.3-1.7-6.1l-2.2,2.2c0.6,1.2,0.9,2.5,0.9,3.9c0,5-4,9-9,9s-9-4-9-9c0-5,4-9,9-9c1.4,0,2.7,0.3,3.9,0.9
		L38.1,16.7z M31.3,27.7c0.2,0.2,0.5,0.3,0.7,0.3s0.5-0.1,0.7-0.3l18-18c0.4-0.4,0.4-1,0-1.4s-1-0.4-1.4,0l-18,18
		C30.9,26.7,30.9,27.3,31.3,27.7z"/>
</g>
<g id="Outline" class="st0">
	<path class="st1" d="M35,48h-6c-0.6,0-1,0.4-1,1v6c0,0.6,0.4,1,1,1h6c0.6,0,1-0.4,1-1v-6C36,48.4,35.6,48,35,48z M34,54h-4v-4h4V54
		z M19,48h-6c-0.6,0-1,0.4-1,1v6c0,0.6,0.4,1,1,1h6c0.6,0,1-0.4,1-1v-6C20,48.4,19.6,48,19,48z M18,54h-4v-4h4V54z M51,48h-6
		c-0.6,0-1,0.4-1,1v6c0,0.6,0.4,1,1,1h6c0.6,0,1-0.4,1-1v-6C52,48.4,51.6,48,51,48z M50,54h-4v-4h4V54z M15,52c0-0.6,0.4-1,1-1
		s1,0.4,1,1c0,0.6-0.4,1-1,1S15,52.6,15,52z M56,22h-5.7c-0.5-2-1.4-3.8-2.5-5.5c-0.3-0.5-0.9-0.6-1.4-0.3c-0.5,0.3-0.6,0.9-0.3,1.4
		c1.9,2.8,2.9,6,2.9,9.4c0,9.4-7.6,17-17,17s-17-7.6-17-17s7.6-17,17-17c4.2,0,8.2,1.5,11.3,4.3l-2.1,2.1C38.6,14.2,35.4,13,32,13
		c-7.7,0-14,6.3-14,14s6.3,14,14,14s14-6.3,14-14c0-2.4-0.6-4.8-1.8-6.8c-0.3-0.5-0.9-0.6-1.4-0.4c-0.5,0.3-0.7,0.9-0.4,1.4
		c1,1.8,1.5,3.8,1.5,5.8c0,6.6-5.4,12-12,12s-12-5.4-12-12c0-6.6,5.4-12,12-12c2.9,0,5.6,1,7.7,2.8L37.6,20c-1.6-1.3-3.6-2-5.6-2
		c-5,0-9,4-9,9s4,9,9,9s9-4,9-9c0-1-0.2-2-0.5-2.9c-0.2-0.5-0.8-0.8-1.3-0.6c-0.5,0.2-0.8,0.8-0.6,1.3c0.1,0.4,0.2,0.8,0.3,1.2H38
		c-0.6,0-1,0.4-1,1s0.4,1,1,1h0.9c-0.4,3.1-2.9,5.5-5.9,5.9V33c0-0.6-0.4-1-1-1s-1,0.4-1,1v0.9c-3.1-0.4-5.5-2.9-5.9-5.9H26
		c0.6,0,1-0.4,1-1s-0.4-1-1-1h-0.9c0.4-3.1,2.9-5.5,5.9-5.9V21c0,0.6,0.4,1,1,1s1-0.4,1-1v-0.9c1.2,0.2,2.2,0.6,3.2,1.3l-4.9,4.9
		c-0.4,0.4-0.4,1,0,1.4c0.2,0.2,0.5,0.3,0.7,0.3s0.5-0.1,0.7-0.3l18-18c0.4-0.4,0.4-1,0-1.4s-1-0.4-1.4,0l-4.6,4.6
		C41.2,9.7,36.7,8,32,8c-8.7,0-16.1,5.9-18.3,14H8c-0.6,0-1,0.4-1,1v8c0,0.6,0.4,1,1,1h5.7c2.2,8.1,9.6,14,18.3,14s16.1-5.9,18.3-14
		H56c0.6,0,1-0.4,1-1v-8C57,22.4,56.6,22,56,22z M13,30H9v-6h4V30z M55,30h-4v-6h4V30z"/>
</g>
<g id="Animation_Glyph" class="st0">
	<path class="st1" d="M35,48h-6c-0.6,0-1,0.4-1,1v6c0,0.6,0.4,1,1,1h6c0.6,0,1-0.4,1-1v-6C36,48.4,35.6,48,35,48z"/>
	<path class="st1" d="M51,48h-6c-0.6,0-1,0.4-1,1v6c0,0.6,0.4,1,1,1h6c0.6,0,1-0.4,1-1v-6C52,48.4,51.6,48,51,48z"/>
	<path class="st1" d="M19,48h-6c-0.6,0-1,0.4-1,1v6c0,0.6,0.4,1,1,1h6c0.6,0,1-0.4,1-1v-6C20,48.4,19.6,48,19,48z M16,53
		c-0.6,0-1-0.4-1-1c0-0.6,0.4-1,1-1s1,0.4,1,1C17,52.6,16.6,53,16,53z"/>
	<path class="st1" d="M14,22H8c-0.6,0-1,0.4-1,1v8c0,0.6,0.4,1,1,1h6c0.6,0,1-0.4,1-1v-8C15,22.4,14.6,22,14,22z"/>
	<path class="st1" d="M56,22h-6c-0.6,0-1,0.4-1,1v8c0,0.6,0.4,1,1,1h6c0.6,0,1-0.4,1-1v-8C57,22.4,56.6,22,56,22z"/>
	<g class="st1">
		<path d="M38,28h0.9c-0.4,3.1-2.9,5.5-5.9,5.9V33c0-0.5-0.5-1-1-1s-1,0.5-1,1v0.9c-3.1-0.4-5.5-2.9-5.9-5.9H26c0.5,0,1-0.5,1-1
			s-0.5-1-1-1h-0.9c0.4-3.1,2.9-5.5,5.9-5.9V21c0,0.5,0.5,1,1,1s1-0.5,1-1v-0.9c0.5,0.1,0.9,0.2,1.3,0.3l-4.5,4.5
			c-1.2,1.2-1.2,3.1,0,4.2c0.6,0.6,1.3,0.9,2.1,0.9s1.5-0.3,2.1-0.9l4.5-4.5c0.2,0.4,0.3,0.9,0.3,1.3H38c-0.5,0-1,0.5-1,1
			S37.5,28,38,28z"/>
		<path d="M42.3,20.9l-2.2,2.2c0.6,1.2,0.9,2.5,0.9,3.9c0,5-4,9-9,9s-9-4-9-9c0-5,4-9,9-9c1.4,0,2.7,0.3,3.9,0.9l2.2-2.2
			C36.3,15.6,34.2,15,32,15c-6.6,0-12,5.4-12,12s5.4,12,12,12s12-5.4,12-12C44,24.8,43.4,22.7,42.3,20.9z"/>
		<path d="M47.4,15.9l-3.6,3.6c1.4,2.2,2.2,4.8,2.2,7.5c0,7.7-6.3,14-14,14s-14-6.3-14-14c0-7.7,6.3-14,14-14c2.8,0,5.4,0.8,7.5,2.2
			l3.6-3.6C40,9.3,36.2,8,32,8c-10.5,0-19,8.5-19,19c0,10.5,8.5,19,19,19s19-8.5,19-19C51,22.8,49.7,19,47.4,15.9z"/>
	</g>
	<g class="st1">
		<path d="M32,28c-0.3,0-0.5-0.1-0.7-0.3c-0.4-0.4-0.4-1,0-1.4l18-18c0.4-0.4,1-0.4,1.4,0s0.4,1,0,1.4l-18,18
			C32.5,27.9,32.3,28,32,28z"/>
	</g>
</g>
<g id="Animation_Outline" class="st0">
	<path class="st2" d="M47,17c1.9,2.9,3,6.3,3,10c0,9.9-8.1,18-18,18s-18-8.1-18-18S22.1,9,32,9c5,0,9.5,2,12.7,5.3"/>
	<rect x="29" y="49" class="st2" width="6" height="6"/>
	<rect x="13" y="49" class="st2" width="6" height="6"/>
	<rect x="45" y="49" class="st2" width="6" height="6"/>
	<circle class="st1" cx="16" cy="52" r="1"/>
	<path class="st2" d="M43.3,20.7c1.1,1.9,1.7,4,1.7,6.3c0,7.2-5.8,13-13,13s-13-5.8-13-13s5.8-13,13-13c3.6,0,6.8,1.5,9.2,3.8"/>
	<path class="st2" d="M39.6,24.4c0.3,0.8,0.4,1.7,0.4,2.6c0,4.4-3.6,8-8,8s-8-3.6-8-8s3.6-8,8-8c2.2,0,4.2,0.9,5.7,2.3"/>
	<rect x="8" y="23" class="st2" width="6" height="8"/>
	<rect x="50" y="23" class="st2" width="6" height="8"/>
	<line class="st2" x1="24" y1="27" x2="26" y2="27"/>
	<line class="st2" x1="38" y1="27" x2="40" y2="27"/>
	<line class="st2" x1="32" y1="35" x2="32" y2="33"/>
	<line class="st2" x1="32" y1="21" x2="32" y2="19"/>
	<line class="st2" x1="32" y1="27" x2="50" y2="9"/>
</g>
</svg>
