<?xml version="1.0" encoding="utf-8"?>
<!-- Generator: Adobe Illustrator 27.9.5, SVG Export Plug-In . SVG Version: 9.03 Build 54986)  -->
<svg version="1.1" xmlns="http://www.w3.org/2000/svg" xmlns:xlink="http://www.w3.org/1999/xlink" x="0px" y="0px"
	 viewBox="0 0 64 64" style="enable-background:new 0 0 64 64;" xml:space="preserve">
<style type="text/css">
	.st0{display:none;}
	.st1{display:inline;}
	.st2{display:inline;fill:none;stroke:#000000;stroke-width:2;stroke-linecap:round;stroke-linejoin:round;stroke-miterlimit:10;}
	.st3{fill:none;stroke:#000000;stroke-width:2;stroke-linecap:round;stroke-linejoin:round;stroke-miterlimit:10;}
	.st4{display:inline;fill:#231F20;}
	
		.st5{display:inline;fill:#FFFFFF;stroke:#000000;stroke-width:2;stroke-linecap:round;stroke-linejoin:round;stroke-miterlimit:10;}
	.st6{stroke:#000000;stroke-width:2;stroke-linecap:round;stroke-linejoin:round;stroke-miterlimit:10;}
</style>
<g id="Layer_1" class="st0">
</g>
<g id="Basic" class="st0">
	<rect x="9" y="31" class="st2" width="46" height="24"/>
	<g class="st1">
		<line class="st3" x1="32" y1="39" x2="32" y2="38"/>
		<line class="st3" x1="32" y1="48" x2="32" y2="47"/>
		<path class="st3" d="M34,41L34,41c0-1.1-0.9-2-2-2h0c-1.1,0-2,0.9-2,2v0c0,1.1,0.9,2,2,2h0c1.1,0,2,0.9,2,2v0c0,1.1-0.9,2-2,2h0
			c-1.1,0-2-0.9-2-2v0"/>
	</g>
	<circle class="st4" cx="22" cy="43" r="1.5"/>
	<circle class="st4" cx="42" cy="43" r="1.5"/>
	<path class="st2" d="M44,51L44,51c0-2.2,1.8-4,4-4h0v-8h0c-2.2,0-4-1.8-4-4v0H20v0c0,2.2-1.8,4-4,4h0v8h0c2.2,0,4,1.8,4,4v0H44z"/>
	<rect x="26" y="27" class="st2" width="12" height="4"/>
	<rect x="16" y="25" class="st2" width="6" height="6"/>
	<rect x="42" y="25" class="st2" width="6" height="6"/>
	<path class="st2" d="M32.8,20.2L32.8,20.2L32.8,20.2c-0.5-2.2,0.2-4.5,1.8-6.1l0.5-0.5c1.6-1.6,3.9-2.3,6.1-1.8l0,0v0
		c0.4,2.2-0.3,4.4-1.9,6l-0.6,0.6C37.2,20,35,20.7,32.8,20.2z"/>
	<path class="st2" d="M47,20.8h-0.9V20c0-1.3,0.5-2.5,1.4-3.4l0,0c0.9-0.9,2.2-1.4,3.5-1.4l0.9,0l0,0.9c0,1.2-0.5,2.4-1.4,3.3
		l-0.1,0.1C49.5,20.3,48.3,20.8,47,20.8z"/>
	<path class="st2" d="M17.8,20v0.9H17c-1.3,0-2.5-0.5-3.4-1.4l0,0c-0.9-0.9-1.4-2.2-1.4-3.5l0-0.9l0.9,0c1.2,0,2.4,0.5,3.3,1.4
		l0.1,0.1C17.3,17.5,17.8,18.7,17.8,20z"/>
	<path class="st2" d="M31.2,17.2L31.2,17.2L31.2,17.2c-2.2,0.5-4.5-0.2-6.1-1.8l-0.5-0.5c-1.6-1.6-2.3-3.9-1.8-6.1l0,0l0,0
		c2.2-0.4,4.4,0.3,6,1.9l0.6,0.6C31,12.8,31.7,15,31.2,17.2z"/>
	<line class="st2" x1="32" y1="27" x2="32" y2="11"/>
	<polyline class="st2" points="19,25 19,20 18,20 	"/>
	<polyline class="st2" points="45,25 45,20 46,20 	"/>
</g>
<g id="Glyph">
	<path d="M43.1,37H20.9c-0.4,2-1.9,3.5-3.9,3.9v6.2c2,0.4,3.5,1.9,3.9,3.9h22.2c0.4-2,1.9-3.5,3.9-3.9v-6.2C45,40.5,43.5,39,43.1,37
		z M22,45.5c-0.8,0-1.5-0.7-1.5-1.5s0.7-1.5,1.5-1.5s1.5,0.7,1.5,1.5S22.8,45.5,22,45.5z M32,43c1.7,0,3,1.3,3,3
		c0,1.3-0.8,2.4-2,2.8V49c0,0.6-0.4,1-1,1s-1-0.4-1-1v-0.2c-1.2-0.4-2-1.5-2-2.8c0-0.6,0.4-1,1-1s1,0.4,1,1c0,0.6,0.4,1,1,1
		s1-0.4,1-1s-0.4-1-1-1c-1.7,0-3-1.3-3-3c0-1.3,0.8-2.4,2-2.8V39c0-0.6,0.4-1,1-1s1,0.4,1,1v0.2c1.2,0.4,2,1.5,2,2.8
		c0,0.6-0.4,1-1,1s-1-0.4-1-1c0-0.6-0.4-1-1-1s-1,0.4-1,1S31.4,43,32,43z M42,45.5c-0.8,0-1.5-0.7-1.5-1.5s0.7-1.5,1.5-1.5
		s1.5,0.7,1.5,1.5S42.8,45.5,42,45.5z M55,31H9c-0.6,0-1,0.4-1,1v24c0,0.6,0.4,1,1,1h46c0.6,0,1-0.4,1-1V32C56,31.4,55.6,31,55,31z
		 M49,48c0,0.6-0.4,1-1,1c-1.7,0-3,1.3-3,3c0,0.6-0.4,1-1,1H20c-0.6,0-1-0.4-1-1c0-1.7-1.3-3-3-3c-0.6,0-1-0.4-1-1v-8
		c0-0.6,0.4-1,1-1c1.7,0,3-1.3,3-3c0-0.6,0.4-1,1-1h24c0.6,0,1,0.4,1,1c0,1.7,1.3,3,3,3c0.6,0,1,0.4,1,1V48z M44,23v-4
		c0-0.6,0.4-1,1-1h0.3c0.2-1.2,0.7-2.2,1.6-3.1c1.1-1.1,2.6-1.7,4.2-1.7l0.9,0c0.3,0,0.5,0.1,0.7,0.3c0.2,0.2,0.3,0.4,0.3,0.7l0,0.9
		c0,1.5-0.6,2.9-1.7,3.9l-0.1,0.1c-1.1,1.1-2.5,1.7-4.1,1.7h-0.9c-0.1,0-0.1,0-0.2,0V23h2c0.5,0,1,0.5,1,1v5h-8v-5c0-0.5,0.5-1,1-1
		H44z M12.9,19.1c-1.1-1.1-1.7-2.6-1.7-4.2l0-0.9c0-0.3,0.1-0.5,0.3-0.7c0.2-0.2,0.5-0.3,0.7-0.3l0.9,0c1.5,0,2.9,0.6,3.9,1.7
		l0.1,0.1c0.9,0.9,1.4,1.9,1.6,3.1H19c0.6,0,1,0.4,1,1v4h2c0.5,0,1,0.5,1,1v5h-8v-5c0-0.5,0.5-1,1-1h2v-2.2c-0.1,0-0.1,0-0.2,0H17
		C15.4,20.8,14,20.2,12.9,19.1z M23.9,15.6c-1.9-1.9-2.6-4.5-2.1-7.1c0.1-0.4,0.4-0.7,0.8-0.8c2.5-0.5,5.1,0.3,6.9,2.1l0.6,0.6
		c0.3,0.3,0.6,0.7,0.9,1.1V11c0-0.6,0.4-1,1-1s1,0.4,1,1v3.5c0.3-0.4,0.5-0.7,0.9-1.1l0.5-0.5c1.9-1.9,4.5-2.6,7.1-2.1
		c0.4,0.1,0.7,0.4,0.8,0.8c0.5,2.5-0.3,5.1-2.1,6.9l-0.6,0.6c-1.5,1.5-3.4,2.3-5.4,2.3c-0.4,0-0.7,0-1.1-0.1V24h5c0.5,0,1,0.5,1,1v4
		H25v-4c0-0.5,0.5-1,1-1h5v-5.7c-0.4,0.1-0.7,0.1-1.1,0.1c-2,0-4-0.8-5.4-2.3L23.9,15.6z"/>
</g>
<g id="Outline" class="st0">
	<path class="st1" d="M55,30h-6v-5c0-0.6-0.4-1-1-1h-2v-2.2c0.1,0,0.1,0,0.2,0H47c1.5,0,3-0.6,4.1-1.7l0.1-0.1
		c1.1-1.1,1.7-2.5,1.7-3.9l0-0.9c0-0.3-0.1-0.5-0.3-0.7c-0.2-0.2-0.4-0.3-0.7-0.3l-0.9,0c-1.6,0-3.1,0.6-4.2,1.7
		c-0.9,0.9-1.4,1.9-1.6,3.1H45c-0.6,0-1,0.4-1,1v4h-2c-0.6,0-1,0.4-1,1v5h-2v-3c0-0.6-0.4-1-1-1h-5v-4.7c0.4,0.1,0.7,0.1,1.1,0.1
		c2,0,4-0.8,5.4-2.3l0.6-0.6c1.8-1.8,2.6-4.4,2.1-6.9c-0.1-0.4-0.4-0.7-0.8-0.8c-2.6-0.5-5.2,0.2-7.1,2.1l-0.5,0.5
		c-0.3,0.3-0.6,0.7-0.9,1.1V11c0-0.6-0.4-1-1-1s-1,0.4-1,1v0.5c-0.3-0.4-0.5-0.7-0.9-1.1l-0.6-0.6c-1.8-1.8-4.4-2.6-6.9-2.1
		c-0.4,0.1-0.7,0.4-0.8,0.8c-0.5,2.6,0.2,5.2,2.1,7.1l0.5,0.5c1.5,1.5,3.4,2.3,5.4,2.3c0.4,0,0.7,0,1.1-0.1V26h-5c-0.6,0-1,0.4-1,1
		v3h-2v-5c0-0.6-0.4-1-1-1h-2v-4c0-0.6-0.4-1-1-1h-0.3c-0.2-1.2-0.7-2.2-1.6-3.1l-0.1-0.1c-1.1-1.1-2.5-1.7-3.9-1.7l-0.9,0
		c-0.3,0-0.5,0.1-0.7,0.3c-0.2,0.2-0.3,0.4-0.3,0.7l0,0.9c0,1.6,0.6,3.1,1.7,4.2c1.1,1.1,2.5,1.7,4.1,1.7h0.9c0.1,0,0.1,0,0.2,0V24
		h-2c-0.6,0-1,0.4-1,1v5H9c-0.6,0-1,0.4-1,1v4c0,0.6,0.4,1,1,1s1-0.4,1-1v-3h6h6h4h12h4h6h6v16c0,0.6,0.4,1,1,1s1-0.4,1-1V31
		C56,30.4,55.6,30,55,30z M48.3,17.3c0.7-0.7,1.6-1.1,2.6-1.1c-0.1,0.9-0.4,1.8-1.1,2.4l-0.1,0.1c-0.7,0.7-1.6,1.1-2.5,1.1
		C47.2,18.9,47.6,18,48.3,17.3z M35.3,14.9l0.5-0.5c1.2-1.2,2.9-1.8,4.6-1.6c0.1,1.6-0.5,3.2-1.7,4.4l-0.6,0.6
		c-1.2,1.2-2.8,1.8-4.5,1.7C33.5,17.7,34.1,16.1,35.3,14.9z M30.4,16.4c-1.7,0.1-3.3-0.5-4.5-1.7l-0.5-0.5c-1.2-1.2-1.8-2.9-1.6-4.6
		c1.6-0.1,3.2,0.5,4.4,1.7l0.6,0.6C29.9,13.1,30.5,14.7,30.4,16.4z M14.3,18.7c-0.7-0.7-1.1-1.6-1.1-2.6c0.9,0.1,1.8,0.4,2.4,1.1
		l0.1,0.1c0.7,0.7,1.1,1.6,1.1,2.5C15.9,19.8,15,19.4,14.3,18.7z M17,30v-4h4v4H17z M27,30v-2h10v2H27z M43,30v-4h4v4H43z M56,51v4
		c0,0.6-0.4,1-1,1H9c-0.6,0-1-0.4-1-1V38.5c0-0.6,0.4-1,1-1s1,0.4,1,1V54h44v-3c0-0.6,0.4-1,1-1S56,50.4,56,51z M33,45
		c0-0.6-0.4-1-1-1c-1.7,0-3-1.3-3-3c0-1.3,0.8-2.4,2-2.8V38c0-0.6,0.4-1,1-1s1,0.4,1,1v0.2c1.2,0.4,2,1.5,2,2.8c0,0.6-0.4,1-1,1
		s-1-0.4-1-1c0-0.6-0.4-1-1-1s-1,0.4-1,1s0.4,1,1,1c1.7,0,3,1.3,3,3c0,1.3-0.8,2.4-2,2.8V48c0,0.6-0.4,1-1,1s-1-0.4-1-1v-0.2
		c-1.2-0.4-2-1.5-2-2.8c0-0.6,0.4-1,1-1s1,0.4,1,1c0,0.6,0.4,1,1,1S33,45.6,33,45z M20.5,43c0-0.8,0.7-1.5,1.5-1.5s1.5,0.7,1.5,1.5
		s-0.7,1.5-1.5,1.5S20.5,43.8,20.5,43z M40.5,43c0-0.8,0.7-1.5,1.5-1.5s1.5,0.7,1.5,1.5s-0.7,1.5-1.5,1.5S40.5,43.8,40.5,43z M19,51
		c0,0.6,0.4,1,1,1h24c0.6,0,1-0.4,1-1c0-1.7,1.3-3,3-3c0.6,0,1-0.4,1-1v-8c0-0.6-0.4-1-1-1c-1.7,0-3-1.3-3-3c0-0.6-0.4-1-1-1H20
		c-0.6,0-1,0.4-1,1c0,1.7-1.3,3-3,3c-0.6,0-1,0.4-1,1v8c0,0.6,0.4,1,1,1C17.7,48,19,49.3,19,51z M17,39.9c2-0.4,3.5-1.9,3.9-3.9
		h22.2c0.4,2,1.9,3.5,3.9,3.9v6.2c-2,0.4-3.5,1.9-3.9,3.9H20.9c-0.4-2-1.9-3.5-3.9-3.9V39.9z"/>
</g>
<g id="Animation_Glyph" class="st0">
	<g class="st1">
		<path d="M43.1,37H20.9c-0.4,2-1.9,3.5-3.9,3.9v6.2c2,0.4,3.5,1.9,3.9,3.9h22.2c0.4-2,1.9-3.5,3.9-3.9v-6.2
			C45,40.5,43.5,39,43.1,37z M22,45.5c-0.8,0-1.5-0.7-1.5-1.5s0.7-1.5,1.5-1.5s1.5,0.7,1.5,1.5S22.8,45.5,22,45.5z M32,43
			c1.7,0,3,1.3,3,3c0,1.3-0.8,2.4-2,2.8V49c0,0.6-0.4,1-1,1s-1-0.4-1-1v-0.2c-1.2-0.4-2-1.5-2-2.8c0-0.6,0.4-1,1-1s1,0.4,1,1
			c0,0.6,0.4,1,1,1s1-0.4,1-1s-0.4-1-1-1c-1.7,0-3-1.3-3-3c0-1.3,0.8-2.4,2-2.8V39c0-0.6,0.4-1,1-1s1,0.4,1,1v0.2
			c1.2,0.4,2,1.5,2,2.8c0,0.6-0.4,1-1,1s-1-0.4-1-1c0-0.6-0.4-1-1-1s-1,0.4-1,1S31.4,43,32,43z M42,45.5c-0.8,0-1.5-0.7-1.5-1.5
			s0.7-1.5,1.5-1.5s1.5,0.7,1.5,1.5S42.8,45.5,42,45.5z"/>
		<path d="M55,31H9c-0.6,0-1,0.4-1,1v24c0,0.6,0.4,1,1,1h46c0.6,0,1-0.4,1-1V32C56,31.4,55.6,31,55,31z M49,48c0,0.6-0.4,1-1,1
			c-1.7,0-3,1.3-3,3c0,0.6-0.4,1-1,1H20c-0.6,0-1-0.4-1-1c0-1.7-1.3-3-3-3c-0.6,0-1-0.4-1-1v-8c0-0.6,0.4-1,1-1c1.7,0,3-1.3,3-3
			c0-0.6,0.4-1,1-1h24c0.6,0,1,0.4,1,1c0,1.7,1.3,3,3,3c0.6,0,1,0.4,1,1V48z"/>
	</g>
	<path class="st1" d="M39,25v4H25v-4c0-0.5,0.5-1,1-1h12C38.5,24,39,24.5,39,25z"/>
	<path class="st1" d="M23,24v5h-8v-5c0-0.5,0.5-1,1-1h6C22.5,23,23,23.5,23,24z"/>
	<path class="st1" d="M49,24v5h-8v-5c0-0.5,0.5-1,1-1h6C48.5,23,49,23.5,49,24z"/>
	<path class="st1" d="M42.3,11.6c-0.1-0.4-0.4-0.7-0.8-0.8c-2.6-0.5-5.2,0.2-7.1,2.1l-0.5,0.5c-1.8,1.8-2.6,4.4-2.1,7
		c0.1,0.4,0.4,0.7,0.8,0.8l0,0c0,0,0,0,0,0c0.5,0.1,1,0.2,1.5,0.2c2,0,4-0.8,5.4-2.3l0.6-0.6C42,16.7,42.8,14.1,42.3,11.6z"/>
	<path class="st1" d="M52.6,13.5c-0.2-0.2-0.4-0.3-0.7-0.3l-0.9,0c-1.6,0-3.1,0.6-4.2,1.7c-1.1,1.1-1.7,2.5-1.7,4.1v0.9
		c0,0.6,0.4,1,1,1H47c1.5,0,3-0.6,4.1-1.7l0.1-0.1c1.1-1.1,1.7-2.5,1.7-3.9l0-0.9C52.9,14,52.8,13.7,52.6,13.5z"/>
	<path class="st1" d="M17.1,14.9L17.1,14.9c-1.1-1.1-2.5-1.7-4-1.8l-0.9,0c-0.3,0-0.5,0.1-0.7,0.3c-0.2,0.2-0.3,0.4-0.3,0.7l0,0.9
		c0,1.6,0.6,3.1,1.7,4.2c1.1,1.1,2.5,1.7,4.1,1.7h0.9c0.6,0,1-0.4,1-1V19C18.8,17.4,18.2,16,17.1,14.9z"/>
	<path class="st1" d="M30.1,10.5l-0.6-0.6c-1.8-1.8-4.4-2.6-6.9-2.1c-0.4,0.1-0.7,0.4-0.8,0.8c-0.5,2.6,0.2,5.2,2.1,7.1l0.5,0.5
		c1.5,1.5,3.4,2.3,5.4,2.3c0.5,0,1-0.1,1.5-0.2c0.4-0.1,0.7-0.4,0.8-0.8l0,0c0,0,0,0,0,0C32.7,14.9,31.9,12.3,30.1,10.5z"/>
	<g class="st1">
		<path d="M32,27c-0.6,0-1-0.4-1-1V11c0-0.6,0.4-1,1-1s1,0.4,1,1v15C33,26.6,32.6,27,32,27z"/>
	</g>
	<g class="st1">
		<path d="M19,25c-0.6,0-1-0.4-1-1v-4c-0.6,0-1-0.4-1-1s0.4-1,1-1h1c0.6,0,1,0.4,1,1v5C20,24.6,19.6,25,19,25z"/>
	</g>
	<g class="st1">
		<path d="M45,25c-0.6,0-1-0.4-1-1v-5c0-0.6,0.4-1,1-1h1c0.6,0,1,0.4,1,1s-0.4,1-1,1v4C46,24.6,45.6,25,45,25z"/>
	</g>
</g>
<g id="Animation_Outline" class="st0">
	<polyline class="st2" points="9,35 9,31 55,31 55,48 	"/>
	<polyline class="st2" points="55,51 55,55 9,55 9,38.5 	"/>
	<g class="st1">
		<line class="st3" x1="32" y1="39" x2="32" y2="38"/>
		<line class="st3" x1="32" y1="48" x2="32" y2="47"/>
		<path class="st3" d="M34,41L34,41c0-1.1-0.9-2-2-2h0c-1.1,0-2,0.9-2,2v0c0,1.1,0.9,2,2,2h0c1.1,0,2,0.9,2,2v0c0,1.1-0.9,2-2,2h0
			c-1.1,0-2-0.9-2-2v0"/>
	</g>
	<circle class="st4" cx="22" cy="43" r="1.5"/>
	<circle class="st4" cx="42" cy="43" r="1.5"/>
	<path class="st2" d="M44,51L44,51c0-2.2,1.8-4,4-4h0v-8h0c-2.2,0-4-1.8-4-4v0H20v0c0,2.2-1.8,4-4,4h0v8h0c2.2,0,4,1.8,4,4v0H44z"/>
	<rect x="26" y="27" class="st2" width="12" height="4"/>
	<rect x="16" y="25" class="st2" width="6" height="6"/>
	<rect x="42" y="25" class="st2" width="6" height="6"/>
	<path class="st2" d="M32.8,20.2L32.8,20.2L32.8,20.2c-0.5-2.2,0.2-4.5,1.8-6.1l0.5-0.5c1.6-1.6,3.9-2.3,6.1-1.8l0,0v0
		c0.4,2.2-0.3,4.4-1.9,6l-0.6,0.6C37.2,20,35,20.7,32.8,20.2z"/>
	<path class="st2" d="M47,20.8h-0.9V20c0-1.3,0.5-2.5,1.4-3.4l0,0c0.9-0.9,2.2-1.4,3.5-1.4l0.9,0l0,0.9c0,1.2-0.5,2.4-1.4,3.3
		l-0.1,0.1C49.5,20.3,48.3,20.8,47,20.8z"/>
	<path class="st2" d="M17.8,20v0.9H17c-1.3,0-2.5-0.5-3.4-1.4l0,0c-0.9-0.9-1.4-2.2-1.4-3.5l0-0.9l0.9,0c1.2,0,2.4,0.5,3.3,1.4
		l0.1,0.1C17.3,17.5,17.8,18.7,17.8,20z"/>
	<path class="st2" d="M31.2,17.2L31.2,17.2L31.2,17.2c-2.2,0.5-4.5-0.2-6.1-1.8l-0.5-0.5c-1.6-1.6-2.3-3.9-1.8-6.1l0,0l0,0
		c2.2-0.4,4.4,0.3,6,1.9l0.6,0.6C31,12.8,31.7,15,31.2,17.2z"/>
	<line class="st2" x1="32" y1="27" x2="32" y2="11"/>
	<polyline class="st2" points="19,25 19,20 18,20 	"/>
	<polyline class="st2" points="45,25 45,20 46,20 	"/>
</g>
</svg>
