<?xml version="1.0" encoding="utf-8"?>
<!-- Generator: Adobe Illustrator 27.9.5, SVG Export Plug-In . SVG Version: 9.03 Build 54986)  -->
<svg version="1.1" xmlns="http://www.w3.org/2000/svg" xmlns:xlink="http://www.w3.org/1999/xlink" x="0px" y="0px"
	 viewBox="0 0 64 64" style="enable-background:new 0 0 64 64;" xml:space="preserve">
<style type="text/css">
	.st0{display:none;}
	.st1{display:inline;}
	.st2{display:inline;fill:none;stroke:#000000;stroke-width:2;stroke-linecap:round;stroke-linejoin:round;stroke-miterlimit:10;}
	.st3{fill:none;stroke:#000000;stroke-width:2;stroke-linecap:round;stroke-linejoin:round;stroke-miterlimit:10;}
	.st4{display:inline;fill:#231F20;}
	
		.st5{display:inline;fill:#FFFFFF;stroke:#000000;stroke-width:2;stroke-linecap:round;stroke-linejoin:round;stroke-miterlimit:10;}
	.st6{stroke:#000000;stroke-width:2;stroke-linecap:round;stroke-linejoin:round;stroke-miterlimit:10;}
</style>
<g id="Layer_1" class="st0">
</g>
<g id="Basic" class="st0">
	<path class="st2" d="M53,55H11c-1.1,0-2-0.9-2-2v-2c0-1.1,0.9-2,2-2h15l2,2h8l2-2h15c1.1,0,2,0.9,2,2v2C55,54.1,54.1,55,53,55z"/>
	<polygon class="st2" points="52,49 38,49 36,51 28,51 26,49 12,49 13,45 51,45 	"/>
	<path class="st2" d="M52,45H12c-1.1,0-2-0.9-2-2V20c0-1.1,0.9-2,2-2h40c1.1,0,2,0.9,2,2v23C54,44.1,53.1,45,52,45z"/>
	<rect x="14" y="22" class="st2" width="36" height="19"/>
	<path class="st2" d="M47,26h6c1.1,0,2-0.9,2-2V11c0-1.1-0.9-2-2-2H33c-1.1,0-2,0.9-2,2v13c0,1.1,0.9,2,2,2h9v4L47,26z"/>
	<line class="st2" x1="35" y1="14" x2="43" y2="14"/>
	<line class="st2" x1="47" y1="14" x2="51" y2="14"/>
	<line class="st2" x1="42" y1="18" x2="51" y2="18"/>
	<line class="st2" x1="50" y1="22" x2="51" y2="22"/>
	<line class="st2" x1="35" y1="18" x2="38" y2="18"/>
	<line class="st2" x1="35" y1="22" x2="46" y2="22"/>
	<rect x="34" y="33" class="st2" width="4" height="4"/>
	<rect x="26" y="33" class="st2" width="4" height="4"/>
	<rect x="18" y="33" class="st2" width="4" height="4"/>
	<circle class="st1" cx="15" cy="52" r="1"/>
	<circle class="st1" cx="18" cy="52" r="1"/>
	<circle class="st1" cx="21" cy="52" r="1"/>
	<circle class="st1" cx="43" cy="52" r="1"/>
	<circle class="st1" cx="46" cy="52" r="1"/>
	<circle class="st1" cx="49" cy="52" r="1"/>
</g>
<g id="Glyph">
	<path d="M53,49H38c-0.3,0-0.5,0.1-0.7,0.3L35.6,51h-7.2l-1.7-1.7C26.5,49.1,26.3,49,26,49H11c-1.7,0-3,1.3-3,3v2c0,1.7,1.3,3,3,3
		h42c1.7,0,3-1.3,3-3v-2C56,50.3,54.7,49,53,49z M14,54c-0.6,0-1-0.4-1-1c0-0.6,0.4-1,1-1s1,0.4,1,1C15,53.6,14.6,54,14,54z M18,54
		c-0.6,0-1-0.4-1-1c0-0.6,0.4-1,1-1s1,0.4,1,1C19,53.6,18.6,54,18,54z M22,54c-0.6,0-1-0.4-1-1c0-0.6,0.4-1,1-1s1,0.4,1,1
		C23,53.6,22.6,54,22,54z M42,54c-0.6,0-1-0.4-1-1c0-0.6,0.4-1,1-1s1,0.4,1,1C43,53.6,42.6,54,42,54z M46,54c-0.6,0-1-0.4-1-1
		c0-0.6,0.4-1,1-1s1,0.4,1,1C47,53.6,46.6,54,46,54z M50,54c-0.6,0-1-0.4-1-1c0-0.6,0.4-1,1-1s1,0.4,1,1C51,53.6,50.6,54,50,54z
		 M53,7H33c-1.7,0-3,1.3-3,3v13c0,1.7,1.3,3,3,3h8v3c0,0.4,0.2,0.7,0.6,0.9C41.7,30,41.9,30,42,30c0.2,0,0.4-0.1,0.6-0.2l4.7-3.8H53
		c1.7,0,3-1.3,3-3V10C56,8.3,54.7,7,53,7z M35,12h8c0.6,0,1,0.4,1,1s-0.4,1-1,1h-8c-0.6,0-1-0.4-1-1S34.4,12,35,12z M35,16h3
		c0.6,0,1,0.4,1,1s-0.4,1-1,1h-3c-0.6,0-1-0.4-1-1S34.4,16,35,16z M46,22H35c-0.6,0-1-0.4-1-1s0.4-1,1-1h11c0.6,0,1,0.4,1,1
		S46.6,22,46,22z M51,22h-1c-0.6,0-1-0.4-1-1s0.4-1,1-1h1c0.6,0,1,0.4,1,1S51.6,22,51,22z M51,18h-9c-0.6,0-1-0.4-1-1s0.4-1,1-1h9
		c0.6,0,1,0.4,1,1S51.6,18,51,18z M51,14h-4c-0.6,0-1-0.4-1-1s0.4-1,1-1h4c0.6,0,1,0.4,1,1S51.6,14,51,14z M21,37h-2v-2h2V37z
		 M29,37h-2v-2h2V37z M37,37h-2v-2h2V37z M15,41h34V28h-1l-4.2,3.3C43.3,31.8,42.7,32,42,32c-0.5,0-0.9-0.1-1.3-0.3
		c-1-0.5-1.7-1.6-1.7-2.7v-1h-6c-2.4,0-4.4-1.7-4.9-4H15V41z M33,34c0-0.6,0.4-1,1-1h4c0.6,0,1,0.4,1,1v4c0,0.6-0.4,1-1,1h-4
		c-0.6,0-1-0.4-1-1V34z M25,34c0-0.6,0.4-1,1-1h4c0.6,0,1,0.4,1,1v4c0,0.6-0.4,1-1,1h-4c-0.6,0-1-0.4-1-1V34z M17,34
		c0-0.6,0.4-1,1-1h4c0.6,0,1,0.4,1,1v4c0,0.6-0.4,1-1,1h-4c-0.6,0-1-0.4-1-1V34z M9,44V21c0-1.7,1.3-3,3-3h16v4H14c-0.6,0-1,0.4-1,1
		v19c0,0.6,0.4,1,1,1h36c0.6,0,1-0.4,1-1V28h2c0.7,0,1.4-0.2,2-0.4V44c0,1.6-1.3,3-3,3H12C10.3,47,9,45.6,9,44z"/>
</g>
<g id="Outline" class="st0">
	<path class="st1" d="M53,48h-0.2l-0.5-2c1.5-0.1,2.7-1.4,2.7-3V29.7c0-0.6-0.4-1-1-1s-1,0.4-1,1V43c0,0.6-0.4,1-1,1h-1H13h-1
		c-0.6,0-1-0.4-1-1V20c0-0.6,0.4-1,1-1h15c0.6,0,1-0.4,1-1s-0.4-1-1-1H12c-1.7,0-3,1.3-3,3v23c0,1.6,1.2,2.8,2.7,3l-0.5,2H11
		c-1.7,0-3,1.3-3,3v2c0,1.7,1.3,3,3,3h42c1.7,0,3-1.3,3-3v-2C56,49.3,54.7,48,53,48z M13.8,46h36.4l0.5,2H38c-0.3,0-0.5,0.1-0.7,0.3
		L35.6,50h-7.2l-1.7-1.7C26.5,48.1,26.3,48,26,48H13.3L13.8,46z M54,53c0,0.6-0.4,1-1,1H11c-0.6,0-1-0.4-1-1v-2c0-0.6,0.4-1,1-1h1
		h13.6l1.7,1.7c0.2,0.2,0.4,0.3,0.7,0.3h8c0.3,0,0.5-0.1,0.7-0.3l1.7-1.7H52h1c0.6,0,1,0.4,1,1V53z M53,8H33c-1.7,0-3,1.3-3,3v10H14
		c-0.6,0-1,0.4-1,1v19c0,0.6,0.4,1,1,1h36c0.6,0,1-0.4,1-1V27h2c1.7,0,3-1.3,3-3V11C56,9.3,54.7,8,53,8z M49,40H15V23h15v1
		c0,1.7,1.3,3,3,3h8v3c0,0.4,0.2,0.7,0.6,0.9C41.7,31,41.9,31,42,31c0.2,0,0.4-0.1,0.6-0.2l4.7-3.8H49V40z M54,24c0,0.6-0.4,1-1,1
		h-6c-0.2,0-0.4,0.1-0.6,0.2L43,27.9V26c0-0.6-0.4-1-1-1h-9c-0.6,0-1-0.4-1-1V11c0-0.6,0.4-1,1-1h20c0.6,0,1,0.4,1,1V24z M34,14
		c0-0.6,0.4-1,1-1h8c0.6,0,1,0.4,1,1s-0.4,1-1,1h-8C34.4,15,34,14.6,34,14z M52,14c0,0.6-0.4,1-1,1h-4c-0.6,0-1-0.4-1-1s0.4-1,1-1h4
		C51.6,13,52,13.4,52,14z M52,18c0,0.6-0.4,1-1,1h-9c-0.6,0-1-0.4-1-1s0.4-1,1-1h9C51.6,17,52,17.4,52,18z M52,22c0,0.6-0.4,1-1,1
		h-1c-0.6,0-1-0.4-1-1s0.4-1,1-1h1C51.6,21,52,21.4,52,22z M34,18c0-0.6,0.4-1,1-1h3c0.6,0,1,0.4,1,1s-0.4,1-1,1h-3
		C34.4,19,34,18.6,34,18z M47,22c0,0.6-0.4,1-1,1H35c-0.6,0-1-0.4-1-1s0.4-1,1-1h11C46.6,21,47,21.4,47,22z M38,32h-4
		c-0.6,0-1,0.4-1,1v4c0,0.6,0.4,1,1,1h4c0.6,0,1-0.4,1-1v-4C39,32.4,38.6,32,38,32z M37,36h-2v-2h2V36z M30,32h-4c-0.6,0-1,0.4-1,1
		v4c0,0.6,0.4,1,1,1h4c0.6,0,1-0.4,1-1v-4C31,32.4,30.6,32,30,32z M29,36h-2v-2h2V36z M22,32h-4c-0.6,0-1,0.4-1,1v4c0,0.6,0.4,1,1,1
		h4c0.6,0,1-0.4,1-1v-4C23,32.4,22.6,32,22,32z M21,36h-2v-2h2V36z M16,52c0,0.6-0.4,1-1,1s-1-0.4-1-1c0-0.6,0.4-1,1-1
		S16,51.4,16,52z M19,52c0,0.6-0.4,1-1,1s-1-0.4-1-1c0-0.6,0.4-1,1-1S19,51.4,19,52z M22,52c0,0.6-0.4,1-1,1s-1-0.4-1-1
		c0-0.6,0.4-1,1-1S22,51.4,22,52z M44,52c0,0.6-0.4,1-1,1s-1-0.4-1-1c0-0.6,0.4-1,1-1S44,51.4,44,52z M47,52c0,0.6-0.4,1-1,1
		s-1-0.4-1-1c0-0.6,0.4-1,1-1S47,51.4,47,52z M50,52c0,0.6-0.4,1-1,1s-1-0.4-1-1c0-0.6,0.4-1,1-1S50,51.4,50,52z"/>
</g>
<g id="Animation_Glyph" class="st0">
	<path class="st1" d="M53,49H38c-0.3,0-0.5,0.1-0.7,0.3L35.6,51h-7.2l-1.7-1.7C26.5,49.1,26.3,49,26,49H11c-1.7,0-3,1.3-3,3v2
		c0,1.7,1.3,3,3,3h42c1.7,0,3-1.3,3-3v-2C56,50.3,54.7,49,53,49z M14,54c-0.6,0-1-0.4-1-1c0-0.6,0.4-1,1-1s1,0.4,1,1
		C15,53.6,14.6,54,14,54z M18,54c-0.6,0-1-0.4-1-1c0-0.6,0.4-1,1-1s1,0.4,1,1C19,53.6,18.6,54,18,54z M22,54c-0.6,0-1-0.4-1-1
		c0-0.6,0.4-1,1-1s1,0.4,1,1C23,53.6,22.6,54,22,54z M42,54c-0.6,0-1-0.4-1-1c0-0.6,0.4-1,1-1s1,0.4,1,1C43,53.6,42.6,54,42,54z
		 M46,54c-0.6,0-1-0.4-1-1c0-0.6,0.4-1,1-1s1,0.4,1,1C47,53.6,46.6,54,46,54z M50,54c-0.6,0-1-0.4-1-1c0-0.6,0.4-1,1-1s1,0.4,1,1
		C51,53.6,50.6,54,50,54z"/>
	<path class="st1" d="M53,7H33c-1.7,0-3,1.3-3,3v13c0,1.7,1.3,3,3,3h8v3c0,0.4,0.2,0.7,0.6,0.9C41.7,30,41.9,30,42,30
		c0.2,0,0.4-0.1,0.6-0.2l4.7-3.8H53c1.7,0,3-1.3,3-3V10C56,8.3,54.7,7,53,7z M35,12h8c0.6,0,1,0.4,1,1s-0.4,1-1,1h-8
		c-0.6,0-1-0.4-1-1S34.4,12,35,12z M35,16h3c0.6,0,1,0.4,1,1s-0.4,1-1,1h-3c-0.6,0-1-0.4-1-1S34.4,16,35,16z M46,22H35
		c-0.6,0-1-0.4-1-1s0.4-1,1-1h11c0.6,0,1,0.4,1,1S46.6,22,46,22z M51,22h-1c-0.6,0-1-0.4-1-1s0.4-1,1-1h1c0.6,0,1,0.4,1,1
		S51.6,22,51,22z M51,18h-9c-0.6,0-1-0.4-1-1s0.4-1,1-1h9c0.6,0,1,0.4,1,1S51.6,18,51,18z M51,14h-4c-0.6,0-1-0.4-1-1s0.4-1,1-1h4
		c0.6,0,1,0.4,1,1S51.6,14,51,14z"/>
	<g class="st1">
		<rect x="19" y="35" width="2" height="2"/>
		<rect x="27" y="35" width="2" height="2"/>
		<rect x="35" y="35" width="2" height="2"/>
		<path d="M15,41h34V28h-1l-4.2,3.3C43.3,31.8,42.7,32,42,32c-0.5,0-0.9-0.1-1.3-0.3c-1-0.5-1.7-1.6-1.7-2.7v-1h-6
			c-2.4,0-4.4-1.7-4.9-4H15V41z M33,34c0-0.6,0.4-1,1-1h4c0.6,0,1,0.4,1,1v4c0,0.6-0.4,1-1,1h-4c-0.6,0-1-0.4-1-1V34z M25,34
			c0-0.6,0.4-1,1-1h4c0.6,0,1,0.4,1,1v4c0,0.6-0.4,1-1,1h-4c-0.6,0-1-0.4-1-1V34z M17,34c0-0.6,0.4-1,1-1h4c0.6,0,1,0.4,1,1v4
			c0,0.6-0.4,1-1,1h-4c-0.6,0-1-0.4-1-1V34z"/>
		<path d="M53,28h-2v14c0,0.6-0.4,1-1,1H14c-0.6,0-1-0.4-1-1V23c0-0.6,0.4-1,1-1h14v-4H12c-1.7,0-3,1.3-3,3v23c0,1.6,1.3,3,3,3h40
			c1.7,0,3-1.4,3-3V27.6C54.4,27.8,53.7,28,53,28z"/>
	</g>
</g>
<g id="Animation_Outline" class="st0">
	<path class="st2" d="M53,55H11c-1.1,0-2-0.9-2-2v-2c0-1.1,0.9-2,2-2h15l2,2h8l2-2h15c1.1,0,2,0.9,2,2v2C55,54.1,54.1,55,53,55z"/>
	<polygon class="st2" points="52,49 38,49 36,51 28,51 26,49 12,49 13,45 51,45 	"/>
	<path class="st2" d="M54,28.7V43c0,1.1-0.9,2-2,2H12c-1.1,0-2-0.9-2-2V20c0-1.1,0.9-2,2-2h16"/>
	<polyline class="st2" points="50,26 50,41 14,41 14,22 31,22 	"/>
	<path class="st2" d="M47,26h6c1.1,0,2-0.9,2-2V11c0-1.1-0.9-2-2-2H33c-1.1,0-2,0.9-2,2v13c0,1.1,0.9,2,2,2h9v4L47,26z"/>
	<line class="st2" x1="35" y1="14" x2="43" y2="14"/>
	<line class="st2" x1="47" y1="14" x2="51" y2="14"/>
	<line class="st2" x1="42" y1="18" x2="51" y2="18"/>
	<line class="st2" x1="50" y1="22" x2="51" y2="22"/>
	<line class="st2" x1="35" y1="18" x2="38" y2="18"/>
	<line class="st2" x1="35" y1="22" x2="46" y2="22"/>
	<rect x="34" y="33" class="st2" width="4" height="4"/>
	<rect x="26" y="33" class="st2" width="4" height="4"/>
	<rect x="18" y="33" class="st2" width="4" height="4"/>
	<circle class="st1" cx="15" cy="52" r="1"/>
	<circle class="st1" cx="18" cy="52" r="1"/>
	<circle class="st1" cx="21" cy="52" r="1"/>
	<circle class="st1" cx="43" cy="52" r="1"/>
	<circle class="st1" cx="46" cy="52" r="1"/>
	<circle class="st1" cx="49" cy="52" r="1"/>
</g>
</svg>
