<?xml version="1.0" encoding="utf-8"?>
<!-- Generator: Adobe Illustrator 27.9.5, SVG Export Plug-In . SVG Version: 9.03 Build 54986)  -->
<svg version="1.1" xmlns="http://www.w3.org/2000/svg" xmlns:xlink="http://www.w3.org/1999/xlink" x="0px" y="0px"
	 viewBox="0 0 64 64" style="enable-background:new 0 0 64 64;" xml:space="preserve">
<style type="text/css">
	.st0{display:none;}
	.st1{display:inline;}
	.st2{display:inline;fill:none;stroke:#000000;stroke-width:2;stroke-linecap:round;stroke-linejoin:round;stroke-miterlimit:10;}
	.st3{fill:none;stroke:#000000;stroke-width:2;stroke-linecap:round;stroke-linejoin:round;stroke-miterlimit:10;}
	.st4{display:inline;fill:#231F20;}
	
		.st5{display:inline;fill:#FFFFFF;stroke:#000000;stroke-width:2;stroke-linecap:round;stroke-linejoin:round;stroke-miterlimit:10;}
	.st6{stroke:#000000;stroke-width:2;stroke-linecap:round;stroke-linejoin:round;stroke-miterlimit:10;}
</style>
<g id="Layer_1" class="st0">
</g>
<g id="Basic" class="st0">
	<rect x="11" y="20" class="st2" width="36" height="20"/>
	<path class="st2" d="M47.5,20h-37C9.1,20,8,18.9,8,17.5v0c0-1.4,1.1-2.5,2.5-2.5h37c1.4,0,2.5,1.1,2.5,2.5v0
		C50,18.9,48.9,20,47.5,20z"/>
	<path class="st2" d="M47.5,45h-37C9.1,45,8,43.9,8,42.5v0c0-1.4,1.1-2.5,2.5-2.5h37c1.4,0,2.5,1.1,2.5,2.5v0
		C50,43.9,48.9,45,47.5,45z"/>
	<line class="st2" x1="29" y1="49" x2="29" y2="45"/>
	<line class="st2" x1="15" y1="26" x2="17" y2="26"/>
	<line class="st2" x1="20" y1="26" x2="24" y2="26"/>
	<line class="st2" x1="21" y1="30" x2="26" y2="30"/>
	<line class="st2" x1="15" y1="30" x2="18" y2="30"/>
	<line class="st2" x1="15" y1="34" x2="29" y2="34"/>
	<circle class="st2" cx="29" cy="52" r="3"/>
	<path class="st2" d="M48,26h6c1.1,0,2-0.9,2-2V11c0-1.1-0.9-2-2-2H34c-1.1,0-2,0.9-2,2v13c0,1.1,0.9,2,2,2h9v4L48,26z"/>
	<line class="st2" x1="36" y1="14" x2="44" y2="14"/>
	<line class="st2" x1="48" y1="14" x2="52" y2="14"/>
	<line class="st2" x1="43" y1="18" x2="52" y2="18"/>
	<line class="st2" x1="36" y1="18" x2="39" y2="18"/>
	<line class="st2" x1="36" y1="22" x2="47" y2="22"/>
</g>
<g id="Glyph">
	<path d="M7,17.5c0-1.9,1.6-3.5,3.5-3.5H30v7H10.5c-0.2,0-0.3,0-0.5,0C8.3,20.7,7,19.3,7,17.5z M47.5,41h-37C8.6,41,7,42.6,7,44.5
		S8.6,48,10.5,48H28v2.1c-1.7,0.4-3,2-3,3.9c0,2.2,1.8,4,4,4s4-1.8,4-4c0-1.9-1.3-3.4-3-3.9V48h17.5c1.9,0,3.5-1.6,3.5-3.5
		S49.4,41,47.5,41z M41,28v1c0,1.1,0.7,2.2,1.7,2.7c0.4,0.2,0.8,0.3,1.3,0.3c0.7,0,1.3-0.2,1.9-0.7l2.1-1.7V39c-0.2,0-0.3,0-0.5,0
		h-37c-0.2,0-0.3,0-0.5,0V23c0.2,0,0.3,0,0.5,0H30c0,2.8,2.2,5,5,5H41z M26,30h-5c-0.6,0-1,0.4-1,1s0.4,1,1,1h5c0.6,0,1-0.4,1-1
		S26.6,30,26,30z M19,27c0,0.6,0.4,1,1,1h4c0.6,0,1-0.4,1-1s-0.4-1-1-1h-4C19.4,26,19,26.4,19,27z M14,27c0,0.6,0.4,1,1,1h2
		c0.6,0,1-0.4,1-1s-0.4-1-1-1h-2C14.4,26,14,26.4,14,27z M14,31c0,0.6,0.4,1,1,1h3c0.6,0,1-0.4,1-1s-0.4-1-1-1h-3
		C14.4,30,14,30.4,14,31z M30,35c0-0.6-0.4-1-1-1H15c-0.6,0-1,0.4-1,1s0.4,1,1,1h14C29.6,36,30,35.6,30,35z M58,10v13
		c0,1.7-1.3,3-3,3h-5.6l-4.7,3.8C44.4,29.9,44.2,30,44,30c-0.1,0-0.3,0-0.4-0.1C43.2,29.7,43,29.4,43,29v-3h-8c-1.7,0-3-1.3-3-3V10
		c0-1.7,1.3-3,3-3h20C56.7,7,58,8.3,58,10z M36,13c0,0.6,0.4,1,1,1h8c0.6,0,1-0.4,1-1s-0.4-1-1-1h-8C36.4,12,36,12.4,36,13z M36,17
		c0,0.6,0.4,1,1,1h3c0.6,0,1-0.4,1-1s-0.4-1-1-1h-3C36.4,16,36,16.4,36,17z M49,21c0-0.6-0.4-1-1-1H37c-0.6,0-1,0.4-1,1s0.4,1,1,1
		h11C48.6,22,49,21.6,49,21z M54,17c0-0.6-0.4-1-1-1h-9c-0.6,0-1,0.4-1,1s0.4,1,1,1h9C53.6,18,54,17.6,54,17z M54,13
		c0-0.6-0.4-1-1-1h-4c-0.6,0-1,0.4-1,1s0.4,1,1,1h4C53.6,14,54,13.6,54,13z"/>
</g>
<g id="Outline" class="st0">
	<path class="st1" d="M14,26c0-0.6,0.4-1,1-1h2c0.6,0,1,0.4,1,1s-0.4,1-1,1h-2C14.4,27,14,26.6,14,26z M24,25h-4c-0.6,0-1,0.4-1,1
		s0.4,1,1,1h4c0.6,0,1-0.4,1-1S24.6,25,24,25z M20,30c0,0.6,0.4,1,1,1h5c0.6,0,1-0.4,1-1s-0.4-1-1-1h-5C20.4,29,20,29.4,20,30z
		 M15,31h3c0.6,0,1-0.4,1-1s-0.4-1-1-1h-3c-0.6,0-1,0.4-1,1S14.4,31,15,31z M15,35h14c0.6,0,1-0.4,1-1s-0.4-1-1-1H15
		c-0.6,0-1,0.4-1,1S14.4,35,15,35z M57,11v13c0,1.7-1.3,3-3,3h-5.6l-4.7,3.8C43.4,30.9,43.2,31,43,31c-0.1,0-0.3,0-0.4-0.1
		C42.2,30.7,42,30.4,42,30v-3h-8c-1.7,0-3-1.3-3-3v-3H12v18h34v-7.2c0-0.6,0.4-1,1-1s1,0.4,1,1v7.3c1.7,0.2,3,1.7,3,3.4
		c0,1.9-1.6,3.5-3.5,3.5H30v2.1c1.7,0.4,3,2,3,3.9c0,2.2-1.8,4-4,4s-4-1.8-4-4c0-1.9,1.3-3.4,3-3.9V46H10.5C8.6,46,7,44.4,7,42.5
		c0-1.8,1.3-3.2,3-3.4V20.9c-1.7-0.2-3-1.7-3-3.4c0-0.9,0.4-1.8,1-2.5c0.7-0.7,1.5-1,2.5-1H28c0.6,0,1,0.4,1,1s-0.4,1-1,1H10.5
		c-0.4,0-0.8,0.2-1.1,0.4C9.2,16.7,9,17.1,9,17.5c0,0.8,0.7,1.5,1.5,1.5H11h20v-8c0-1.7,1.3-3,3-3h20C55.7,8,57,9.3,57,11z M29,50
		c-1.1,0-2,0.9-2,2s0.9,2,2,2s2-0.9,2-2S30.1,50,29,50z M11,41h-0.5C9.7,41,9,41.7,9,42.5S9.7,44,10.5,44h37c0.8,0,1.5-0.7,1.5-1.5
		S48.3,41,47.5,41H47H11z M55,11c0-0.6-0.4-1-1-1H34c-0.6,0-1,0.4-1,1v13c0,0.6,0.4,1,1,1h9c0.6,0,1,0.4,1,1v1.9l3.4-2.7
		c0.2-0.1,0.4-0.2,0.6-0.2h6c0.6,0,1-0.4,1-1V11z M36,15h8c0.6,0,1-0.4,1-1s-0.4-1-1-1h-8c-0.6,0-1,0.4-1,1S35.4,15,36,15z M52,13
		h-4c-0.6,0-1,0.4-1,1s0.4,1,1,1h4c0.6,0,1-0.4,1-1S52.6,13,52,13z M52,17h-9c-0.6,0-1,0.4-1,1s0.4,1,1,1h9c0.6,0,1-0.4,1-1
		S52.6,17,52,17z M36,19h3c0.6,0,1-0.4,1-1s-0.4-1-1-1h-3c-0.6,0-1,0.4-1,1S35.4,19,36,19z M47,21H36c-0.6,0-1,0.4-1,1s0.4,1,1,1h11
		c0.6,0,1-0.4,1-1S47.6,21,47,21z"/>
</g>
<g id="Animation_Glyph" class="st0">
	<path class="st1" d="M30,14v7H10.5c-0.2,0-0.3,0-0.5,0c-1.7-0.2-3-1.7-3-3.5c0-1.9,1.6-3.5,3.5-3.5H30z"/>
	<path class="st1" d="M47.5,41h-37C8.6,41,7,42.6,7,44.5S8.6,48,10.5,48h37c1.9,0,3.5-1.6,3.5-3.5S49.4,41,47.5,41z"/>
	<g class="st1">
		<path d="M29,52c-0.6,0-1-0.4-1-1v-4c0-0.6,0.4-1,1-1s1,0.4,1,1v4C30,51.6,29.6,52,29,52z"/>
	</g>
	<path class="st1" d="M45.9,31.3C45.3,31.8,44.7,32,44,32c-0.5,0-0.9-0.1-1.3-0.3c-1-0.5-1.7-1.6-1.7-2.7v-1h-6c-2.8,0-5-2.2-5-5
		H10.5c-0.2,0-0.3,0-0.5,0V39c0.2,0,0.3,0,0.5,0h37c0.2,0,0.3,0,0.5,0v-9.4L45.9,31.3z M27,31c0,0.6-0.4,1-1,1h-5c-0.6,0-1-0.4-1-1
		s0.4-1,1-1h5C26.6,30,27,30.4,27,31z M20,26h4c0.6,0,1,0.4,1,1s-0.4,1-1,1h-4c-0.6,0-1-0.4-1-1S19.4,26,20,26z M15,26h2
		c0.6,0,1,0.4,1,1s-0.4,1-1,1h-2c-0.6,0-1-0.4-1-1S14.4,26,15,26z M15,30h3c0.6,0,1,0.4,1,1s-0.4,1-1,1h-3c-0.6,0-1-0.4-1-1
		S14.4,30,15,30z M29,36H15c-0.6,0-1-0.4-1-1s0.4-1,1-1h14c0.6,0,1,0.4,1,1S29.6,36,29,36z"/>
	<circle class="st1" cx="29" cy="54" r="4"/>
	<path class="st1" d="M55,7H35c-1.7,0-3,1.3-3,3v13c0,1.7,1.3,3,3,3h8v3c0,0.4,0.2,0.7,0.6,0.9C43.7,30,43.9,30,44,30
		c0.2,0,0.4-0.1,0.6-0.2l4.7-3.8H55c1.7,0,3-1.3,3-3V10C58,8.3,56.7,7,55,7z M37,12h8c0.6,0,1,0.4,1,1s-0.4,1-1,1h-8
		c-0.6,0-1-0.4-1-1S36.4,12,37,12z M37,16h3c0.6,0,1,0.4,1,1s-0.4,1-1,1h-3c-0.6,0-1-0.4-1-1S36.4,16,37,16z M48,22H37
		c-0.6,0-1-0.4-1-1s0.4-1,1-1h11c0.6,0,1,0.4,1,1S48.6,22,48,22z M53,18h-9c-0.6,0-1-0.4-1-1s0.4-1,1-1h9c0.6,0,1,0.4,1,1
		S53.6,18,53,18z M53,14h-4c-0.6,0-1-0.4-1-1s0.4-1,1-1h4c0.6,0,1,0.4,1,1S53.6,14,53,14z"/>
</g>
<g id="Animation_Outline" class="st0">
	<polyline class="st2" points="47,30.8 47,40 11,40 11,20 32,20 	"/>
	<path class="st2" d="M32,20H11h-0.5C9.1,20,8,18.9,8,17.5c0-0.7,0.3-1.3,0.7-1.8c0.5-0.4,1.1-0.7,1.8-0.7H29"/>
	<path class="st2" d="M47.5,45h-37C9.1,45,8,43.9,8,42.5v0c0-1.4,1.1-2.5,2.5-2.5h37c1.4,0,2.5,1.1,2.5,2.5v0
		C50,43.9,48.9,45,47.5,45z"/>
	<line class="st2" x1="29" y1="49" x2="29" y2="45"/>
	<line class="st2" x1="15" y1="26" x2="17" y2="26"/>
	<line class="st2" x1="20" y1="26" x2="24" y2="26"/>
	<line class="st2" x1="21" y1="30" x2="26" y2="30"/>
	<line class="st2" x1="15" y1="30" x2="18" y2="30"/>
	<line class="st2" x1="15" y1="34" x2="29" y2="34"/>
	<circle class="st2" cx="29" cy="52" r="3"/>
	<path class="st2" d="M48,26h6c1.1,0,2-0.9,2-2V11c0-1.1-0.9-2-2-2H34c-1.1,0-2,0.9-2,2v13c0,1.1,0.9,2,2,2h9v4L48,26z"/>
	<line class="st2" x1="36" y1="14" x2="44" y2="14"/>
	<line class="st2" x1="48" y1="14" x2="52" y2="14"/>
	<line class="st2" x1="43" y1="18" x2="52" y2="18"/>
	<line class="st2" x1="36" y1="18" x2="39" y2="18"/>
	<line class="st2" x1="36" y1="22" x2="47" y2="22"/>
</g>
</svg>
