<?xml version="1.0" encoding="utf-8"?>
<!-- Generator: Adobe Illustrator 27.9.5, SVG Export Plug-In . SVG Version: 9.03 Build 54986)  -->
<svg version="1.1" xmlns="http://www.w3.org/2000/svg" xmlns:xlink="http://www.w3.org/1999/xlink" x="0px" y="0px"
	 viewBox="0 0 64 64" style="enable-background:new 0 0 64 64;" xml:space="preserve">
<style type="text/css">
	.st0{display:none;}
	.st1{display:inline;}
	.st2{display:inline;fill:none;stroke:#000000;stroke-width:2;stroke-linecap:round;stroke-linejoin:round;stroke-miterlimit:10;}
	.st3{fill:none;stroke:#000000;stroke-width:2;stroke-linecap:round;stroke-linejoin:round;stroke-miterlimit:10;}
	.st4{display:inline;fill:#231F20;}
	
		.st5{display:inline;fill:#FFFFFF;stroke:#000000;stroke-width:2;stroke-linecap:round;stroke-linejoin:round;stroke-miterlimit:10;}
	.st6{stroke:#000000;stroke-width:2;stroke-linecap:round;stroke-linejoin:round;stroke-miterlimit:10;}
</style>
<g id="Layer_1" class="st0">
</g>
<g id="Basic" class="st0">
	<path class="st2" d="M49,29H14c-2.8,0-5-2.2-5-5v0c0-2.8,2.2-5,5-5h35V29z"/>
	<path class="st2" d="M53,55H15c-3.3,0-6-2.7-6-6V24v0c0,2.8,2.2,5,5,5h39c1.1,0,2,0.9,2,2v22C55,54.1,54.1,55,53,55z"/>
	<line class="st2" x1="15" y1="24" x2="43" y2="24"/>
	<circle class="st4" cx="46" cy="42" r="1.5"/>
	<line class="st2" x1="23" y1="38" x2="23" y2="37"/>
	<line class="st2" x1="23" y1="47" x2="23" y2="46"/>
	<path class="st2" d="M25,40L25,40c0-1.1-0.9-2-2-2h0c-1.1,0-2,0.9-2,2v0c0,1.1,0.9,2,2,2h0c1.1,0,2,0.9,2,2v0c0,1.1-0.9,2-2,2h0
		c-1.1,0-2-0.9-2-2v0"/>
	<path class="st2" d="M55,45l-9.1,1.3C43.3,46.7,41,44.6,41,42v0c0-2.6,2.3-4.7,4.9-4.3L55,39V45z"/>
	<rect x="19" y="9" class="st2" width="20" height="15"/>
	<rect x="23" y="15" class="st2" width="12" height="9"/>
	<circle class="st2" cx="23" cy="42" r="9"/>
</g>
<g id="Glyph">
	<path d="M24,19v-5h10v5H24z M22,13c0-0.5,0.5-1,1-1h12c0.5,0,1,0.5,1,1v6h4V7c0-0.5-0.5-1-1-1H19c-0.5,0-1,0.5-1,1v12h4V13z M31,45
		c0,4.4-3.6,8-8,8s-8-3.6-8-8s3.6-8,8-8S31,40.6,31,45z M22,43c0-0.6,0.4-1,1-1s1,0.4,1,1c0,0.6,0.4,1,1,1s1-0.4,1-1
		c0-1.3-0.8-2.4-2-2.8V40c0-0.6-0.4-1-1-1s-1,0.4-1,1v0.2c-1.2,0.4-2,1.5-2,2.8c0,1.7,1.3,3,3,3c0.6,0,1,0.4,1,1s-0.4,1-1,1
		s-1-0.4-1-1c0-0.6-0.4-1-1-1s-1,0.4-1,1c0,1.3,0.8,2.4,2,2.8V50c0,0.6,0.4,1,1,1s1-0.4,1-1v-0.2c1.2-0.4,2-1.5,2-2.8
		c0-1.7-1.3-3-3-3C22.4,44,22,43.6,22,43z M45.8,41.7L56,42.8v4.4l-10.2,1.1c-1,0.1-1.9-0.1-2.7-0.8C42.4,46.9,42,46,42,45
		s0.4-1.9,1.2-2.5c0.6-0.5,1.4-0.8,2.2-0.8C45.5,41.7,45.7,41.7,45.8,41.7z M46,43.5c-0.8,0-1.5,0.7-1.5,1.5s0.7,1.5,1.5,1.5
		s1.5-0.7,1.5-1.5S46.8,43.5,46,43.5z M56,34v6.8l-9.9-1.1C44.6,39.5,43,40,41.8,41S40,43.5,40,45s0.7,3,1.8,4
		c1,0.8,2.2,1.3,3.5,1.3c0.2,0,0.5,0,0.7-0.1l9.9-1.1V56c0,1.7-1.3,3-3,3H15c-3.9,0-7-3.1-7-7V27c0-3.3,2.7-6,6-6h35
		c0.6,0,1,0.4,1,1v7H17c-0.6,0-1,0.4-1,1s0.4,1,1,1h33h3C54.7,31,56,32.3,56,34z M33,45c0-5.5-4.5-10-10-10s-10,4.5-10,10
		s4.5,10,10,10S33,50.5,33,45z"/>
</g>
<g id="Outline" class="st0">
	<path class="st1" d="M53,28h-3v-9c0-0.6-0.4-1-1-1h-6c-0.6,0-1,0.4-1,1s0.4,1,1,1h5v8H14c-2.2,0-4-1.8-4-4c0-1.1,0.4-2.1,1.2-2.8
		c0.8-0.8,1.8-1.2,2.8-1.2h4v3h-3c-0.6,0-1,0.4-1,1s0.4,1,1,1h4h4h12h4h4c0.6,0,1-0.4,1-1s-0.4-1-1-1h-3V9c0-0.6-0.4-1-1-1H19
		c-0.6,0-1,0.4-1,1v9h-4c-1.6,0-3.1,0.6-4.3,1.8C8.6,20.9,8,22.4,8,24v18c0,0.6,0.4,1,1,1s1-0.4,1-1V28.5c0,0,0,0,0.1,0
		c0.2,0.2,0.5,0.4,0.7,0.6c0,0,0.1,0.1,0.1,0.1c0.3,0.2,0.6,0.3,0.8,0.4c0,0,0.1,0,0.1,0c0.3,0.1,0.6,0.2,0.9,0.3c0,0,0.1,0,0.1,0
		C13.3,30,13.6,30,14,30h35h4c0.6,0,1,0.4,1,1v6.8l-7.9-1.1C44.6,36.5,43,37,41.8,38S40,40.5,40,42s0.7,3,1.8,4
		c1,0.8,2.2,1.3,3.5,1.3c0.3,0,0.5,0,0.8-0.1l7.9-1.1V53c0,0.6-0.4,1-1,1H15c-2.8,0-5-2.2-5-5v-2.5c0-0.6-0.4-1-1-1s-1,0.4-1,1V49
		c0,3.9,3.1,7,7,7h38c1.7,0,3-1.3,3-3v-8v-6v-8C56,29.3,54.7,28,53,28z M24,23v-7h10v7H24z M20,10h18v13h-2v-8c0-0.6-0.4-1-1-1H23
		c-0.6,0-1,0.4-1,1v8h-2V10z M45.8,45.3c-1,0.1-1.9-0.1-2.7-0.8C42.4,43.9,42,43,42,42s0.4-1.9,1.2-2.5c0.6-0.5,1.4-0.8,2.2-0.8
		c0.2,0,0.3,0,0.5,0l8.2,1.2v4.3L45.8,45.3z M47.5,42c0,0.8-0.7,1.5-1.5,1.5s-1.5-0.7-1.5-1.5s0.7-1.5,1.5-1.5S47.5,41.2,47.5,42z
		 M24,44c0-0.6-0.4-1-1-1c-1.7,0-3-1.3-3-3c0-1.3,0.8-2.4,2-2.8V37c0-0.6,0.4-1,1-1s1,0.4,1,1v0.2c1.2,0.4,2,1.5,2,2.8
		c0,0.6-0.4,1-1,1s-1-0.4-1-1c0-0.6-0.4-1-1-1s-1,0.4-1,1s0.4,1,1,1c1.7,0,3,1.3,3,3c0,1.3-0.8,2.4-2,2.8V47c0,0.6-0.4,1-1,1
		s-1-0.4-1-1v-0.2c-1.2-0.4-2-1.5-2-2.8c0-0.6,0.4-1,1-1s1,0.4,1,1c0,0.6,0.4,1,1,1S24,44.6,24,44z M23,52c5.5,0,10-4.5,10-10
		s-4.5-10-10-10s-10,4.5-10,10S17.5,52,23,52z M23,34c4.4,0,8,3.6,8,8s-3.6,8-8,8s-8-3.6-8-8S18.6,34,23,34z"/>
</g>
<g id="Animation_Glyph" class="st0">
	<g class="st1">
		<rect x="24" y="14" width="10" height="5"/>
		<path d="M40,7v12h-4v-6c0-0.5-0.5-1-1-1H23c-0.5,0-1,0.5-1,1v6h-4V7c0-0.5,0.5-1,1-1h20C39.5,6,40,6.5,40,7z"/>
	</g>
	<g class="st1">
		<path d="M23,37c-4.4,0-8,3.6-8,8s3.6,8,8,8s8-3.6,8-8S27.4,37,23,37z M23,44c1.7,0,3,1.3,3,3c0,1.3-0.8,2.4-2,2.8V50
			c0,0.6-0.4,1-1,1s-1-0.4-1-1v-0.2c-1.2-0.4-2-1.5-2-2.8c0-0.6,0.4-1,1-1s1,0.4,1,1c0,0.6,0.4,1,1,1s1-0.4,1-1s-0.4-1-1-1
			c-1.7,0-3-1.3-3-3c0-1.3,0.8-2.4,2-2.8V40c0-0.6,0.4-1,1-1s1,0.4,1,1v0.2c1.2,0.4,2,1.5,2,2.8c0,0.6-0.4,1-1,1s-1-0.4-1-1
			c0-0.6-0.4-1-1-1s-1,0.4-1,1S22.4,44,23,44z"/>
		<path d="M45.3,41.7c-0.8,0-1.6,0.3-2.2,0.8C42.4,43.1,42,44,42,45s0.4,1.9,1.2,2.5c0.7,0.6,1.7,0.9,2.7,0.8L56,47.2v-4.4
			l-10.2-1.1C45.7,41.7,45.5,41.7,45.3,41.7z M47.5,45c0,0.8-0.7,1.5-1.5,1.5s-1.5-0.7-1.5-1.5s0.7-1.5,1.5-1.5S47.5,44.2,47.5,45z"
			/>
		<path d="M46.1,50.3c-0.2,0-0.5,0.1-0.7,0.1c-1.3,0-2.5-0.5-3.5-1.3c-1.2-1-1.8-2.5-1.8-4s0.7-3,1.8-4s2.7-1.5,4.3-1.3l9.9,1.1V34
			c0-1.7-1.3-3-3-3H14c-2.2,0-4-1.8-4-4c0-0.6-0.4-1-1-1s-1,0.4-1,1v25c0,3.9,3.1,7,7,7h38c1.7,0,3-1.3,3-3v-6.8L46.1,50.3z M23,55
			c-5.5,0-10-4.5-10-10s4.5-10,10-10s10,4.5,10,10S28.5,55,23,55z"/>
	</g>
	<path class="st1" d="M17,31c-0.6,0-1-0.4-1-1s0.4-1,1-1h33v-7c0-0.6-0.4-1-1-1H14c-3.3,0-6,2.7-6,6s2.7,6,6,6h35c0.6,0,1-0.4,1-1
		v-1H17z"/>
</g>
<g id="Animation_Outline" class="st0">
	<path class="st2" d="M42,19h7v10H14c-2.8,0-5-2.2-5-5c0-1.4,0.6-2.6,1.5-3.5c0.9-0.9,2.2-1.5,3.5-1.5h5"/>
	<path class="st2" d="M9,43V24v0c0,2.8,2.2,5,5,5h39c1.1,0,2,0.9,2,2v22c0,1.1-0.9,2-2,2H15c-3.3,0-6-2.7-6-6v-2.5"/>
	<line class="st2" x1="15" y1="24" x2="43" y2="24"/>
	<circle class="st4" cx="46" cy="42" r="1.5"/>
	<line class="st2" x1="23" y1="38" x2="23" y2="37"/>
	<line class="st2" x1="23" y1="47" x2="23" y2="46"/>
	<path class="st2" d="M25,40L25,40c0-1.1-0.9-2-2-2h0c-1.1,0-2,0.9-2,2v0c0,1.1,0.9,2,2,2h0c1.1,0,2,0.9,2,2v0c0,1.1-0.9,2-2,2h0
		c-1.1,0-2-0.9-2-2v0"/>
	<path class="st2" d="M55,45l-9.1,1.3C43.3,46.7,41,44.6,41,42v0c0-2.6,2.3-4.7,4.9-4.3L55,39V45z"/>
	<rect x="19" y="9" class="st2" width="20" height="15"/>
	<rect x="23" y="15" class="st2" width="12" height="9"/>
	<circle class="st2" cx="23" cy="42" r="9"/>
</g>
</svg>
