<?xml version="1.0" encoding="utf-8"?>
<!-- Generator: Adobe Illustrator 27.9.5, SVG Export Plug-In . SVG Version: 9.03 Build 54986)  -->
<svg version="1.1" xmlns="http://www.w3.org/2000/svg" xmlns:xlink="http://www.w3.org/1999/xlink" x="0px" y="0px"
	 viewBox="0 0 64 64" style="enable-background:new 0 0 64 64;" xml:space="preserve">
<style type="text/css">
	.st0{display:none;}
	.st1{display:inline;}
	.st2{display:inline;fill:none;stroke:#000000;stroke-width:2;stroke-linecap:round;stroke-linejoin:round;stroke-miterlimit:10;}
	.st3{fill:none;stroke:#000000;stroke-width:2;stroke-linecap:round;stroke-linejoin:round;stroke-miterlimit:10;}
	.st4{display:inline;fill:#231F20;}
	
		.st5{display:inline;fill:#FFFFFF;stroke:#000000;stroke-width:2;stroke-linecap:round;stroke-linejoin:round;stroke-miterlimit:10;}
	.st6{stroke:#000000;stroke-width:2;stroke-linecap:round;stroke-linejoin:round;stroke-miterlimit:10;}
</style>
<g id="Layer_1" class="st0">
</g>
<g id="Basic" class="st0">
	<polyline class="st2" points="18,20 15.7,13 8,13 	"/>
	<circle class="st2" cx="27" cy="52" r="4"/>
	<circle class="st2" cx="48" cy="52" r="4"/>
	<path class="st2" d="M55,48H21c-1.1,0-2-0.9-2-2v0c0-1.1,0.9-2,2-2h4"/>
	<polygon class="st2" points="37,20 21,20 21,11 37,9 	"/>
	<rect x="41" y="12" class="st2" width="12" height="8"/>
	<polygon class="st2" points="52,44 24,44 18,20 56,20 	"/>
	<path class="st2" d="M40,26.7V38c0,1.1-0.9,2-2,2h0c-1.1,0-2-0.9-2-2V26.7c0-1.1,0.9-2,2-2h0C39.1,24.8,40,25.6,40,26.7z"/>
	<path class="st2" d="M32,28.7V36c0,1.1-0.9,2-2,2h0c-1.1,0-2-0.9-2-2v-7.3c0-1.1,0.9-2,2-2h0C31.1,26.8,32,27.6,32,28.7z"/>
	<path class="st2" d="M48,28.7V36c0,1.1-0.9,2-2,2h0c-1.1,0-2-0.9-2-2v-7.3c0-1.1,0.9-2,2-2h0C47.1,26.8,48,27.6,48,28.7z"/>
	<line class="st2" x1="25" y1="14" x2="26" y2="14"/>
	<line class="st2" x1="29" y1="14" x2="32" y2="14"/>
	<line class="st2" x1="30" y1="17" x2="33" y2="17"/>
	<line class="st2" x1="25" y1="17" x2="27" y2="17"/>
	<line class="st2" x1="45" y1="16" x2="49" y2="16"/>
</g>
<g id="Glyph">
	<path d="M55,47H21c-0.6,0-1-0.4-1-1s0.4-1,1-1h3h1h27c0.5,0,0.9-0.4,1-0.8l4-24c0-0.3,0-0.6-0.2-0.8C56.6,19.1,56.3,19,56,19H18.7
		l-2-6.3c-0.1-0.4-0.5-0.7-1-0.7H8c-0.6,0-1,0.4-1,1s0.4,1,1,1h7l2,6.3c0,0,0,0,0,0L22.7,43H21c-1.7,0-3,1.3-3,3s1.3,3,3,3h2
		c-0.6,0.8-1,1.9-1,3c0,2.8,2.2,5,5,5s5-2.2,5-5c0-1.1-0.4-2.2-1-3H44c-0.6,0.8-1,1.9-1,3c0,2.8,2.2,5,5,5s5-2.2,5-5
		c0-1.1-0.4-2.2-1-3h3c0.6,0,1-0.4,1-1S55.6,47,55,47z M43,28.8c0-1.7,1.3-3,3-3s3,1.3,3,3V36c0,1.7-1.3,3-3,3s-3-1.3-3-3V28.8z
		 M35,26.8c0-1.7,1.3-3,3-3s3,1.3,3,3V38c0,1.7-1.3,3-3,3s-3-1.3-3-3V26.8z M27,28.8c0-1.7,1.3-3,3-3s3,1.3,3,3V36c0,1.7-1.3,3-3,3
		s-3-1.3-3-3V28.8z M29,36v-7.2c0-0.6,0.4-1,1-1s1,0.4,1,1V36c0,0.6-0.4,1-1,1S29,36.6,29,36z M45,36v-7.2c0-0.6,0.4-1,1-1
		s1,0.4,1,1V36c0,0.6-0.4,1-1,1S45,36.6,45,36z M37,38V26.8c0-0.6,0.4-1,1-1s1,0.4,1,1V38c0,0.6-0.4,1-1,1S37,38.6,37,38z M38,8
		c0-0.3-0.1-0.6-0.3-0.8C37.5,7.1,37.2,7,36.9,7l-16,2C20.4,9.1,20,9.5,20,10v7h18V8z M26,14h-1c-0.6,0-1-0.4-1-1s0.4-1,1-1h1
		c0.6,0,1,0.4,1,1S26.6,14,26,14z M29,11c0-0.6,0.4-1,1-1h3c0.6,0,1,0.4,1,1s-0.4,1-1,1h-3C29.4,12,29,11.6,29,11z M34,15h-3
		c-0.6,0-1-0.4-1-1s0.4-1,1-1h3c0.6,0,1,0.4,1,1S34.6,15,34,15z M54,11c0-0.5-0.5-1-1-1H41c-0.5,0-1,0.5-1,1v6h14V11z M49,15h-4
		c-0.6,0-1-0.4-1-1s0.4-1,1-1h4c0.6,0,1,0.4,1,1S49.6,15,49,15z"/>
</g>
<g id="Outline" class="st0">
	<path class="st1" d="M55,47H21c-0.6,0-1-0.4-1-1s0.4-1,1-1h3h1h27c0.5,0,0.9-0.4,1-0.8l4-24c0-0.3,0-0.6-0.2-0.8
		C56.6,19.1,56.3,19,56,19h-2v-7c0-0.6-0.4-1-1-1H41c-0.6,0-1,0.4-1,1v7h-3H22v-7.1l14-1.8v6.1c0,0.6,0.4,1,1,1s1-0.4,1-1V9
		c0-0.3-0.1-0.6-0.3-0.8C37.4,8.1,37.2,8,36.9,8l-16,2c-0.5,0.1-0.9,0.5-0.9,1v8h-1.3l-2-6.3c-0.1-0.4-0.5-0.7-1-0.7H8
		c-0.6,0-1,0.4-1,1s0.4,1,1,1h7l2,6.3c0,0,0,0,0,0l4.3,17.1c0.1,0.5,0.7,0.9,1.2,0.7c0.5-0.1,0.9-0.7,0.7-1.2l-4-16H21h16h4h12h1.8
		l-3.7,22H25h-0.2l-0.6-2.4C24,40,23.5,39.7,23,39.8c-0.5,0.1-0.9,0.7-0.7,1.2l0.5,2H21c-1.7,0-3,1.3-3,3s1.3,3,3,3h2
		c-0.6,0.8-1,1.9-1,3c0,2.8,2.2,5,5,5s5-2.2,5-5c0-1.1-0.4-2.2-1-3H44c-0.6,0.8-1,1.9-1,3c0,2.8,2.2,5,5,5s5-2.2,5-5
		c0-1.1-0.4-2.2-1-3h3c0.6,0,1-0.4,1-1S55.6,47,55,47z M42,19v-6h10v6H42z M30,52c0,1.7-1.3,3-3,3s-3-1.3-3-3s1.3-3,3-3
		S30,50.3,30,52z M51,52c0,1.7-1.3,3-3,3s-3-1.3-3-3s1.3-3,3-3S51,50.3,51,52z M41,38V26.8c0-1.7-1.3-3-3-3s-3,1.3-3,3V38
		c0,1.7,1.3,3,3,3S41,39.7,41,38z M37,38V26.8c0-0.6,0.4-1,1-1s1,0.4,1,1V38c0,0.6-0.4,1-1,1S37,38.6,37,38z M33,36v-7.2
		c0-1.7-1.3-3-3-3s-3,1.3-3,3V36c0,1.7,1.3,3,3,3S33,37.7,33,36z M29,36v-7.2c0-0.6,0.4-1,1-1s1,0.4,1,1V36c0,0.6-0.4,1-1,1
		S29,36.6,29,36z M49,36v-7.2c0-1.7-1.3-3-3-3s-3,1.3-3,3V36c0,1.7,1.3,3,3,3S49,37.7,49,36z M45,36v-7.2c0-0.6,0.4-1,1-1s1,0.4,1,1
		V36c0,0.6-0.4,1-1,1S45,36.6,45,36z M24,14c0-0.6,0.4-1,1-1h1c0.6,0,1,0.4,1,1s-0.4,1-1,1h-1C24.4,15,24,14.6,24,14z M32,15h-3
		c-0.6,0-1-0.4-1-1s0.4-1,1-1h3c0.6,0,1,0.4,1,1S32.6,15,32,15z M29,17c0-0.6,0.4-1,1-1h3c0.6,0,1,0.4,1,1s-0.4,1-1,1h-3
		C29.4,18,29,17.6,29,17z M24,17c0-0.6,0.4-1,1-1h2c0.6,0,1,0.4,1,1s-0.4,1-1,1h-2C24.4,18,24,17.6,24,17z M50,16c0,0.6-0.4,1-1,1
		h-4c-0.6,0-1-0.4-1-1s0.4-1,1-1h4C49.6,15,50,15.4,50,16z"/>
</g>
<g id="Animation_Glyph" class="st0">
	<g class="st1">
		<path d="M18,21c-0.4,0-0.8-0.3-1-0.7L15,14H8c-0.6,0-1-0.4-1-1s0.4-1,1-1h7.7c0.4,0,0.8,0.3,1,0.7l2.3,7c0.2,0.5-0.1,1.1-0.6,1.3
			C18.2,21,18.1,21,18,21z"/>
	</g>
	<circle class="st1" cx="27" cy="52" r="5"/>
	<circle class="st1" cx="48" cy="52" r="5"/>
	<g class="st1">
		<path d="M55,49H21c-1.7,0-3-1.3-3-3s1.3-3,3-3h4c0.6,0,1,0.4,1,1s-0.4,1-1,1h-4c-0.6,0-1,0.4-1,1s0.4,1,1,1h34c0.6,0,1,0.4,1,1
			S55.6,49,55,49z"/>
	</g>
	<g class="st1">
		<path d="M30,27.8c-0.6,0-1,0.4-1,1V36c0,0.6,0.4,1,1,1s1-0.4,1-1v-7.2C31,28.2,30.6,27.8,30,27.8z"/>
		<path d="M46,27.8c-0.6,0-1,0.4-1,1V36c0,0.6,0.4,1,1,1s1-0.4,1-1v-7.2C47,28.2,46.6,27.8,46,27.8z"/>
		<path d="M38,25.8c-0.6,0-1,0.4-1,1V38c0,0.6,0.4,1,1,1s1-0.4,1-1V26.8C39,26.2,38.6,25.8,38,25.8z"/>
		<path d="M56.8,19.4C56.6,19.1,56.3,19,56,19H18c-0.3,0-0.6,0.1-0.8,0.4C17,19.6,17,19.9,17,20.2l6,24c0.1,0.4,0.5,0.8,1,0.8h28
			c0.5,0,0.9-0.4,1-0.8l4-24C57,19.9,57,19.6,56.8,19.4z M33,36c0,1.7-1.3,3-3,3s-3-1.3-3-3v-7.2c0-1.7,1.3-3,3-3s3,1.3,3,3V36z
			 M41,38c0,1.7-1.3,3-3,3s-3-1.3-3-3V26.8c0-1.7,1.3-3,3-3s3,1.3,3,3V38z M49,36c0,1.7-1.3,3-3,3s-3-1.3-3-3v-7.2c0-1.7,1.3-3,3-3
			s3,1.3,3,3V36z"/>
	</g>
	<path class="st1" d="M37.7,7.2C37.5,7.1,37.2,7,36.9,7l-16,2C20.4,9.1,20,9.5,20,10v7h18V8C38,7.7,37.9,7.4,37.7,7.2z M26,14h-1
		c-0.6,0-1-0.4-1-1s0.4-1,1-1h1c0.6,0,1,0.4,1,1S26.6,14,26,14z M29,11c0-0.6,0.4-1,1-1h3c0.6,0,1,0.4,1,1s-0.4,1-1,1h-3
		C29.4,12,29,11.6,29,11z M34,15h-3c-0.6,0-1-0.4-1-1s0.4-1,1-1h3c0.6,0,1,0.4,1,1S34.6,15,34,15z"/>
	<path class="st1" d="M53,10H41c-0.5,0-1,0.5-1,1v6h14v-6C54,10.5,53.5,10,53,10z M49,15h-4c-0.6,0-1-0.4-1-1s0.4-1,1-1h4
		c0.6,0,1,0.4,1,1S49.6,15,49,15z"/>
</g>
<g id="Animation_Outline" class="st0">
	<polyline class="st2" points="18,20 15.7,13 8,13 	"/>
	<circle class="st2" cx="27" cy="52" r="4"/>
	<circle class="st2" cx="48" cy="52" r="4"/>
	<path class="st2" d="M55,48H21c-1.1,0-2-0.9-2-2v0c0-1.1,0.9-2,2-2h4"/>
	<polyline class="st2" points="37,20 21,20 21,11 37,9 37,16.2 	"/>
	<rect x="41" y="12" class="st2" width="12" height="8"/>
	<polyline class="st2" points="22.3,37.2 18,20 56,20 52,44 24,44 23.2,40.8 	"/>
	<path class="st2" d="M40,26.7V38c0,1.1-0.9,2-2,2h0c-1.1,0-2-0.9-2-2V26.7c0-1.1,0.9-2,2-2h0C39.1,24.8,40,25.6,40,26.7z"/>
	<path class="st2" d="M32,28.7V36c0,1.1-0.9,2-2,2h0c-1.1,0-2-0.9-2-2v-7.3c0-1.1,0.9-2,2-2h0C31.1,26.8,32,27.6,32,28.7z"/>
	<path class="st2" d="M48,28.7V36c0,1.1-0.9,2-2,2h0c-1.1,0-2-0.9-2-2v-7.3c0-1.1,0.9-2,2-2h0C47.1,26.8,48,27.6,48,28.7z"/>
	<line class="st2" x1="25" y1="14" x2="26" y2="14"/>
	<line class="st2" x1="29" y1="14" x2="32" y2="14"/>
	<line class="st2" x1="30" y1="17" x2="33" y2="17"/>
	<line class="st2" x1="25" y1="17" x2="27" y2="17"/>
	<line class="st2" x1="45" y1="16" x2="49" y2="16"/>
</g>
</svg>
