<?xml version="1.0" encoding="utf-8"?>
<!-- Generator: Adobe Illustrator 27.9.5, SVG Export Plug-In . SVG Version: 9.03 Build 54986)  -->
<svg version="1.1" xmlns="http://www.w3.org/2000/svg" xmlns:xlink="http://www.w3.org/1999/xlink" x="0px" y="0px"
	 viewBox="0 0 64 64" style="enable-background:new 0 0 64 64;" xml:space="preserve">
<style type="text/css">
	.st0{display:none;}
	.st1{display:inline;}
	.st2{display:inline;fill:none;stroke:#000000;stroke-width:2;stroke-linecap:round;stroke-linejoin:round;stroke-miterlimit:10;}
	.st3{fill:none;stroke:#000000;stroke-width:2;stroke-linecap:round;stroke-linejoin:round;stroke-miterlimit:10;}
	.st4{display:inline;fill:#231F20;}
	
		.st5{display:inline;fill:#FFFFFF;stroke:#000000;stroke-width:2;stroke-linecap:round;stroke-linejoin:round;stroke-miterlimit:10;}
	.st6{stroke:#000000;stroke-width:2;stroke-linecap:round;stroke-linejoin:round;stroke-miterlimit:10;}
</style>
<g id="Layer_1" class="st0">
</g>
<g id="Basic" class="st0">
	<circle class="st2" cx="32" cy="13" r="4"/>
	<circle class="st2" cx="14" cy="45" r="3"/>
	<circle class="st2" cx="50" cy="45" r="3"/>
	<circle class="st2" cx="32" cy="45" r="3"/>
	<path class="st2" d="M39,28H25v-3c0-3.9,3.1-7,7-7h0c3.9,0,7,3.1,7,7V28z"/>
	<path class="st2" d="M37,55H27v-1c0-2.8,2.2-5,5-5h0c2.8,0,5,2.2,5,5V55z"/>
	<path class="st2" d="M19,55H9v-1c0-2.8,2.2-5,5-5h0c2.8,0,5,2.2,5,5V55z"/>
	<path class="st2" d="M55,55H45v-1c0-2.8,2.2-5,5-5h0c2.8,0,5,2.2,5,5V55z"/>
	<path class="st2" d="M14,39v-2c0-1.1,0.9-2,2-2h32c1.1,0,2,0.9,2,2v2"/>
	<line class="st2" x1="32" y1="32" x2="32" y2="38"/>
</g>
<g id="Glyph" class="st0">
	<path class="st1" d="M24,28v-3c0-3.6,2.4-6.6,5.6-7.6C28.1,16.5,27,14.9,27,13c0-2.8,2.2-5,5-5s5,2.2,5,5c0,1.9-1.1,3.5-2.6,4.4
		c3.2,1,5.6,4.1,5.6,7.6v3c0,0.6-0.4,1-1,1H25C24.4,29,24,28.6,24,28z M34.1,48.4c1.1-0.7,1.9-2,1.9-3.4c0-2.2-1.8-4-4-4s-4,1.8-4,4
		c0,1.4,0.8,2.7,1.9,3.4c-2.3,0.9-3.9,3-3.9,5.6v1c0,0.6,0.4,1,1,1h10c0.6,0,1-0.4,1-1v-1C38,51.4,36.4,49.2,34.1,48.4z M16.1,48.4
		c1.1-0.7,1.9-2,1.9-3.4c0-2.2-1.8-4-4-4s-4,1.8-4,4c0,1.4,0.8,2.7,1.9,3.4C9.6,49.2,8,51.4,8,54v1c0,0.6,0.4,1,1,1h10
		c0.6,0,1-0.4,1-1v-1C20,51.4,18.4,49.2,16.1,48.4z M52.1,48.4c1.1-0.7,1.9-2,1.9-3.4c0-2.2-1.8-4-4-4s-4,1.8-4,4
		c0,1.4,0.8,2.7,1.9,3.4c-2.3,0.9-3.9,3-3.9,5.6v1c0,0.6,0.4,1,1,1h10c0.6,0,1-0.4,1-1v-1C56,51.4,54.4,49.2,52.1,48.4z M14,40
		c0.6,0,1-0.4,1-1v-2c0-0.6,0.4-1,1-1h15v2c0,0.6,0.4,1,1,1s1-0.4,1-1v-2h15c0.6,0,1,0.4,1,1v2c0,0.6,0.4,1,1,1s1-0.4,1-1v-2
		c0-1.7-1.3-3-3-3H33v-2c0-0.6-0.4-1-1-1s-1,0.4-1,1v2H16c-1.7,0-3,1.3-3,3v2C13,39.6,13.4,40,14,40z"/>
</g>
<g id="Outline">
	<path d="M25,29h14c0.6,0,1-0.4,1-1v-3c0-3.6-2.4-6.6-5.6-7.6c1.5-0.9,2.6-2.5,2.6-4.4c0-2.8-2.2-5-5-5s-5,2.2-5,5
		c0,1.9,1.1,3.5,2.6,4.4c-3.2,1-5.6,4.1-5.6,7.6v3C24,28.6,24.4,29,25,29z M32,10c1.7,0,3,1.3,3,3s-1.3,3-3,3s-3-1.3-3-3
		S30.3,10,32,10z M26,25c0-3.3,2.7-6,6-6s6,2.7,6,6v2H26V25z M34.1,48.4c1.1-0.7,1.9-2,1.9-3.4c0-2.2-1.8-4-4-4s-4,1.8-4,4
		c0,1.4,0.8,2.7,1.9,3.4c-2.3,0.9-3.9,3-3.9,5.6v1c0,0.6,0.4,1,1,1h10c0.6,0,1-0.4,1-1v-1C38,51.4,36.4,49.2,34.1,48.4z M32,43
		c1.1,0,2,0.9,2,2s-0.9,2-2,2s-2-0.9-2-2S30.9,43,32,43z M28,54c0-2.2,1.8-4,4-4s4,1.8,4,4H28z M16.1,48.4c1.1-0.7,1.9-2,1.9-3.4
		c0-2.2-1.8-4-4-4s-4,1.8-4,4c0,1.4,0.8,2.7,1.9,3.4C9.6,49.2,8,51.4,8,54v1c0,0.6,0.4,1,1,1h10c0.6,0,1-0.4,1-1v-1
		C20,51.4,18.4,49.2,16.1,48.4z M14,43c1.1,0,2,0.9,2,2s-0.9,2-2,2s-2-0.9-2-2S12.9,43,14,43z M10,54c0-2.2,1.8-4,4-4s4,1.8,4,4H10z
		 M52.1,48.4c1.1-0.7,1.9-2,1.9-3.4c0-2.2-1.8-4-4-4s-4,1.8-4,4c0,1.4,0.8,2.7,1.9,3.4c-2.3,0.9-3.9,3-3.9,5.6v1c0,0.6,0.4,1,1,1h10
		c0.6,0,1-0.4,1-1v-1C56,51.4,54.4,49.2,52.1,48.4z M50,43c1.1,0,2,0.9,2,2s-0.9,2-2,2s-2-0.9-2-2S48.9,43,50,43z M46,54
		c0-2.2,1.8-4,4-4s4,1.8,4,4H46z M44.3,36c-0.6,0-1-0.4-1-1s0.4-1,1-1H48c1.7,0,3,1.3,3,3v2c0,0.6-0.4,1-1,1s-1-0.4-1-1v-2
		c0-0.6-0.4-1-1-1H44.3z M41.7,35c0,0.6-0.4,1-1,1H33v2c0,0.6-0.4,1-1,1s-1-0.4-1-1v-2H16c-0.6,0-1,0.4-1,1v2c0,0.6-0.4,1-1,1
		s-1-0.4-1-1v-2c0-1.7,1.3-3,3-3h15v-2c0-0.6,0.4-1,1-1s1,0.4,1,1v2h7.7C41.2,34,41.7,34.4,41.7,35z"/>
</g>
<g id="Animation_Glyph" class="st0">
	<circle class="st1" cx="32" cy="13" r="5"/>
	<circle class="st1" cx="14" cy="45" r="4"/>
	<circle class="st1" cx="50" cy="45" r="4"/>
	<circle class="st1" cx="32" cy="45" r="4"/>
	<path class="st1" d="M32,17c-4.4,0-8,3.6-8,8v3c0,0.6,0.4,1,1,1h14c0.6,0,1-0.4,1-1v-3C40,20.6,36.4,17,32,17z"/>
	<path class="st1" d="M32,48c-3.3,0-6,2.7-6,6v1c0,0.6,0.4,1,1,1h10c0.6,0,1-0.4,1-1v-1C38,50.7,35.3,48,32,48z"/>
	<path class="st1" d="M14,48c-3.3,0-6,2.7-6,6v1c0,0.6,0.4,1,1,1h10c0.6,0,1-0.4,1-1v-1C20,50.7,17.3,48,14,48z"/>
	<path class="st1" d="M50,48c-3.3,0-6,2.7-6,6v1c0,0.6,0.4,1,1,1h10c0.6,0,1-0.4,1-1v-1C56,50.7,53.3,48,50,48z"/>
	<g class="st1">
		<path d="M50,40c-0.6,0-1-0.4-1-1v-2c0-0.6-0.4-1-1-1H16c-0.6,0-1,0.4-1,1v2c0,0.6-0.4,1-1,1s-1-0.4-1-1v-2c0-1.7,1.3-3,3-3h32
			c1.7,0,3,1.3,3,3v2C51,39.6,50.6,40,50,40z"/>
	</g>
	<g class="st1">
		<path d="M32,39c-0.6,0-1-0.4-1-1v-6c0-0.6,0.4-1,1-1s1,0.4,1,1v6C33,38.6,32.6,39,32,39z"/>
	</g>
</g>
<g id="Animation_Outline" class="st0">
	<circle class="st2" cx="32" cy="13" r="4"/>
	<circle class="st2" cx="14" cy="45" r="3"/>
	<circle class="st2" cx="50" cy="45" r="3"/>
	<circle class="st2" cx="32" cy="45" r="3"/>
	<path class="st2" d="M39,28H25v-3c0-3.9,3.1-7,7-7h0c3.9,0,7,3.1,7,7V28z"/>
	<path class="st2" d="M37,55H27v-1c0-2.8,2.2-5,5-5h0c2.8,0,5,2.2,5,5V55z"/>
	<path class="st2" d="M19,55H9v-1c0-2.8,2.2-5,5-5h0c2.8,0,5,2.2,5,5V55z"/>
	<path class="st2" d="M55,55H45v-1c0-2.8,2.2-5,5-5h0c2.8,0,5,2.2,5,5V55z"/>
	<path class="st2" d="M44.3,35H48c1.1,0,2,0.9,2,2v2"/>
	<path class="st2" d="M14,39v-2c0-1.1,0.9-2,2-2h24.7"/>
	<line class="st2" x1="32" y1="32" x2="32" y2="38"/>
</g>
</svg>
