<?xml version="1.0" encoding="utf-8"?>
<!-- Generator: Adobe Illustrator 27.9.5, SVG Export Plug-In . SVG Version: 9.03 Build 54986)  -->
<svg version="1.1" xmlns="http://www.w3.org/2000/svg" xmlns:xlink="http://www.w3.org/1999/xlink" x="0px" y="0px"
	 viewBox="0 0 64 64" style="enable-background:new 0 0 64 64;" xml:space="preserve">
<style type="text/css">
	.st0{display:none;}
	.st1{display:inline;}
	.st2{display:inline;fill:none;stroke:#000000;stroke-width:2;stroke-linecap:round;stroke-linejoin:round;stroke-miterlimit:10;}
	.st3{fill:none;stroke:#000000;stroke-width:2;stroke-linecap:round;stroke-linejoin:round;stroke-miterlimit:10;}
	.st4{display:inline;fill:#231F20;}
	
		.st5{display:inline;fill:#FFFFFF;stroke:#000000;stroke-width:2;stroke-linecap:round;stroke-linejoin:round;stroke-miterlimit:10;}
	.st6{stroke:#000000;stroke-width:2;stroke-linecap:round;stroke-linejoin:round;stroke-miterlimit:10;}
</style>
<g id="Layer_1" class="st0">
</g>
<g id="Basic" class="st0">
	<path class="st2" d="M54,55H10c-1.1,0-2-0.9-2-2V17h48v36C56,54.1,55.1,55,54,55z"/>
	<path class="st2" d="M56,17H8v-6c0-1.1,0.9-2,2-2h44c1.1,0,2,0.9,2,2V17z"/>
	<circle class="st1" cx="13" cy="13" r="1.5"/>
	<circle class="st1" cx="17" cy="13" r="1.5"/>
	<circle class="st1" cx="21" cy="13" r="1.5"/>
	<circle class="st2" cx="19" cy="28" r="6"/>
	<polyline class="st2" points="19,22 19,28 24,31 	"/>
	<line class="st2" x1="19" y1="28" x2="14.2" y2="31.2"/>
	<rect x="45" y="38" class="st2" width="6" height="12"/>
	<rect x="34" y="34" class="st2" width="6" height="16"/>
	<rect x="23" y="43" class="st2" width="6" height="7"/>
	<line class="st2" x1="20" y1="50" x2="56" y2="50"/>
	<line class="st2" x1="42" y1="23" x2="52" y2="23"/>
	<line class="st2" x1="46" y1="27" x2="52" y2="27"/>
</g>
<g id="Glyph" class="st0">
	<path class="st1" d="M54,8H10c-1.7,0-3,1.3-3,3v6h12h20h18v-6C57,9.3,55.7,8,54,8z M23,10.5c0.8,0,1.5,0.7,1.5,1.5
		s-0.7,1.5-1.5,1.5s-1.5-0.7-1.5-1.5S22.2,10.5,23,10.5z M18,10.5c0.8,0,1.5,0.7,1.5,1.5s-0.7,1.5-1.5,1.5s-1.5-0.7-1.5-1.5
		S17.2,10.5,18,10.5z M13,10.5c0.8,0,1.5,0.7,1.5,1.5s-0.7,1.5-1.5,1.5s-1.5-0.7-1.5-1.5S12.2,10.5,13,10.5z M24,30
		c0,0.6-0.1,1.1-0.3,1.7L20,29.4v-4.3C22.3,25.6,24,27.6,24,30z M19,31.2l3.6,2.2c-0.9,1-2.2,1.6-3.7,1.6c-1.4,0-2.6-0.5-3.5-1.4
		L19,31.2z M18,29.5l-3.6,2.5C14.1,31.3,14,30.7,14,30c0-2.4,1.7-4.4,4-4.9V29.5z M19,19H7v34c0,1.7,1.3,3,3,3h44c1.7,0,3-1.3,3-3
		v-2h-6h-6h-5h-6h-5h-6h-4c-0.6,0-1-0.4-1-1s0.4-1,1-1h3v-6c0-0.6,0.4-1,1-1h6c0.6,0,1,0.4,1,1v6h3V34c0-0.6,0.4-1,1-1h6
		c0.6,0,1,0.4,1,1v15h3V38c0-0.6,0.4-1,1-1h6c0.6,0,1,0.4,1,1v11h5V19H39H19z M19,37c-3.9,0-7-3.1-7-7s3.1-7,7-7s7,3.1,7,7
		S22.9,37,19,37z M52,30h-6c-0.6,0-1-0.4-1-1s0.4-1,1-1h6c0.6,0,1,0.4,1,1S52.6,30,52,30z M42,24h10c0.6,0,1,0.4,1,1s-0.4,1-1,1H42
		c-0.6,0-1-0.4-1-1S41.4,24,42,24z M46,49V39h4v10H46z M35,49V35h4v14H35z M24,49v-5h4v5H24z"/>
</g>
<g id="Outline">
	<path d="M54,8h-4.1c-0.6,0-1,0.4-1,1s0.4,1,1,1H54c0.6,0,1,0.4,1,1v5H9v-5c0-0.6,0.4-1,1-1h36c0.6,0,1-0.4,1-1s-0.4-1-1-1H10
		c-1.7,0-3,1.3-3,3v6v29.5c0,0.6,0.4,1,1,1s1-0.4,1-1V18h46v31h-3V38c0-0.6-0.4-1-1-1h-6c-0.6,0-1,0.4-1,1v11h-3V34c0-0.6-0.4-1-1-1
		h-6c-0.6,0-1,0.4-1,1v15h-3v-6c0-0.6-0.4-1-1-1h-6c-0.6,0-1,0.4-1,1v6h-2c-0.6,0-1,0.4-1,1s0.4,1,1,1h3h6h5h6h5h6h4v2
		c0,0.6-0.4,1-1,1H10c-0.6,0-1-0.4-1-1v-3c0-0.6-0.4-1-1-1s-1,0.4-1,1v3c0,1.7,1.3,3,3,3h44c1.7,0,3-1.3,3-3V17v-6
		C57,9.3,55.7,8,54,8z M24,49v-5h4v5H24z M35,49V35h4v14H35z M46,49V39h4v10H46z M13,11.5c0.8,0,1.5,0.7,1.5,1.5s-0.7,1.5-1.5,1.5
		s-1.5-0.7-1.5-1.5S12.2,11.5,13,11.5z M17,11.5c0.8,0,1.5,0.7,1.5,1.5s-0.7,1.5-1.5,1.5s-1.5-0.7-1.5-1.5S16.2,11.5,17,11.5z
		 M21,11.5c0.8,0,1.5,0.7,1.5,1.5s-0.7,1.5-1.5,1.5s-1.5-0.7-1.5-1.5S20.2,11.5,21,11.5z M26,28c0-3.9-3.1-7-7-7s-7,3.1-7,7
		s3.1,7,7,7S26,31.9,26,28z M19,33c-1.4,0-2.6-0.5-3.5-1.4l3.5-2.4l3.6,2.2C21.8,32.4,20.5,33,19,33z M24,28c0,0.6-0.1,1.1-0.3,1.7
		L20,27.4v-4.3C22.3,23.6,24,25.6,24,28z M18,23.1v4.4l-3.6,2.5C14.1,29.3,14,28.7,14,28C14,25.6,15.7,23.6,18,23.1z M53,23
		c0,0.6-0.4,1-1,1H42c-0.6,0-1-0.4-1-1s0.4-1,1-1h10C52.6,22,53,22.4,53,23z M53,27c0,0.6-0.4,1-1,1h-6c-0.6,0-1-0.4-1-1s0.4-1,1-1
		h6C52.6,26,53,26.4,53,27z"/>
</g>
<g id="Animation_Glyph" class="st0">
	<path class="st1" d="M39,17h18v-6c0-1.7-1.3-3-3-3H10c-1.7,0-3,1.3-3,3v6h12H39z M23,10.5c0.8,0,1.5,0.7,1.5,1.5s-0.7,1.5-1.5,1.5
		s-1.5-0.7-1.5-1.5S22.2,10.5,23,10.5z M13,13.5c-0.8,0-1.5-0.7-1.5-1.5s0.7-1.5,1.5-1.5s1.5,0.7,1.5,1.5S13.8,13.5,13,13.5z
		 M16.5,12c0-0.8,0.7-1.5,1.5-1.5s1.5,0.7,1.5,1.5s-0.7,1.5-1.5,1.5S16.5,12.8,16.5,12z"/>
	<g class="st1">
		<path d="M20,29.4l3.7,2.2c0.2-0.5,0.3-1.1,0.3-1.7c0-2.4-1.7-4.4-4-4.9V29.4z"/>
		<path d="M19,31.2l-3.5,2.4c0.9,0.9,2.1,1.4,3.5,1.4c1.5,0,2.8-0.6,3.7-1.6L19,31.2z"/>
		<path d="M18,29.5v-4.4c-2.3,0.5-4,2.5-4,4.9c0,0.7,0.1,1.3,0.4,1.9L18,29.5z"/>
		<path d="M39,17h18c0-0.6-0.4-1-1-1H8c-0.6,0-1,0.4-1,1h12H39z"/>
		<path d="M51,51h-6h-5h-6h-5h-6h-4c-0.6,0-1-0.4-1-1s0.4-1,1-1h3v-6c0-0.6,0.4-1,1-1h6c0.6,0,1,0.4,1,1v6h3V34c0-0.6,0.4-1,1-1h6
			c0.6,0,1,0.4,1,1v15h3V38c0-0.6,0.4-1,1-1h6c0.6,0,1,0.4,1,1v11h5V19H39H19H7v34c0,1.7,1.3,3,3,3h44c1.7,0,3-1.3,3-3v-2H51z
			 M52,30h-6c-0.6,0-1-0.4-1-1s0.4-1,1-1h6c0.6,0,1,0.4,1,1S52.6,30,52,30z M42,24h10c0.6,0,1,0.4,1,1s-0.4,1-1,1H42
			c-0.6,0-1-0.4-1-1S41.4,24,42,24z M12,30c0-3.9,3.1-7,7-7s7,3.1,7,7s-3.1,7-7,7S12,33.9,12,30z"/>
		<rect x="46" y="39" width="4" height="10"/>
		<rect x="35" y="35" width="4" height="14"/>
		<rect x="24" y="44" width="4" height="5"/>
	</g>
</g>
<g id="Animation_Outline" class="st0">
	<path class="st2" d="M8,46.5V17h48v36c0,1.1-0.9,2-2,2H10c-1.1,0-2-0.9-2-2v-3"/>
	<path class="st2" d="M49.9,9H54c1.1,0,2,0.9,2,2v6H8v-6c0-1.1,0.9-2,2-2h36"/>
	<circle class="st1" cx="13" cy="13" r="1.5"/>
	<circle class="st1" cx="17" cy="13" r="1.5"/>
	<circle class="st1" cx="21" cy="13" r="1.5"/>
	<circle class="st2" cx="19" cy="28" r="6"/>
	<polyline class="st2" points="19,22 19,28 24,31 	"/>
	<line class="st2" x1="19" y1="28" x2="14.2" y2="31.2"/>
	<rect x="45" y="38" class="st2" width="6" height="12"/>
	<rect x="34" y="34" class="st2" width="6" height="16"/>
	<rect x="23" y="43" class="st2" width="6" height="7"/>
	<line class="st2" x1="20" y1="50" x2="56" y2="50"/>
	<line class="st2" x1="42" y1="23" x2="52" y2="23"/>
	<line class="st2" x1="46" y1="27" x2="52" y2="27"/>
</g>
</svg>
