<?xml version="1.0" encoding="utf-8"?>
<!-- Generator: Adobe Illustrator 27.9.5, SVG Export Plug-In . SVG Version: 9.03 Build 54986)  -->
<svg version="1.1" xmlns="http://www.w3.org/2000/svg" xmlns:xlink="http://www.w3.org/1999/xlink" x="0px" y="0px"
	 viewBox="0 0 64 64" style="enable-background:new 0 0 64 64;" xml:space="preserve">
<style type="text/css">
	.st0{display:none;}
	.st1{display:inline;}
	.st2{display:inline;fill:none;stroke:#000000;stroke-width:2;stroke-linecap:round;stroke-linejoin:round;stroke-miterlimit:10;}
	.st3{fill:none;stroke:#000000;stroke-width:2;stroke-linecap:round;stroke-linejoin:round;stroke-miterlimit:10;}
	.st4{display:inline;fill:#231F20;}
	
		.st5{display:inline;fill:#FFFFFF;stroke:#000000;stroke-width:2;stroke-linecap:round;stroke-linejoin:round;stroke-miterlimit:10;}
	.st6{stroke:#000000;stroke-width:2;stroke-linecap:round;stroke-linejoin:round;stroke-miterlimit:10;}
</style>
<g id="Layer_1" class="st0">
</g>
<g id="Basic" class="st0">
	<path class="st2" d="M46,55H18c-1.1,0-2-0.9-2-2V17c0-1.1,0.9-2,2-2h28c1.1,0,2,0.9,2,2v36C48,54.1,47.1,55,46,55z"/>
	<path class="st2" d="M35,23h-6c-1.1,0-2-0.9-2-2V11c0-1.1,0.9-2,2-2h6c1.1,0,2,0.9,2,2v10C37,22.1,36.1,23,35,23z"/>
	<rect x="44" y="20" class="st2" width="4" height="30"/>
	<rect x="16" y="20" class="st2" width="4" height="30"/>
	<circle class="st2" cx="32" cy="16" r="2"/>
	<circle class="st2" cx="32" cy="33" r="4"/>
	<path class="st2" d="M39,48H25v-3c0-3.9,3.1-7,7-7h0c3.9,0,7,3.1,7,7V48z"/>
</g>
<g id="Glyph" class="st0">
	<path class="st1" d="M18,49h-3V21h3V49z M32,38c1.7,0,3-1.3,3-3s-1.3-3-3-3s-3,1.3-3,3S30.3,38,32,38z M32,41c-3.3,0-6,2.7-6,6v2
		h12v-2C38,43.7,35.3,41,32,41z M49,17v2h-4c-0.5,0-1,0.5-1,1v30c0,0.5,0.5,1,1,1h4v2c0,1.6-1.3,3-3,3H18c-1.7,0-3-1.4-3-3v-2h4
		c0.5,0,1-0.5,1-1V20c0-0.5-0.5-1-1-1h-4v-2c0-1.7,1.3-3,3-3h6v7c0,2.8,2.2,5,5,5h6c2.8,0,5-2.2,5-5v-7h6C47.7,14,49,15.3,49,17z
		 M40,47c0-3.6-2.4-6.6-5.6-7.6c1.5-0.8,2.6-2.5,2.6-4.4c0-2.8-2.2-5-5-5s-5,2.2-5,5c0,1.9,1.1,3.5,2.6,4.4c-3.2,1-5.6,4.1-5.6,7.6
		v3c0,0.5,0.5,1,1,1h14c0.5,0,1-0.5,1-1V47z M46,49h3V21h-3V49z M32,15c0.6,0,1-0.4,1-1s-0.4-1-1-1s-1,0.4-1,1S31.4,15,32,15z
		 M26,21V11c0-1.7,1.3-3,3-3h6c1.7,0,3,1.3,3,3v10c0,1.7-1.3,3-3,3h-6C27.3,24,26,22.7,26,21z M29,14c0,1.7,1.3,3,3,3s3-1.3,3-3
		s-1.3-3-3-3S29,12.3,29,14z"/>
</g>
<g id="Outline">
	<path d="M46,14h-8v-3c0-1.7-1.3-3-3-3h-6c-1.7,0-3,1.3-3,3v3h-8c-1.7,0-3,1.3-3,3v3v30v3c0,1.7,1.3,3,3,3h2c0.6,0,1-0.4,1-1
		s-0.4-1-1-1h-2c-0.6,0-1-0.4-1-1v-2h3c0.6,0,1-0.4,1-1V20c0-0.6-0.4-1-1-1h-3v-2c0-0.6,0.4-1,1-1h8v5c0,1.7,1.3,3,3,3h6
		c1.7,0,3-1.3,3-3v-5h8c0.6,0,1,0.4,1,1v2h-3c-0.6,0-1,0.4-1,1v3c0,0.6,0.4,1,1,1s1-0.4,1-1v-2h2v28h-2V26.5c0-0.6-0.4-1-1-1
		s-1,0.4-1,1V50c0,0.6,0.4,1,1,1h3v2c0,0.6-0.4,1-1,1H24.1c-0.6,0-1,0.4-1,1s0.4,1,1,1H46c1.7,0,3-1.3,3-3v-3V20v-3
		C49,15.3,47.7,14,46,14z M19,21v28h-2V21H19z M36,21c0,0.6-0.4,1-1,1h-6c-0.6,0-1-0.4-1-1V11c0-0.6,0.4-1,1-1h6c0.6,0,1,0.4,1,1V21
		z M32,13c-1.7,0-3,1.3-3,3s1.3,3,3,3s3-1.3,3-3S33.7,13,32,13z M32,17c-0.6,0-1-0.4-1-1s0.4-1,1-1s1,0.4,1,1S32.6,17,32,17z M24,45
		v3c0,0.6,0.4,1,1,1h14c0.6,0,1-0.4,1-1v-3c0-3.6-2.4-6.6-5.6-7.6c1.5-0.9,2.6-2.5,2.6-4.4c0-2.8-2.2-5-5-5s-5,2.2-5,5
		c0,1.9,1.1,3.5,2.6,4.4C26.4,38.4,24,41.4,24,45z M32,30c1.7,0,3,1.3,3,3s-1.3,3-3,3s-3-1.3-3-3S30.3,30,32,30z M32,39
		c3.3,0,6,2.7,6,6v2H26v-2C26,41.7,28.7,39,32,39z"/>
</g>
<g id="Animation_Glyph" class="st0">
	<g class="st1">
		<rect x="15" y="21" width="3" height="28"/>
		<circle cx="32" cy="35" r="3"/>
		<path d="M32,41c-3.3,0-6,2.7-6,6v2h12v-2C38,43.7,35.3,41,32,41z"/>
		<path d="M45,19h4v-2c0-1.7-1.3-3-3-3h-6v7c0,2.8-2.2,5-5,5h-6c-2.8,0-5-2.2-5-5v-7h-6c-1.7,0-3,1.3-3,3v2h4c0.5,0,1,0.5,1,1v30
			c0,0.5-0.5,1-1,1h-4v2c0,1.6,1.3,3,3,3h28c1.7,0,3-1.4,3-3v-2h-4c-0.5,0-1-0.5-1-1V20C44,19.5,44.5,19,45,19z M40,50
			c0,0.5-0.5,1-1,1H25c-0.5,0-1-0.5-1-1v-3c0-3.6,2.4-6.6,5.6-7.6C28.1,38.5,27,36.9,27,35c0-2.8,2.2-5,5-5s5,2.2,5,5
			c0,1.9-1.1,3.5-2.6,4.4c3.2,1,5.6,4.1,5.6,7.6V50z"/>
		<rect x="46" y="21" width="3" height="28"/>
	</g>
	<g class="st1">
		<circle cx="32" cy="14" r="1"/>
		<path d="M35,8h-6c-1.7,0-3,1.3-3,3v10c0,1.7,1.3,3,3,3h6c1.7,0,3-1.3,3-3V11C38,9.3,36.7,8,35,8z M32,17c-1.7,0-3-1.3-3-3
			s1.3-3,3-3s3,1.3,3,3S33.7,17,32,17z"/>
	</g>
</g>
<g id="Animation_Outline" class="st0">
	<path class="st2" d="M37,15h9c1.1,0,2,0.9,2,2v36c0,1.1-0.9,2-2,2H24.1"/>
	<path class="st2" d="M20,55h-2c-1.1,0-2-0.9-2-2V17c0-1.1,0.9-2,2-2h9"/>
	<path class="st2" d="M35,23h-6c-1.1,0-2-0.9-2-2V11c0-1.1,0.9-2,2-2h6c1.1,0,2,0.9,2,2v10C37,22.1,36.1,23,35,23z"/>
	<polyline class="st2" points="44,23 44,20 48,20 48,50 44,50 44,26.5 	"/>
	<rect x="16" y="20" class="st2" width="4" height="30"/>
	<circle class="st2" cx="32" cy="16" r="2"/>
	<circle class="st2" cx="32" cy="33" r="4"/>
	<path class="st2" d="M39,48H25v-3c0-3.9,3.1-7,7-7h0c3.9,0,7,3.1,7,7V48z"/>
</g>
</svg>
