<?xml version="1.0" encoding="utf-8"?>
<!-- Generator: Adobe Illustrator 27.9.5, SVG Export Plug-In . SVG Version: 9.03 Build 54986)  -->
<svg version="1.1" xmlns="http://www.w3.org/2000/svg" xmlns:xlink="http://www.w3.org/1999/xlink" x="0px" y="0px"
	 viewBox="0 0 64 64" style="enable-background:new 0 0 64 64;" xml:space="preserve">
<style type="text/css">
	.st0{display:none;}
	.st1{display:inline;}
	.st2{display:inline;fill:none;stroke:#000000;stroke-width:2;stroke-linecap:round;stroke-linejoin:round;stroke-miterlimit:10;}
	.st3{fill:none;stroke:#000000;stroke-width:2;stroke-linecap:round;stroke-linejoin:round;stroke-miterlimit:10;}
	.st4{display:inline;fill:#231F20;}
	
		.st5{display:inline;fill:#FFFFFF;stroke:#000000;stroke-width:2;stroke-linecap:round;stroke-linejoin:round;stroke-miterlimit:10;}
	.st6{stroke:#000000;stroke-width:2;stroke-linecap:round;stroke-linejoin:round;stroke-miterlimit:10;}
</style>
<g id="Layer_1" class="st0">
</g>
<g id="Basic" class="st0">
	<rect x="9" y="13" class="st2" width="46" height="10"/>
	<path class="st2" d="M50,55H14c-1.1,0-2-0.9-2-2V23h40v30C52,54.1,51.1,55,50,55z"/>
	<line class="st2" x1="32" y1="16" x2="32" y2="9"/>
	<line class="st2" x1="19" y1="16" x2="19" y2="9"/>
	<line class="st2" x1="45" y1="16" x2="45" y2="9"/>
	<circle class="st2" cx="32" cy="18" r="2"/>
	<circle class="st2" cx="19" cy="18" r="2"/>
	<circle class="st1" cx="41" cy="46" r="2"/>
	<circle class="st1" cx="23" cy="46" r="2"/>
	<circle class="st1" cx="41" cy="32" r="2"/>
	<circle class="st2" cx="45" cy="18" r="2"/>
	<rect x="18" y="27" class="st2" width="10" height="10"/>
	<rect x="36" y="27" class="st2" width="10" height="10"/>
	<rect x="18" y="41" class="st2" width="10" height="10"/>
	<rect x="36" y="41" class="st2" width="10" height="10"/>
	<polyline class="st2" points="21,31 22,34 30,30 	"/>
</g>
<g id="Glyph" class="st0">
	<path class="st1" d="M56,12v10c0,0.5-0.5,1-1,1H9c-0.5,0-1-0.5-1-1V12c0-0.5,0.5-1,1-1h9V8c0-0.6,0.4-1,1-1s1,0.4,1,1v9
		c0,0.6-0.4,1-1,1s-1-0.4-1-1v-2.8c-1.2,0.4-2,1.5-2,2.8c0,1.6,1.3,3,3,3s3-1.4,3-3c0-0.9-0.4-1.7-1-2.2V11h10V8c0-0.6,0.4-1,1-1
		s1,0.4,1,1v9c0,0.6-0.4,1-1,1s-1-0.4-1-1v-2.8c-1.2,0.4-2,1.5-2,2.8c0,1.6,1.3,3,3,3s3-1.4,3-3c0-0.9-0.4-1.7-1-2.2V11h10V8
		c0-0.6,0.4-1,1-1s1,0.4,1,1v9c0,0.6-0.4,1-1,1s-1-0.4-1-1v-2.8c-1.2,0.4-2,1.5-2,2.8c0,1.6,1.3,3,3,3s3-1.4,3-3
		c0-0.9-0.4-1.7-1-2.2V11h8C55.5,11,56,11.5,56,12z M45,52h-8v-8h8V52z M43,48c0-1.1-0.9-2-2-2s-2,0.9-2,2c0,1.1,0.9,2,2,2
		S43,49.1,43,48z M27,33.1l-4.4,3.6C22.5,36.9,22.2,37,22,37c-0.1,0-0.2,0-0.3,0c-0.3-0.1-0.6-0.3-0.7-0.6l-1-3
		c-0.2-0.5,0.1-1.1,0.6-1.3c0.5-0.2,1.1,0.1,1.3,0.6l0.5,1.6l4.5-3.8V30h-8v8h8V33.1z M45,38h-8v-8h8V38z M43,34c0-1.1-0.9-2-2-2
		s-2,0.9-2,2c0,1.1,0.9,2,2,2S43,35.1,43,34z M27,52h-8v-8h8V52z M25,48c0-1.1-0.9-2-2-2s-2,0.9-2,2c0,1.1,0.9,2,2,2S25,49.1,25,48z
		 M11,25h42v29c0,1.6-1.3,3-3,3H14c-1.7,0-3-1.4-3-3V25z M35,39c0,0.6,0.4,1,1,1h10c0.6,0,1-0.4,1-1V29c0-0.6-0.4-1-1-1H36
		c-0.6,0-1,0.4-1,1V39z M35,53c0,0.6,0.4,1,1,1h10c0.6,0,1-0.4,1-1V43c0-0.6-0.4-1-1-1H36c-0.6,0-1,0.4-1,1V53z M17,39
		c0,0.6,0.4,1,1,1h10c0.6,0,1-0.4,1-1V29c0-0.6-0.4-1-1-1H18c-0.6,0-1,0.4-1,1V39z M17,53c0,0.6,0.4,1,1,1h10c0.6,0,1-0.4,1-1V43
		c0-0.6-0.4-1-1-1H18c-0.6,0-1,0.4-1,1V53z"/>
</g>
<g id="Outline">
	<path d="M55,12h-9V9c0-0.6-0.4-1-1-1s-1,0.4-1,1v3H33V9c0-0.6-0.4-1-1-1s-1,0.4-1,1v3H20V9c0-0.6-0.4-1-1-1s-1,0.4-1,1v3H9
		c-0.6,0-1,0.4-1,1v10c0,0.6,0.4,1,1,1h2v13c0,0.6,0.4,1,1,1s1-0.4,1-1V24h39h3c0.6,0,1-0.4,1-1V13C56,12.4,55.6,12,55,12z M54,22
		h-2H12h-2v-8h8v1.2c-1.2,0.4-2,1.5-2,2.8c0,1.7,1.3,3,3,3s3-1.3,3-3c0-1.3-0.8-2.4-2-2.8V14h11v1.2c-1.2,0.4-2,1.5-2,2.8
		c0,1.7,1.3,3,3,3s3-1.3,3-3c0-1.3-0.8-2.4-2-2.8V14h11v1.2c-1.2,0.4-2,1.5-2,2.8c0,1.7,1.3,3,3,3s3-1.3,3-3c0-1.3-0.8-2.4-2-2.8V14
		h8V22z M19,17c0.6,0,1,0.4,1,1s-0.4,1-1,1s-1-0.4-1-1S18.4,17,19,17z M32,17c0.6,0,1,0.4,1,1s-0.4,1-1,1s-1-0.4-1-1S31.4,17,32,17z
		 M45,17c0.6,0,1,0.4,1,1s-0.4,1-1,1s-1-0.4-1-1S44.4,17,45,17z M53,27v26c0,1.7-1.3,3-3,3H14c-1.7,0-3-1.3-3-3V40.8
		c0-0.6,0.4-1,1-1s1,0.4,1,1V53c0,0.6,0.4,1,1,1h36c0.6,0,1-0.4,1-1V27c0-0.6,0.4-1,1-1S53,26.4,53,27z M43,46c0,1.1-0.9,2-2,2
		s-2-0.9-2-2c0-1.1,0.9-2,2-2S43,44.9,43,46z M25,46c0,1.1-0.9,2-2,2s-2-0.9-2-2c0-1.1,0.9-2,2-2S25,44.9,25,46z M43,32
		c0,1.1-0.9,2-2,2s-2-0.9-2-2c0-1.1,0.9-2,2-2S43,30.9,43,32z M29,27c0,0.6-0.4,1-1,1h-9v8h8v-2c0-0.6,0.4-1,1-1s1,0.4,1,1v3
		c0,0.6-0.4,1-1,1H18c-0.6,0-1-0.4-1-1V27c0-0.6,0.4-1,1-1h10C28.6,26,29,26.4,29,27z M36,38h10c0.6,0,1-0.4,1-1V27c0-0.6-0.4-1-1-1
		H36c-0.6,0-1,0.4-1,1v10C35,37.6,35.4,38,36,38z M37,28h8v8h-8V28z M17,51c0,0.6,0.4,1,1,1h10c0.6,0,1-0.4,1-1V41c0-0.6-0.4-1-1-1
		H18c-0.6,0-1,0.4-1,1V51z M19,42h8v8h-8V42z M35,51c0,0.6,0.4,1,1,1h10c0.6,0,1-0.4,1-1V41c0-0.6-0.4-1-1-1H36c-0.6,0-1,0.4-1,1V51
		z M37,42h8v8h-8V42z M28.8,29.4c0.3,0.4,0.3,1.1-0.2,1.4l-5,4C23.4,34.9,23.2,35,23,35c-0.1,0-0.1,0-0.2,0c-0.3,0-0.5-0.2-0.7-0.4
		l-2-3c-0.3-0.5-0.2-1.1,0.3-1.4c0.5-0.3,1.1-0.2,1.4,0.3l1.4,2.1l4.1-3.3C27.8,28.9,28.4,28.9,28.8,29.4z"/>
</g>
<g id="Animation_Glyph" class="st0">
	<g class="st1">
		<circle cx="19" cy="17" r="1"/>
		<circle cx="45" cy="17" r="1"/>
		<circle cx="32" cy="17" r="1"/>
		<path d="M55,11h-8v3.8c0.6,0.5,1,1.3,1,2.2c0,1.6-1.3,3-3,3s-3-1.4-3-3c0-1.3,0.8-2.4,2-2.8V11H34v3.8c0.6,0.5,1,1.3,1,2.2
			c0,1.6-1.3,3-3,3s-3-1.4-3-3c0-1.3,0.8-2.4,2-2.8V11H21v3.8c0.6,0.5,1,1.3,1,2.2c0,1.6-1.3,3-3,3s-3-1.4-3-3c0-1.3,0.8-2.4,2-2.8
			V11H9c-0.5,0-1,0.5-1,1v10c0,0.5,0.5,1,1,1h46c0.5,0,1-0.5,1-1V12C56,11.5,55.5,11,55,11z"/>
	</g>
	<g class="st1">
		<path d="M37,52h8v-8h-8V52z M41,46c1.1,0,2,0.9,2,2c0,1.1-0.9,2-2,2s-2-0.9-2-2C39,46.9,39.9,46,41,46z"/>
		<path d="M22.6,36.8C22.5,36.9,22.2,37,22,37c-0.1,0-0.2,0-0.3,0c-0.3-0.1-0.6-0.3-0.7-0.6l-1-3c-0.2-0.5,0.1-1.1,0.6-1.3
			c0.5-0.2,1.1,0.1,1.3,0.6l0.5,1.6l4.5-3.8V30h-8v8h8v-4.9L22.6,36.8z"/>
		<path d="M37,38h8v-8h-8V38z M41,32c1.1,0,2,0.9,2,2c0,1.1-0.9,2-2,2s-2-0.9-2-2C39,32.9,39.9,32,41,32z"/>
		<path d="M19,52h8v-8h-8V52z M23,46c1.1,0,2,0.9,2,2c0,1.1-0.9,2-2,2s-2-0.9-2-2C21,46.9,21.9,46,23,46z"/>
		<path d="M11,25v29c0,1.6,1.3,3,3,3h36c1.7,0,3-1.4,3-3V25H11z M29,53c0,0.6-0.4,1-1,1H18c-0.6,0-1-0.4-1-1V43c0-0.6,0.4-1,1-1h10
			c0.6,0,1,0.4,1,1V53z M29,39c0,0.6-0.4,1-1,1H18c-0.6,0-1-0.4-1-1V29c0-0.6,0.4-1,1-1h10c0.6,0,1,0.4,1,1V39z M47,53
			c0,0.6-0.4,1-1,1H36c-0.6,0-1-0.4-1-1V43c0-0.6,0.4-1,1-1h10c0.6,0,1,0.4,1,1V53z M47,39c0,0.6-0.4,1-1,1H36c-0.6,0-1-0.4-1-1V29
			c0-0.6,0.4-1,1-1h10c0.6,0,1,0.4,1,1V39z"/>
	</g>
	<g class="st1">
		<path d="M32,18c-0.6,0-1-0.4-1-1V8c0-0.6,0.4-1,1-1s1,0.4,1,1v9C33,17.6,32.6,18,32,18z"/>
	</g>
	<g class="st1">
		<path d="M19,18c-0.6,0-1-0.4-1-1V8c0-0.6,0.4-1,1-1s1,0.4,1,1v9C20,17.6,19.6,18,19,18z"/>
	</g>
	<g class="st1">
		<path d="M45,18c-0.6,0-1-0.4-1-1V8c0-0.6,0.4-1,1-1s1,0.4,1,1v9C46,17.6,45.6,18,45,18z"/>
	</g>
</g>
<g id="Animation_Outline" class="st0">
	<rect x="9" y="13" class="st2" width="46" height="10"/>
	<polyline class="st2" points="12,27.3 12,23 52,23 52,45.8 	"/>
	<path class="st2" d="M52,49.1V53c0,1.1-0.9,2-2,2H14c-1.1,0-2-0.9-2-2V30.9"/>
	<line class="st2" x1="32" y1="16" x2="32" y2="9"/>
	<line class="st2" x1="19" y1="16" x2="19" y2="9"/>
	<line class="st2" x1="45" y1="16" x2="45" y2="9"/>
	<circle class="st2" cx="32" cy="18" r="2"/>
	<circle class="st2" cx="19" cy="18" r="2"/>
	<circle class="st1" cx="41" cy="46" r="2"/>
	<circle class="st1" cx="23" cy="46" r="2"/>
	<circle class="st1" cx="41" cy="32" r="2"/>
	<circle class="st2" cx="45" cy="18" r="2"/>
	<rect x="18" y="27" class="st2" width="10" height="10"/>
	<rect x="36" y="27" class="st2" width="10" height="10"/>
	<rect x="18" y="41" class="st2" width="10" height="10"/>
	<rect x="36" y="41" class="st2" width="10" height="10"/>
	<polyline class="st2" points="21,31 22,34 30,30 	"/>
</g>
</svg>
