<?xml version="1.0" encoding="utf-8"?>
<!-- Generator: Adobe Illustrator 27.9.5, SVG Export Plug-In . SVG Version: 9.03 Build 54986)  -->
<svg version="1.1" xmlns="http://www.w3.org/2000/svg" xmlns:xlink="http://www.w3.org/1999/xlink" x="0px" y="0px"
	 viewBox="0 0 64 64" style="enable-background:new 0 0 64 64;" xml:space="preserve">
<style type="text/css">
	.st0{display:none;}
	.st1{display:inline;}
	.st2{display:inline;fill:none;stroke:#000000;stroke-width:2;stroke-linecap:round;stroke-linejoin:round;stroke-miterlimit:10;}
	.st3{fill:none;stroke:#000000;stroke-width:2;stroke-linecap:round;stroke-linejoin:round;stroke-miterlimit:10;}
	.st4{display:inline;fill:#231F20;}
	
		.st5{display:inline;fill:#FFFFFF;stroke:#000000;stroke-width:2;stroke-linecap:round;stroke-linejoin:round;stroke-miterlimit:10;}
	.st6{stroke:#000000;stroke-width:2;stroke-linecap:round;stroke-linejoin:round;stroke-miterlimit:10;}
</style>
<g id="Layer_1" class="st0">
</g>
<g id="Basic" class="st0">
	<path class="st2" d="M30,55H8V9h22v8h7c2.2,0,4,1.8,4,4v0c0,2.2-1.8,4-4,4h-7v10h-3c-4.4,0-8,3.6-8,8v0c0,4.4,3.6,8,8,8h3V55z"/>
	<path class="st2" d="M56,55H34v-8h-7c-2.2,0-4-1.8-4-4v0c0-2.2,1.8-4,4-4h7V29h3c4.4,0,8-3.6,8-8v0c0-4.4-3.6-8-8-8h-3V9h22V55z"/>
	<circle class="st2" cx="19" cy="16" r="3"/>
	<path class="st2" d="M24,26H14v-1c0-2.8,2.2-5,5-5h0c2.8,0,5,2.2,5,5V26z"/>
	<line class="st2" x1="14" y1="30" x2="24" y2="30"/>
	<line class="st2" x1="14" y1="33" x2="20" y2="33"/>
	<rect x="45" y="34" class="st2" width="11" height="17"/>
</g>
<g id="Glyph" class="st0">
	<path class="st1" d="M23,25h-8c0-2.2,1.8-4,4-4S23,22.8,23,25z M19,18c1.1,0,2-0.9,2-2s-0.9-2-2-2s-2,0.9-2,2S17.9,18,19,18z
		 M31,51v4c0,0.6-0.4,1-1,1H8c-0.6,0-1-0.4-1-1V9c0-0.6,0.4-1,1-1h22c0.6,0,1,0.4,1,1v7h6c2.8,0,5,2.2,5,5s-2.2,5-5,5h-6v9
		c0,0.6-0.4,1-1,1h-3c-3.9,0-7,3.1-7,7s3.1,7,7,7h3C30.6,50,31,50.4,31,51z M13,26c0,0.6,0.4,1,1,1h10c0.6,0,1-0.4,1-1v-1
		c0-2.6-1.6-4.8-3.9-5.6c1.1-0.7,1.9-2,1.9-3.4c0-2.2-1.8-4-4-4s-4,1.8-4,4c0,1.4,0.8,2.7,1.9,3.4c-2.3,0.9-3.9,3-3.9,5.6V26z
		 M13,30c0,0.6,0.4,1,1,1h10c0.6,0,1-0.4,1-1s-0.4-1-1-1H14C13.4,29,13,29.4,13,30z M14,34h6c0.6,0,1-0.4,1-1c0-0.6-0.4-1-1-1h-6
		c-0.6,0-1,0.4-1,1C13,33.6,13.4,34,14,34z M56,8H34c-0.6,0-1,0.4-1,1v4c0,0.6,0.4,1,1,1h3c3.9,0,7,3.1,7,7s-3.1,7-7,7h-3
		c-0.6,0-1,0.4-1,1v9h-6c-2.8,0-5,2.2-5,5s2.2,5,5,5h6v7c0,0.6,0.4,1,1,1h22c0.6,0,1-0.4,1-1v-3H45c-0.6,0-1-0.4-1-1V34
		c0-0.6,0.4-1,1-1h12V9C57,8.4,56.6,8,56,8z M46,50h11V35H46V50z"/>
</g>
<g id="Outline">
	<path d="M31,51v4c0,0.6-0.4,1-1,1H8c-0.6,0-1-0.4-1-1v-6c0-0.6,0.4-1,1-1s1,0.4,1,1v5h20v-2h-2c-5,0-9-4-9-9s4-9,9-9h2v-9
		c0-0.6,0.4-1,1-1h7c1.7,0,3-1.3,3-3s-1.3-3-3-3h-7c-0.6,0-1-0.4-1-1v-7H9v35c0,0.6-0.4,1-1,1s-1-0.4-1-1V9c0-0.6,0.4-1,1-1h22
		c0.6,0,1,0.4,1,1v7h6c2.8,0,5,2.2,5,5s-2.2,5-5,5h-6v9c0,0.6-0.4,1-1,1h-3c-3.9,0-7,3.1-7,7s3.1,7,7,7h3C30.6,50,31,50.4,31,51z
		 M55,16.6V10H35v2h2c5,0,9,4,9,9s-4,9-9,9h-2v9c0,0.6-0.4,1-1,1h-7c-1.7,0-3,1.3-3,3s1.3,3,3,3h7c0.6,0,1,0.4,1,1v7h20v-2H45
		c-0.6,0-1-0.4-1-1V34c0-0.6,0.4-1,1-1h10V21c0-0.6,0.4-1,1-1s1,0.4,1,1v13v17v4c0,0.6-0.4,1-1,1H34c-0.6,0-1-0.4-1-1v-7h-6
		c-2.8,0-5-2.2-5-5s2.2-5,5-5h6v-9c0-0.6,0.4-1,1-1h3c3.9,0,7-3.1,7-7s-3.1-7-7-7h-3c-0.6,0-1-0.4-1-1V9c0-0.6,0.4-1,1-1h22
		c0.6,0,1,0.4,1,1v7.6c0,0.6-0.4,1-1,1S55,17.2,55,16.6z M55,50V35h-9v15H55z M16.9,19.4c-1.1-0.7-1.9-2-1.9-3.4c0-2.2,1.8-4,4-4
		s4,1.8,4,4c0,1.4-0.8,2.7-1.9,3.4c2.3,0.9,3.9,3,3.9,5.6v1c0,0.6-0.4,1-1,1H14c-0.6,0-1-0.4-1-1v-1C13,22.4,14.6,20.2,16.9,19.4z
		 M17,16c0,1.1,0.9,2,2,2s2-0.9,2-2s-0.9-2-2-2S17,14.9,17,16z M15,25h8c0-2.2-1.8-4-4-4S15,22.8,15,25z M14,31h10c0.6,0,1-0.4,1-1
		s-0.4-1-1-1H14c-0.6,0-1,0.4-1,1S13.4,31,14,31z M14,34h6c0.6,0,1-0.4,1-1c0-0.6-0.4-1-1-1h-6c-0.6,0-1,0.4-1,1
		C13,33.6,13.4,34,14,34z"/>
</g>
<g id="Animation_Glyph" class="st0">
	<g class="st1">
		<path d="M19,21c-2.2,0-4,1.8-4,4h8C23,22.8,21.2,21,19,21z"/>
		<circle cx="19" cy="16" r="2"/>
		<path d="M37,16h-6V9c0-0.6-0.4-1-1-1H8C7.4,8,7,8.4,7,9v46c0,0.6,0.4,1,1,1h22c0.6,0,1-0.4,1-1v-4c0-0.6-0.4-1-1-1h-3
			c-3.9,0-7-3.1-7-7s3.1-7,7-7h3c0.6,0,1-0.4,1-1v-9h6c2.8,0,5-2.2,5-5S39.8,16,37,16z M20,34h-6c-0.6,0-1-0.4-1-1c0-0.6,0.4-1,1-1
			h6c0.6,0,1,0.4,1,1C21,33.6,20.6,34,20,34z M24,31H14c-0.6,0-1-0.4-1-1s0.4-1,1-1h10c0.6,0,1,0.4,1,1S24.6,31,24,31z M25,26
			c0,0.6-0.4,1-1,1H14c-0.6,0-1-0.4-1-1v-1c0-2.6,1.6-4.8,3.9-5.6c-1.1-0.7-1.9-2-1.9-3.4c0-2.2,1.8-4,4-4s4,1.8,4,4
			c0,1.4-0.8,2.7-1.9,3.4c2.3,0.9,3.9,3,3.9,5.6V26z"/>
	</g>
	<g class="st1">
		<path d="M45,52c-0.6,0-1-0.4-1-1V34c0-0.6,0.4-1,1-1h12V9c0-0.6-0.4-1-1-1H34c-0.6,0-1,0.4-1,1v4c0,0.6,0.4,1,1,1h3
			c3.9,0,7,3.1,7,7s-3.1,7-7,7h-3c-0.6,0-1,0.4-1,1v9h-6c-2.8,0-5,2.2-5,5s2.2,5,5,5h6v7c0,0.6,0.4,1,1,1h22c0.6,0,1-0.4,1-1v-3H45z
			"/>
		<rect x="46" y="35" width="11" height="15"/>
	</g>
</g>
<g id="Animation_Outline" class="st0">
	<path class="st2" d="M8,46V9h22v8h7c2.2,0,4,1.8,4,4v0c0,2.2-1.8,4-4,4h-7v10h-3c-4.4,0-8,3.6-8,8v0c0,4.4,3.6,8,8,8h3v4H8v-6"/>
	<path class="st2" d="M56,20v35H34v-8h-7c-2.2,0-4-1.8-4-4v0c0-2.2,1.8-4,4-4h7V29h3c4.4,0,8-3.6,8-8v0c0-4.4-3.6-8-8-8h-3V9h22v7.6
		"/>
	<circle class="st2" cx="19" cy="16" r="3"/>
	<path class="st2" d="M24,26H14v-1c0-2.8,2.2-5,5-5h0c2.8,0,5,2.2,5,5V26z"/>
	<line class="st2" x1="14" y1="30" x2="24" y2="30"/>
	<line class="st2" x1="14" y1="33" x2="20" y2="33"/>
	<rect x="45" y="34" class="st2" width="11" height="17"/>
</g>
</svg>
