<?xml version="1.0" encoding="utf-8"?>
<!-- Generator: Adobe Illustrator 27.9.5, SVG Export Plug-In . SVG Version: 9.03 Build 54986)  -->
<svg version="1.1" xmlns="http://www.w3.org/2000/svg" xmlns:xlink="http://www.w3.org/1999/xlink" x="0px" y="0px"
	 viewBox="0 0 64 64" style="enable-background:new 0 0 64 64;" xml:space="preserve">
<style type="text/css">
	.st0{display:none;}
	.st1{display:inline;}
	.st2{display:inline;fill:none;stroke:#000000;stroke-width:2;stroke-linecap:round;stroke-linejoin:round;stroke-miterlimit:10;}
	.st3{fill:none;stroke:#000000;stroke-width:2;stroke-linecap:round;stroke-linejoin:round;stroke-miterlimit:10;}
	.st4{display:inline;fill:#231F20;}
	
		.st5{display:inline;fill:#FFFFFF;stroke:#000000;stroke-width:2;stroke-linecap:round;stroke-linejoin:round;stroke-miterlimit:10;}
	.st6{stroke:#000000;stroke-width:2;stroke-linecap:round;stroke-linejoin:round;stroke-miterlimit:10;}
</style>
<g id="Layer_1" class="st0">
</g>
<g id="Basic" class="st0">
	<circle class="st2" cx="19" cy="46" r="10"/>
	<line class="st2" x1="19" y1="42" x2="19" y2="41"/>
	<line class="st2" x1="19" y1="51" x2="19" y2="50"/>
	<path class="st2" d="M21,44L21,44c0-1.1-0.9-2-2-2h0c-1.1,0-2,0.9-2,2v0c0,1.1,0.9,2,2,2h0c1.1,0,2,0.9,2,2v0c0,1.1-0.9,2-2,2h0
		c-1.1,0-2-0.9-2-2v0"/>
	<path class="st2" d="M53,55H21c-1.1,0-2-0.9-2-2V16c0-1.1,0.9-2,2-2h32c1.1,0,2,0.9,2,2v37C55,54.1,54.1,55,53,55z"/>
	<path class="st2" d="M51,43V20c0-1.1-0.9-2-2-2H25c-1.1,0-2,0.9-2,2v29c0,1.1,0.9,2,2,2h18L51,43z"/>
	<path class="st2" d="M45,20H29v-8h4v0c0-2.2,1.8-4,4-4h0c2.2,0,4,1.8,4,4v0h4V20z"/>
	<polygon class="st2" points="51,43 43,43 43,51 	"/>
	<line class="st2" x1="36" y1="26" x2="46" y2="26"/>
	<line class="st2" x1="40" y1="29" x2="46" y2="29"/>
	<line class="st2" x1="30" y1="35" x2="46" y2="35"/>
	<line class="st2" x1="35" y1="38" x2="46" y2="38"/>
	<circle class="st1" cx="37" cy="12" r="1"/>
</g>
<g id="Glyph" class="st0">
	<path class="st1" d="M19,35c-6.1,0-11,4.9-11,11s4.9,11,11,11s11-4.9,11-11S25.1,35,19,35z M19,45c1.7,0,3,1.3,3,3
		c0,1.3-0.8,2.4-2,2.8V51c0,0.6-0.4,1-1,1s-1-0.4-1-1v-0.2c-1.2-0.4-2-1.5-2-2.8c0-0.6,0.4-1,1-1s1,0.4,1,1c0,0.6,0.4,1,1,1
		s1-0.4,1-1s-0.4-1-1-1c-1.7,0-3-1.3-3-3c0-1.3,0.8-2.4,2-2.8V41c0-0.6,0.4-1,1-1s1,0.4,1,1v0.2c1.2,0.4,2,1.5,2,2.8
		c0,0.6-0.4,1-1,1s-1-0.4-1-1c0-0.6-0.4-1-1-1s-1,0.4-1,1S18.4,45,19,45z M19,33c-0.3,0-0.7,0-1,0V16c0-1.7,1.3-3,3-3h5v4h-1
		c-1.7,0-3,1.3-3,3v13.4C21,33.1,20,33,19,33z M26,19h-1c-0.6,0-1,0.4-1,1v14c4.7,2,8,6.6,8,12c0,1.4-0.2,2.7-0.6,4H42v-7
		c0-0.6,0.4-1,1-1h7V20c0-0.6-0.4-1-1-1h-1v1c0,1.6-1.3,3-3,3H29c-1.7,0-3-1.4-3-3V19z M46,39h-9c-0.6,0-1-0.4-1-1s0.4-1,1-1h9
		c0.6,0,1,0.4,1,1S46.6,39,46,39z M36,26h10c0.6,0,1,0.4,1,1s-0.4,1-1,1H36c-0.6,0-1-0.4-1-1S35.4,26,36,26z M47,30c0,0.6-0.4,1-1,1
		h-6c-0.6,0-1-0.4-1-1s0.4-1,1-1h6C46.6,29,47,29.4,47,30z M33,34h13c0.6,0,1,0.4,1,1s-0.4,1-1,1H33c-0.6,0-1-0.4-1-1S32.4,34,33,34
		z M44,48.6V44h4.6L44,48.6z M56,16v37c0,1.6-1.3,3-3,3H27.3c1.3-1.1,2.4-2.5,3.2-4H43c0.1,0,0.3,0,0.4-0.1c0.1,0,0.2-0.1,0.3-0.2
		l8-8c0.1-0.1,0.1-0.2,0.2-0.3c0,0,0-0.1,0-0.1c0-0.1,0-0.2,0.1-0.3c0,0,0,0,0-0.1V20c0-1.7-1.3-3-3-3h-1v-4h5
		C54.7,13,56,14.3,56,16z M29,21h16c0.6,0,1-0.4,1-1v-8c0-0.6-0.4-1-1-1h-3.1c-0.5-2.3-2.5-4-4.9-4s-4.4,1.7-4.9,4H29
		c-0.6,0-1,0.4-1,1v8C28,20.6,28.4,21,29,21z M37,11c0.6,0,1,0.4,1,1c0,0.6-0.4,1-1,1s-1-0.4-1-1C36,11.4,36.4,11,37,11z"/>
</g>
<g id="Outline">
	<path d="M18,44c0,0.6,0.4,1,1,1c1.7,0,3,1.3,3,3c0,1.3-0.8,2.4-2,2.8V51c0,0.6-0.4,1-1,1s-1-0.4-1-1v-0.2c-1.2-0.4-2-1.5-2-2.8
		c0-0.6,0.4-1,1-1s1,0.4,1,1c0,0.6,0.4,1,1,1s1-0.4,1-1s-0.4-1-1-1c-1.7,0-3-1.3-3-3c0-1.3,0.8-2.4,2-2.8V41c0-0.6,0.4-1,1-1
		s1,0.4,1,1v0.2c1.2,0.4,2,1.5,2,2.8c0,0.6-0.4,1-1,1s-1-0.4-1-1c0-0.6-0.4-1-1-1S18,43.4,18,44z M56,16v37c0,1.7-1.3,3-3,3H23.6
		c-1.4,0.6-2.9,1-4.6,1c-6.1,0-11-4.9-11-11s4.9-11,11-11c1,0,2,0.2,3,0.4V20c0-1.7,1.3-3,3-3h3v-2h-7c-0.6,0-1,0.4-1,1v16
		c0,0.6-0.4,1-1,1s-1-0.4-1-1V16c0-1.7,1.3-3,3-3h7v-1c0-0.6,0.4-1,1-1h3.1c0.5-2.3,2.5-4,4.9-4s4.4,1.7,4.9,4H45c0.6,0,1,0.4,1,1v5
		h3c1.7,0,3,1.3,3,3v23c0,0,0,0,0,0.1c0,0.1,0,0.2-0.1,0.3c0,0,0,0.1,0,0.1c0,0.1-0.1,0.2-0.2,0.3l-8,8c-0.1,0.1-0.2,0.2-0.3,0.2
		C43.3,52,43.1,52,43,52H28.2c-0.5,0.7-1,1.4-1.7,2H53c0.6,0,1-0.4,1-1V16c0-0.6-0.4-1-1-1h-5c-0.6,0-1-0.4-1-1s0.4-1,1-1h5
		C54.7,13,56,14.3,56,16z M48.6,44H44v4.6L48.6,44z M30,19h14v-6h-3c-0.6,0-1-0.4-1-1c0-1.7-1.3-3-3-3s-3,1.3-3,3c0,0.6-0.4,1-1,1
		h-3V19z M24,36.2c3.6,1.8,6,5.5,6,9.8c0,1.4-0.3,2.8-0.8,4H42v-7c0-0.6,0.4-1,1-1h7V20c0-0.6-0.4-1-1-1h-3v1c0,0.6-0.4,1-1,1H29
		c-0.6,0-1-0.4-1-1v-1h-3c-0.6,0-1,0.4-1,1V36.2z M19,55c5,0,9-4,9-9s-4-9-9-9s-9,4-9,9S14,55,19,55z M36,27h10c0.6,0,1-0.4,1-1
		s-0.4-1-1-1H36c-0.6,0-1,0.4-1,1S35.4,27,36,27z M46,28h-6c-0.6,0-1,0.4-1,1s0.4,1,1,1h6c0.6,0,1-0.4,1-1S46.6,28,46,28z M30,36h16
		c0.6,0,1-0.4,1-1s-0.4-1-1-1H30c-0.6,0-1,0.4-1,1S29.4,36,30,36z M46,37H35c-0.6,0-1,0.4-1,1s0.4,1,1,1h11c0.6,0,1-0.4,1-1
		S46.6,37,46,37z M37,13c0.6,0,1-0.4,1-1c0-0.6-0.4-1-1-1s-1,0.4-1,1C36,12.6,36.4,13,37,13z"/>
</g>
<g id="Animation_Glyph" class="st0">
	<path class="st1" d="M19,35c-6.1,0-11,4.9-11,11s4.9,11,11,11s11-4.9,11-11S25.1,35,19,35z M19,45c1.7,0,3,1.3,3,3
		c0,1.3-0.8,2.4-2,2.8V51c0,0.6-0.4,1-1,1s-1-0.4-1-1v-0.2c-1.2-0.4-2-1.5-2-2.8c0-0.6,0.4-1,1-1s1,0.4,1,1c0,0.6,0.4,1,1,1
		s1-0.4,1-1s-0.4-1-1-1c-1.7,0-3-1.3-3-3c0-1.3,0.8-2.4,2-2.8V41c0-0.6,0.4-1,1-1s1,0.4,1,1v0.2c1.2,0.4,2,1.5,2,2.8
		c0,0.6-0.4,1-1,1s-1-0.4-1-1c0-0.6-0.4-1-1-1s-1,0.4-1,1S18.4,45,19,45z"/>
	<g class="st1">
		<path d="M22,20c0-1.7,1.3-3,3-3h1v-4h-5c-1.7,0-3,1.3-3,3v17c0.3,0,0.7,0,1,0c1,0,2,0.1,3,0.4V20z"/>
		<path d="M25,19c-0.6,0-1,0.4-1,1v14c4.7,2,8,6.6,8,12c0,1.4-0.2,2.7-0.6,4H42v-7c0-0.6,0.4-1,1-1h7V20c0-0.6-0.4-1-1-1h-1v1
			c0,1.6-1.3,3-3,3H29c-1.7,0-3-1.4-3-3v-1H25z M46,39h-9c-0.6,0-1-0.4-1-1s0.4-1,1-1h9c0.6,0,1,0.4,1,1S46.6,39,46,39z M36,26h10
			c0.6,0,1,0.4,1,1s-0.4,1-1,1H36c-0.6,0-1-0.4-1-1S35.4,26,36,26z M47,30c0,0.6-0.4,1-1,1h-6c-0.6,0-1-0.4-1-1s0.4-1,1-1h6
			C46.6,29,47,29.4,47,30z M33,34h13c0.6,0,1,0.4,1,1s-0.4,1-1,1H33c-0.6,0-1-0.4-1-1S32.4,34,33,34z"/>
		<polygon points="48.6,44 44,44 44,48.6 		"/>
		<path d="M53,13h-5v4h1c1.7,0,3,1.3,3,3v23c0,0,0,0,0,0.1c0,0.1,0,0.2-0.1,0.3c0,0,0,0.1,0,0.1c0,0.1-0.1,0.2-0.2,0.3l-8,8
			c-0.1,0.1-0.2,0.2-0.3,0.2C43.3,52,43.1,52,43,52H30.5c-0.8,1.5-1.9,2.9-3.2,4H53c1.7,0,3-1.4,3-3V16C56,14.3,54.7,13,53,13z"/>
	</g>
	<path class="st1" d="M45,11h-3.1c-0.5-2.3-2.5-4-4.9-4s-4.4,1.7-4.9,4H29c-0.6,0-1,0.4-1,1v8c0,0.6,0.4,1,1,1h16c0.6,0,1-0.4,1-1
		v-8C46,11.4,45.6,11,45,11z M37,13c-0.6,0-1-0.4-1-1c0-0.6,0.4-1,1-1s1,0.4,1,1C38,12.6,37.6,13,37,13z"/>
</g>
<g id="Animation_Outline" class="st0">
	<circle class="st2" cx="19" cy="46" r="10"/>
	<line class="st2" x1="19" y1="42" x2="19" y2="41"/>
	<line class="st2" x1="19" y1="51" x2="19" y2="50"/>
	<path class="st2" d="M21,44L21,44c0-1.1-0.9-2-2-2h0c-1.1,0-2,0.9-2,2v0c0,1.1,0.9,2,2,2h0c1.1,0,2,0.9,2,2v0c0,1.1-0.9,2-2,2h0
		c-1.1,0-2-0.9-2-2v0"/>
	<path class="st2" d="M19,33V16c0-1.1,0.9-2,2-2h8"/>
	<path class="st2" d="M48,14h5c1.1,0,2,0.9,2,2v37c0,1.1-0.9,2-2,2H23.4"/>
	<path class="st2" d="M45,18h4c1.1,0,2,0.9,2,2v23l-8,8H27.7"/>
	<path class="st2" d="M23,36.8V20c0-1.1,0.9-2,2-2h4"/>
	<path class="st2" d="M45,20H29v-8h4v0c0-2.2,1.8-4,4-4h0c2.2,0,4,1.8,4,4v0h4V20z"/>
	<polygon class="st2" points="51,43 43,43 43,51 	"/>
	<line class="st2" x1="36" y1="26" x2="46" y2="26"/>
	<line class="st2" x1="40" y1="29" x2="46" y2="29"/>
	<line class="st2" x1="30" y1="35" x2="46" y2="35"/>
	<line class="st2" x1="35" y1="38" x2="46" y2="38"/>
	<circle class="st1" cx="37" cy="12" r="1"/>
</g>
</svg>
