<?xml version="1.0" encoding="utf-8"?>
<!-- Generator: Adobe Illustrator 27.9.5, SVG Export Plug-In . SVG Version: 9.03 Build 54986)  -->
<svg version="1.1" xmlns="http://www.w3.org/2000/svg" xmlns:xlink="http://www.w3.org/1999/xlink" x="0px" y="0px"
	 viewBox="0 0 64 64" style="enable-background:new 0 0 64 64;" xml:space="preserve">
<style type="text/css">
	.st0{display:none;}
	.st1{display:inline;}
	.st2{display:inline;fill:none;stroke:#000000;stroke-width:2;stroke-linecap:round;stroke-linejoin:round;stroke-miterlimit:10;}
	.st3{fill:none;stroke:#000000;stroke-width:2;stroke-linecap:round;stroke-linejoin:round;stroke-miterlimit:10;}
	.st4{display:inline;fill:#231F20;}
	
		.st5{display:inline;fill:#FFFFFF;stroke:#000000;stroke-width:2;stroke-linecap:round;stroke-linejoin:round;stroke-miterlimit:10;}
	.st6{stroke:#000000;stroke-width:2;stroke-linecap:round;stroke-linejoin:round;stroke-miterlimit:10;}
</style>
<g id="Layer_1" class="st0">
</g>
<g id="Basic" class="st0">
	<rect x="11" y="14" class="st2" width="42" height="26"/>
	<rect x="8" y="9" class="st2" width="48" height="5"/>
	<rect x="8" y="40" class="st2" width="48" height="5"/>
	<rect x="35" y="32" class="st2" width="18" height="4"/>
	<line class="st2" x1="32" y1="49" x2="32" y2="45"/>
	<circle class="st2" cx="23" cy="27" r="8"/>
	<line class="st2" x1="35" y1="20" x2="43" y2="20"/>
	<line class="st2" x1="47" y1="20" x2="49" y2="20"/>
	<line class="st2" x1="42" y1="24" x2="49" y2="24"/>
	<line class="st2" x1="35" y1="24" x2="38" y2="24"/>
	<line class="st2" x1="38" y1="28" x2="49" y2="28"/>
	<circle class="st2" cx="32" cy="52" r="3"/>
	<line class="st2" x1="23" y1="23" x2="23" y2="22"/>
	<line class="st2" x1="23" y1="32" x2="23" y2="31"/>
	<path class="st2" d="M25,25L25,25c0-1.1-0.9-2-2-2h0c-1.1,0-2,0.9-2,2v0c0,1.1,0.9,2,2,2h0c1.1,0,2,0.9,2,2v0c0,1.1-0.9,2-2,2h0
		c-1.1,0-2-0.9-2-2v0"/>
</g>
<g id="Glyph" class="st0">
	<path class="st1" d="M57,7v5c0,0.6-0.4,1-1,1H8c-0.6,0-1-0.4-1-1V7c0-0.6,0.4-1,1-1h48C56.6,6,57,6.4,57,7z M56,41H8
		c-0.6,0-1,0.4-1,1v5c0,0.6,0.4,1,1,1h23v1.1c-1.7,0.4-3,2-3,3.9c0,2.2,1.8,4,4,4s4-1.8,4-4c0-1.9-1.3-3.4-3-3.9V48h23
		c0.6,0,1-0.4,1-1v-5C57,41.4,56.6,41,56,41z M30,27c0,3.9-3.1,7-7,7s-7-3.1-7-7s3.1-7,7-7S30,23.1,30,27z M22,25c0-0.6,0.4-1,1-1
		s1,0.4,1,1c0,0.6,0.4,1,1,1s1-0.4,1-1c0-1.3-0.8-2.4-2-2.8V22c0-0.6-0.4-1-1-1s-1,0.4-1,1v0.2c-1.2,0.4-2,1.5-2,2.8
		c0,1.7,1.3,3,3,3c0.6,0,1,0.4,1,1s-0.4,1-1,1s-1-0.4-1-1c0-0.6-0.4-1-1-1s-1,0.4-1,1c0,1.3,0.8,2.4,2,2.8V32c0,0.6,0.4,1,1,1
		s1-0.4,1-1v-0.2c1.2-0.4,2-1.5,2-2.8c0-1.7-1.3-3-3-3C22.4,26,22,25.6,22,25z M54,34v-2H36v2H54z M54,30H35c-0.6,0-1,0.4-1,1v4
		c0,0.6,0.4,1,1,1h19v3H10V15h44V30z M32,27c0-5-4-9-9-9s-9,4-9,9s4,9,9,9S32,32,32,27z M34,19c0,0.6,0.4,1,1,1h8c0.6,0,1-0.4,1-1
		s-0.4-1-1-1h-8C34.4,18,34,18.4,34,19z M35,24h3c0.6,0,1-0.4,1-1s-0.4-1-1-1h-3c-0.6,0-1,0.4-1,1S34.4,24,35,24z M50,27
		c0-0.6-0.4-1-1-1H38c-0.6,0-1,0.4-1,1s0.4,1,1,1h11C49.6,28,50,27.6,50,27z M50,23c0-0.6-0.4-1-1-1h-7c-0.6,0-1,0.4-1,1s0.4,1,1,1
		h7C49.6,24,50,23.6,50,23z M50,19c0-0.6-0.4-1-1-1h-2c-0.6,0-1,0.4-1,1s0.4,1,1,1h2C49.6,20,50,19.6,50,19z"/>
</g>
<g id="Outline">
	<path d="M54,32V15h2c0.6,0,1-0.4,1-1V9c0-0.6-0.4-1-1-1h-7c-0.6,0-1,0.4-1,1s0.4,1,1,1h6v3h-2H11H9v-3h35.8c0.6,0,1-0.4,1-1
		s-0.4-1-1-1H8C7.4,8,7,8.4,7,9v5c0,0.6,0.4,1,1,1h2v24H8c-0.6,0-1,0.4-1,1v5c0,0.6,0.4,1,1,1h7c0.6,0,1-0.4,1-1s-0.4-1-1-1H9v-3h2
		h42h2v3H19.1c-0.6,0-1,0.4-1,1s0.4,1,1,1H31v2.1c-1.7,0.4-3,2-3,3.9c0,2.2,1.8,4,4,4s4-1.8,4-4c0-1.9-1.3-3.4-3-3.9V46h23
		c0.6,0,1-0.4,1-1v-5c0-0.6-0.4-1-1-1h-2v-3V32z M34,52c0,1.1-0.9,2-2,2s-2-0.9-2-2s0.9-2,2-2S34,50.9,34,52z M52,35H36v-2h16V35z
		 M12,39V15h40v16H35c-0.6,0-1,0.4-1,1v4c0,0.6,0.4,1,1,1h17v2H12z M23,18c-5,0-9,4-9,9s4,9,9,9s9-4,9-9S28,18,23,18z M23,34
		c-3.9,0-7-3.1-7-7s3.1-7,7-7s7,3.1,7,7S26.9,34,23,34z M34,20c0-0.6,0.4-1,1-1h8c0.6,0,1,0.4,1,1s-0.4,1-1,1h-8
		C34.4,21,34,20.6,34,20z M46,20c0-0.6,0.4-1,1-1h2c0.6,0,1,0.4,1,1s-0.4,1-1,1h-2C46.4,21,46,20.6,46,20z M50,24c0,0.6-0.4,1-1,1
		h-7c-0.6,0-1-0.4-1-1s0.4-1,1-1h7C49.6,23,50,23.4,50,24z M34,24c0-0.6,0.4-1,1-1h3c0.6,0,1,0.4,1,1s-0.4,1-1,1h-3
		C34.4,25,34,24.6,34,24z M50,28c0,0.6-0.4,1-1,1H38c-0.6,0-1-0.4-1-1s0.4-1,1-1h11C49.6,27,50,27.4,50,28z M22,25c0,0.6,0.4,1,1,1
		c1.7,0,3,1.3,3,3c0,1.3-0.8,2.4-2,2.8V32c0,0.6-0.4,1-1,1s-1-0.4-1-1v-0.2c-1.2-0.4-2-1.5-2-2.8c0-0.6,0.4-1,1-1s1,0.4,1,1
		c0,0.6,0.4,1,1,1s1-0.4,1-1s-0.4-1-1-1c-1.7,0-3-1.3-3-3c0-1.3,0.8-2.4,2-2.8V22c0-0.6,0.4-1,1-1s1,0.4,1,1v0.2
		c1.2,0.4,2,1.5,2,2.8c0,0.6-0.4,1-1,1s-1-0.4-1-1c0-0.6-0.4-1-1-1S22,24.4,22,25z"/>
</g>
<g id="Animation_Glyph" class="st0">
	<path class="st1" d="M56,6H8C7.4,6,7,6.4,7,7v5c0,0.6,0.4,1,1,1h48c0.6,0,1-0.4,1-1V7C57,6.4,56.6,6,56,6z"/>
	<path class="st1" d="M56,41H8c-0.6,0-1,0.4-1,1v5c0,0.6,0.4,1,1,1h48c0.6,0,1-0.4,1-1v-5C57,41.4,56.6,41,56,41z"/>
	<g class="st1">
		<path d="M32,51c-0.6,0-1-0.4-1-1v-4c0-0.6,0.4-1,1-1s1,0.4,1,1v4C33,50.6,32.6,51,32,51z"/>
	</g>
	<circle class="st1" cx="32" cy="53" r="4"/>
	<g class="st1">
		<path d="M23,20c-3.9,0-7,3.1-7,7s3.1,7,7,7s7-3.1,7-7S26.9,20,23,20z M23,26c1.7,0,3,1.3,3,3c0,1.3-0.8,2.4-2,2.8V32
			c0,0.6-0.4,1-1,1s-1-0.4-1-1v-0.2c-1.2-0.4-2-1.5-2-2.8c0-0.6,0.4-1,1-1s1,0.4,1,1c0,0.6,0.4,1,1,1s1-0.4,1-1s-0.4-1-1-1
			c-1.7,0-3-1.3-3-3c0-1.3,0.8-2.4,2-2.8V22c0-0.6,0.4-1,1-1s1,0.4,1,1v0.2c1.2,0.4,2,1.5,2,2.8c0,0.6-0.4,1-1,1s-1-0.4-1-1
			c0-0.6-0.4-1-1-1s-1,0.4-1,1S22.4,26,23,26z"/>
		<rect x="36" y="32" width="18" height="2"/>
		<path d="M35,36c-0.6,0-1-0.4-1-1v-4c0-0.6,0.4-1,1-1h19V15H10v24h44v-3H35z M49,28H38c-0.6,0-1-0.4-1-1s0.4-1,1-1h11
			c0.6,0,1,0.4,1,1S49.6,28,49,28z M49,24h-7c-0.6,0-1-0.4-1-1s0.4-1,1-1h7c0.6,0,1,0.4,1,1S49.6,24,49,24z M47,18h2
			c0.6,0,1,0.4,1,1s-0.4,1-1,1h-2c-0.6,0-1-0.4-1-1S46.4,18,47,18z M35,18h8c0.6,0,1,0.4,1,1s-0.4,1-1,1h-8c-0.6,0-1-0.4-1-1
			S34.4,18,35,18z M35,22h3c0.6,0,1,0.4,1,1s-0.4,1-1,1h-3c-0.6,0-1-0.4-1-1S34.4,22,35,22z M23,36c-5,0-9-4-9-9s4-9,9-9s9,4,9,9
			S28,36,23,36z"/>
	</g>
</g>
<g id="Animation_Outline" class="st0">
	<rect x="11" y="14" class="st2" width="42" height="26"/>
	<polyline class="st2" points="49,9 56,9 56,14 8,14 8,9 45.8,9 	"/>
	<polyline class="st2" points="15,45 8,45 8,40 56,40 56,45 18.1,45 	"/>
	<rect x="35" y="32" class="st2" width="18" height="4"/>
	<line class="st2" x1="32" y1="49" x2="32" y2="45"/>
	<circle class="st2" cx="23" cy="27" r="8"/>
	<line class="st2" x1="35" y1="20" x2="43" y2="20"/>
	<line class="st2" x1="47" y1="20" x2="49" y2="20"/>
	<line class="st2" x1="42" y1="24" x2="49" y2="24"/>
	<line class="st2" x1="35" y1="24" x2="38" y2="24"/>
	<line class="st2" x1="38" y1="28" x2="49" y2="28"/>
	<circle class="st2" cx="32" cy="52" r="3"/>
	<line class="st2" x1="23" y1="23" x2="23" y2="22"/>
	<line class="st2" x1="23" y1="32" x2="23" y2="31"/>
	<path class="st2" d="M25,25L25,25c0-1.1-0.9-2-2-2h0c-1.1,0-2,0.9-2,2v0c0,1.1,0.9,2,2,2h0c1.1,0,2,0.9,2,2v0c0,1.1-0.9,2-2,2h0
		c-1.1,0-2-0.9-2-2v0"/>
</g>
</svg>
