<?xml version="1.0" encoding="utf-8"?>
<!-- Generator: Adobe Illustrator 27.9.5, SVG Export Plug-In . SVG Version: 9.03 Build 54986)  -->
<svg version="1.1" xmlns="http://www.w3.org/2000/svg" xmlns:xlink="http://www.w3.org/1999/xlink" x="0px" y="0px"
	 viewBox="0 0 64 64" style="enable-background:new 0 0 64 64;" xml:space="preserve">
<style type="text/css">
	.st0{display:none;}
	.st1{display:inline;}
	.st2{display:inline;fill:none;stroke:#000000;stroke-width:2;stroke-linecap:round;stroke-linejoin:round;stroke-miterlimit:10;}
	.st3{fill:none;stroke:#000000;stroke-width:2;stroke-linecap:round;stroke-linejoin:round;stroke-miterlimit:10;}
	.st4{display:inline;fill:#231F20;}
	
		.st5{display:inline;fill:#FFFFFF;stroke:#000000;stroke-width:2;stroke-linecap:round;stroke-linejoin:round;stroke-miterlimit:10;}
	.st6{stroke:#000000;stroke-width:2;stroke-linecap:round;stroke-linejoin:round;stroke-miterlimit:10;}
</style>
<g id="Layer_1" class="st0">
</g>
<g id="Basic" class="st0">
	<circle class="st2" cx="21" cy="23" r="5"/>
	<circle class="st2" cx="32" cy="45" r="5"/>
	<circle class="st2" cx="43" cy="23" r="5"/>
	<circle class="st2" cx="32" cy="32" r="24"/>
	<circle class="st2" cx="32" cy="32" r="3"/>
	<line class="st2" x1="29.9" y1="29.9" x2="25.4" y2="25.4"/>
	<line class="st2" x1="38.6" y1="25.4" x2="34.1" y2="29.9"/>
	<line class="st2" x1="32" y1="40" x2="32" y2="35"/>
</g>
<g id="Glyph" class="st0">
	<path class="st1" d="M32,41c2.2,0,4,1.8,4,4s-1.8,4-4,4c-2.2,0-4-1.8-4-4S29.8,41,32,41z M33.4,30.6C33.4,30.6,33.4,30.6,33.4,30.6
		C33.1,30.2,32.6,30,32,30c-0.6,0-1,0.2-1.4,0.6c0,0,0,0,0,0s0,0,0,0C30.2,31,30,31.4,30,32c0,1.1,0.9,2,2,2c1.1,0,2-0.9,2-2
		C34,31.4,33.8,30.9,33.4,30.6C33.4,30.6,33.4,30.6,33.4,30.6z M21,19c-2.2,0-4,1.8-4,4s1.8,4,4,4s4-1.8,4-4S23.2,19,21,19z M43,19
		c-2.2,0-4,1.8-4,4s1.8,4,4,4s4-1.8,4-4S45.2,19,43,19z M57,32c0,13.8-11.2,25-25,25S7,45.8,7,32S18.2,7,32,7S57,18.2,57,32z M49,23
		c0-3.3-2.7-6-6-6s-6,2.7-6,6c0,0.8,0.2,1.5,0.4,2.2L34,28.6c-0.6-0.4-1.3-0.6-2-0.6c-0.7,0-1.4,0.2-2,0.6l-3.4-3.4
		c0.3-0.7,0.4-1.4,0.4-2.2c0-3.3-2.7-6-6-6s-6,2.7-6,6s2.7,6,6,6c1.8,0,3.4-0.8,4.5-2.1l3,3c-0.4,0.6-0.6,1.3-0.6,2
		c0,1.9,1.3,3.4,3,3.9v3.2c-2.8,0.5-5,2.9-5,5.9c0,3.3,2.7,6,6,6s6-2.7,6-6c0-3-2.2-5.4-5-5.9v-3.2c1.7-0.4,3-2,3-3.9
		c0-0.7-0.2-1.4-0.6-2l3-3c1.1,1.3,2.7,2.1,4.5,2.1C46.3,29,49,26.3,49,23z"/>
</g>
<g id="Outline">
	<path d="M43,29c3.3,0,6-2.7,6-6s-2.7-6-6-6s-6,2.7-6,6c0,0.8,0.2,1.5,0.4,2.2L34,28.6c-0.6-0.4-1.3-0.6-2-0.6c-0.7,0-1.4,0.2-2,0.6
		l-3.4-3.4c0.3-0.7,0.4-1.4,0.4-2.2c0-3.3-2.7-6-6-6s-6,2.7-6,6s2.7,6,6,6c1.8,0,3.4-0.8,4.5-2.1l3,3c-0.4,0.6-0.6,1.3-0.6,2
		c0,1.9,1.3,3.4,3,3.9v3.2c-2.8,0.5-5,2.9-5,5.9c0,3.3,2.7,6,6,6s6-2.7,6-6c0-3-2.2-5.4-5-5.9v-3.2c1.7-0.4,3-2,3-3.9
		c0-0.7-0.2-1.4-0.6-2l3-3C39.6,28.2,41.2,29,43,29z M21,27c-2.2,0-4-1.8-4-4s1.8-4,4-4s4,1.8,4,4S23.2,27,21,27z M36,45
		c0,2.2-1.8,4-4,4c-2.2,0-4-1.8-4-4s1.8-4,4-4C34.2,41,36,42.8,36,45z M32,34c-1.1,0-2-0.9-2-2c0-0.6,0.2-1,0.6-1.4c0,0,0,0,0,0
		s0,0,0,0C31,30.2,31.4,30,32,30c0.6,0,1.1,0.2,1.4,0.6c0,0,0,0,0,0s0,0,0,0c0.4,0.4,0.6,0.9,0.6,1.4C34,33.1,33.1,34,32,34z M43,19
		c2.2,0,4,1.8,4,4s-1.8,4-4,4s-4-1.8-4-4S40.8,19,43,19z M57,32c0,13.8-11.2,25-25,25S7,45.8,7,32S18.2,7,32,7
		c7,0,13.4,2.8,18.2,7.8c0.4,0.4,0.4,1,0,1.4c-0.4,0.4-1,0.4-1.4,0C44.3,11.6,38.4,9,32,9C19.3,9,9,19.3,9,32s10.3,23,23,23
		c12.7,0,23-10.3,23-23c0-4.5-1.3-8.9-3.8-12.6c-0.3-0.5-0.2-1.1,0.3-1.4c0.5-0.3,1.1-0.2,1.4,0.3C55.6,22.4,57,27.1,57,32z"/>
</g>
<g id="Animation_Glyph" class="st0">
	<g class="st1">
		<circle cx="32" cy="45" r="4"/>
		<path d="M33.4,30.6C33.4,30.6,33.4,30.6,33.4,30.6C33.1,30.2,32.6,30,32,30c-0.6,0-1,0.2-1.4,0.6c0,0,0,0,0,0s0,0,0,0
			C30.2,31,30,31.4,30,32c0,1.1,0.9,2,2,2c1.1,0,2-0.9,2-2C34,31.4,33.8,30.9,33.4,30.6C33.4,30.6,33.4,30.6,33.4,30.6z"/>
		<circle cx="21" cy="23" r="4"/>
		<circle cx="43" cy="23" r="4"/>
		<path d="M32,7C18.2,7,7,18.2,7,32s11.2,25,25,25s25-11.2,25-25S45.8,7,32,7z M43,29c-1.8,0-3.4-0.8-4.5-2.1l-3,3
			c0.4,0.6,0.6,1.3,0.6,2c0,1.9-1.3,3.4-3,3.9v3.2c2.8,0.5,5,2.9,5,5.9c0,3.3-2.7,6-6,6s-6-2.7-6-6c0-3,2.2-5.4,5-5.9v-3.2
			c-1.7-0.4-3-2-3-3.9c0-0.7,0.2-1.4,0.6-2l-3-3C24.4,28.2,22.8,29,21,29c-3.3,0-6-2.7-6-6s2.7-6,6-6s6,2.7,6,6
			c0,0.8-0.1,1.5-0.4,2.2l3.4,3.4c0.6-0.4,1.3-0.6,2-0.6c0.7,0,1.4,0.2,2,0.6l3.4-3.4C37.2,24.5,37,23.8,37,23c0-3.3,2.7-6,6-6
			s6,2.7,6,6S46.3,29,43,29z"/>
	</g>
</g>
<g id="Animation_Outline" class="st0">
	<circle class="st2" cx="21" cy="23" r="5"/>
	<circle class="st2" cx="32" cy="45" r="5"/>
	<circle class="st2" cx="43" cy="23" r="5"/>
	<path class="st2" d="M52.1,18.8C54.6,22.6,56,27.1,56,32c0,13.3-10.7,24-24,24S8,45.3,8,32S18.7,8,32,8c6.9,0,13.1,2.9,17.5,7.5"/>
	<circle class="st2" cx="32" cy="32" r="3"/>
	<line class="st2" x1="29.9" y1="29.9" x2="25.4" y2="25.4"/>
	<line class="st2" x1="38.6" y1="25.4" x2="34.1" y2="29.9"/>
	<line class="st2" x1="32" y1="40" x2="32" y2="35"/>
</g>
</svg>
