<?xml version="1.0" encoding="utf-8"?>
<!-- Generator: Adobe Illustrator 27.9.5, SVG Export Plug-In . SVG Version: 9.03 Build 54986)  -->
<svg version="1.1" xmlns="http://www.w3.org/2000/svg" xmlns:xlink="http://www.w3.org/1999/xlink" x="0px" y="0px"
	 viewBox="0 0 64 64" style="enable-background:new 0 0 64 64;" xml:space="preserve">
<style type="text/css">
	.st0{display:none;}
	.st1{display:inline;}
	.st2{display:inline;fill:none;stroke:#000000;stroke-width:2;stroke-linecap:round;stroke-linejoin:round;stroke-miterlimit:10;}
	.st3{fill:none;stroke:#000000;stroke-width:2;stroke-linecap:round;stroke-linejoin:round;stroke-miterlimit:10;}
	.st4{display:inline;fill:#231F20;}
	
		.st5{display:inline;fill:#FFFFFF;stroke:#000000;stroke-width:2;stroke-linecap:round;stroke-linejoin:round;stroke-miterlimit:10;}
	.st6{stroke:#000000;stroke-width:2;stroke-linecap:round;stroke-linejoin:round;stroke-miterlimit:10;}
</style>
<g id="Layer_1" class="st0">
</g>
<g id="Basic" class="st0">
	<path class="st2" d="M48,55H16c-1.1,0-2-0.9-2-2V16c0-1.1,0.9-2,2-2h32c1.1,0,2,0.9,2,2v37C50,54.1,49.1,55,48,55z"/>
	<path class="st2" d="M46,43V20c0-1.1-0.9-2-2-2H20c-1.1,0-2,0.9-2,2v29c0,1.1,0.9,2,2,2h18L46,43z"/>
	<path class="st2" d="M40,20H24v-8h4v0c0-2.2,1.8-4,4-4h0c2.2,0,4,1.8,4,4v0h4V20z"/>
	<polygon class="st2" points="46,43 38,43 38,51 	"/>
	<line class="st2" x1="24" y1="26" x2="34" y2="26"/>
	<line class="st2" x1="24" y1="29" x2="30" y2="29"/>
	<line class="st2" x1="24" y1="35" x2="40" y2="35"/>
	<line class="st2" x1="27" y1="39" x2="38" y2="39"/>
	<circle class="st1" cx="32" cy="12" r="1"/>
</g>
<g id="Glyph" class="st0">
	<path class="st1" d="M39,48.6V44h4.6L39,48.6z M48,13h-5v4h1c1.7,0,3,1.3,3,3v23c0,0,0,0,0,0.1c0,0.1,0,0.2-0.1,0.3
		c0,0,0,0.1,0,0.1c0,0.1-0.1,0.2-0.2,0.3l-8,8c-0.1,0.1-0.2,0.2-0.3,0.2C38.3,52,38.1,52,38,52H20c-1.7,0-3-1.3-3-3V20
		c0-1.7,1.3-3,3-3h1v-4h-5c-1.7,0-3,1.3-3,3v37c0,1.6,1.3,3,3,3h32c1.7,0,3-1.4,3-3V16C51,14.3,49.7,13,48,13z M21,20
		c0,1.6,1.3,3,3,3h16c1.7,0,3-1.4,3-3v-1h1c0.6,0,1,0.4,1,1v22h-7c-0.6,0-1,0.4-1,1v7H20c-0.6,0-1-0.4-1-1V20c0-0.6,0.4-1,1-1h1V20z
		 M39,39c0-0.6-0.4-1-1-1H27c-0.6,0-1,0.4-1,1s0.4,1,1,1h11C38.6,40,39,39.6,39,39z M23,27c0,0.6,0.4,1,1,1h10c0.6,0,1-0.4,1-1
		s-0.4-1-1-1H24C23.4,26,23,26.4,23,27z M23,30c0,0.6,0.4,1,1,1h6c0.6,0,1-0.4,1-1s-0.4-1-1-1h-6C23.4,29,23,29.4,23,30z M23,36
		c0,0.6,0.4,1,1,1h16c0.6,0,1-0.4,1-1s-0.4-1-1-1H24C23.4,35,23,35.4,23,36z M23,20v-8c0-0.6,0.4-1,1-1h3.1c0.5-2.3,2.5-4,4.9-4
		s4.4,1.7,4.9,4H40c0.6,0,1,0.4,1,1v8c0,0.6-0.4,1-1,1H24C23.4,21,23,20.6,23,20z M31,12c0,0.6,0.4,1,1,1s1-0.4,1-1c0-0.6-0.4-1-1-1
		S31,11.4,31,12z"/>
</g>
<g id="Outline">
	<path d="M14,47c0.6,0,1-0.4,1-1V16c0-0.6,0.4-1,1-1h7v2h-3c-1.7,0-3,1.3-3,3v29c0,1.7,1.3,3,3,3h18c0.1,0,0.3,0,0.4-0.1
		c0.1,0,0.2-0.1,0.3-0.2l8-8c0.1-0.1,0.1-0.2,0.2-0.3c0,0,0-0.1,0-0.1c0-0.1,0-0.2,0.1-0.3c0,0,0,0,0-0.1V20c0-1.7-1.3-3-3-3h-3v-5
		c0-0.6-0.4-1-1-1h-3.1c-0.5-2.3-2.5-4-4.9-4s-4.4,1.7-4.9,4H24c-0.6,0-1,0.4-1,1v1h-7c-1.7,0-3,1.3-3,3v30C13,46.6,13.4,47,14,47z
		 M39,48.6V44h4.6L39,48.6z M44,19c0.6,0,1,0.4,1,1v22h-7c-0.6,0-1,0.4-1,1v7H20c-0.6,0-1-0.4-1-1V20c0-0.6,0.4-1,1-1h3v1
		c0,0.6,0.4,1,1,1h16c0.6,0,1-0.4,1-1v-1H44z M25,13h3c0.6,0,1-0.4,1-1c0-1.7,1.3-3,3-3s3,1.3,3,3c0,0.6,0.4,1,1,1h3v6H25V13z
		 M51,16v37c0,1.7-1.3,3-3,3H16c-1.7,0-3-1.3-3-3v-4c0-0.6,0.4-1,1-1s1,0.4,1,1v4c0,0.6,0.4,1,1,1h32c0.6,0,1-0.4,1-1V16
		c0-0.6-0.4-1-1-1h-5c-0.6,0-1-0.4-1-1s0.4-1,1-1h5C49.7,13,51,14.3,51,16z M23,26c0-0.6,0.4-1,1-1h10c0.6,0,1,0.4,1,1s-0.4,1-1,1
		H24C23.4,27,23,26.6,23,26z M23,29c0-0.6,0.4-1,1-1h6c0.6,0,1,0.4,1,1s-0.4,1-1,1h-6C23.4,30,23,29.6,23,29z M41,35
		c0,0.6-0.4,1-1,1H24c-0.6,0-1-0.4-1-1s0.4-1,1-1h16C40.6,34,41,34.4,41,35z M39,39c0,0.6-0.4,1-1,1H27c-0.6,0-1-0.4-1-1s0.4-1,1-1
		h11C38.6,38,39,38.4,39,39z M31,12c0-0.6,0.4-1,1-1s1,0.4,1,1c0,0.6-0.4,1-1,1S31,12.6,31,12z"/>
</g>
<g id="Animation_Glyph" class="st0">
	<g class="st1">
		<polygon points="43.6,44 39,44 39,48.6 		"/>
		<path d="M48,13h-5v4h1c1.7,0,3,1.3,3,3v23c0,0,0,0,0,0.1c0,0.1,0,0.2-0.1,0.3c0,0,0,0.1,0,0.1c0,0.1-0.1,0.2-0.2,0.3l-8,8
			c-0.1,0.1-0.2,0.2-0.3,0.2C38.3,52,38.1,52,38,52H20c-1.7,0-3-1.3-3-3V20c0-1.7,1.3-3,3-3h1v-4h-5c-1.7,0-3,1.3-3,3v37
			c0,1.6,1.3,3,3,3h32c1.7,0,3-1.4,3-3V16C51,14.3,49.7,13,48,13z"/>
		<path d="M20,19c-0.6,0-1,0.4-1,1v29c0,0.6,0.4,1,1,1h17v-7c0-0.6,0.4-1,1-1h7V20c0-0.6-0.4-1-1-1h-1v1c0,1.6-1.3,3-3,3H24
			c-1.7,0-3-1.4-3-3v-1H20z M38,40H27c-0.6,0-1-0.4-1-1s0.4-1,1-1h11c0.6,0,1,0.4,1,1S38.6,40,38,40z M24,26h10c0.6,0,1,0.4,1,1
			s-0.4,1-1,1H24c-0.6,0-1-0.4-1-1S23.4,26,24,26z M24,29h6c0.6,0,1,0.4,1,1s-0.4,1-1,1h-6c-0.6,0-1-0.4-1-1S23.4,29,24,29z M24,35
			h16c0.6,0,1,0.4,1,1s-0.4,1-1,1H24c-0.6,0-1-0.4-1-1S23.4,35,24,35z"/>
	</g>
	<path class="st1" d="M40,11h-3.1c-0.5-2.3-2.5-4-4.9-4s-4.4,1.7-4.9,4H24c-0.6,0-1,0.4-1,1v8c0,0.6,0.4,1,1,1h16c0.6,0,1-0.4,1-1
		v-8C41,11.4,40.6,11,40,11z M32,13c-0.6,0-1-0.4-1-1c0-0.6,0.4-1,1-1s1,0.4,1,1C33,12.6,32.6,13,32,13z"/>
</g>
<g id="Animation_Outline" class="st0">
	<path class="st2" d="M14,46V16c0-1.1,0.9-2,2-2h8"/>
	<path class="st2" d="M43,14h5c1.1,0,2,0.9,2,2v37c0,1.1-0.9,2-2,2H16c-1.1,0-2-0.9-2-2v-4"/>
	<path class="st2" d="M40,18h4c1.1,0,2,0.9,2,2v23l-8,8H20c-1.1,0-2-0.9-2-2V20c0-1.1,0.9-2,2-2h4"/>
	<path class="st2" d="M40,20H24v-8h4v0c0-2.2,1.8-4,4-4h0c2.2,0,4,1.8,4,4v0h4V20z"/>
	<polygon class="st2" points="46,43 38,43 38,51 	"/>
	<line class="st2" x1="24" y1="26" x2="34" y2="26"/>
	<line class="st2" x1="24" y1="29" x2="30" y2="29"/>
	<line class="st2" x1="24" y1="35" x2="40" y2="35"/>
	<line class="st2" x1="27" y1="39" x2="38" y2="39"/>
	<circle class="st1" cx="32" cy="12" r="1"/>
</g>
</svg>
