<?xml version="1.0" encoding="utf-8"?>
<!-- Generator: Adobe Illustrator 27.9.5, SVG Export Plug-In . SVG Version: 9.03 Build 54986)  -->
<svg version="1.1" xmlns="http://www.w3.org/2000/svg" xmlns:xlink="http://www.w3.org/1999/xlink" x="0px" y="0px"
	 viewBox="0 0 64 64" style="enable-background:new 0 0 64 64;" xml:space="preserve">
<style type="text/css">
	.st0{display:none;}
	.st1{display:inline;}
	.st2{display:inline;fill:none;stroke:#000000;stroke-width:2;stroke-linecap:round;stroke-linejoin:round;stroke-miterlimit:10;}
	.st3{fill:none;stroke:#000000;stroke-width:2;stroke-linecap:round;stroke-linejoin:round;stroke-miterlimit:10;}
	.st4{display:inline;fill:#231F20;}
	
		.st5{display:inline;fill:#FFFFFF;stroke:#000000;stroke-width:2;stroke-linecap:round;stroke-linejoin:round;stroke-miterlimit:10;}
	.st6{stroke:#000000;stroke-width:2;stroke-linecap:round;stroke-linejoin:round;stroke-miterlimit:10;}
</style>
<g id="Layer_1" class="st0">
</g>
<g id="Basic" class="st0">
	<rect x="8" y="19" class="st2" width="48" height="4"/>
	<rect x="8" y="51" class="st2" width="48" height="4"/>
	<rect x="13" y="9" class="st2" width="38" height="10"/>
	<rect x="12" y="23" class="st2" width="40" height="28"/>
	<rect x="10" y="46" class="st2" width="10" height="5"/>
	<rect x="10" y="23" class="st2" width="10" height="5"/>
	<rect x="12" y="28" class="st2" width="6" height="18"/>
	<rect x="44" y="46" class="st2" width="10" height="5"/>
	<rect x="44" y="23" class="st2" width="10" height="5"/>
	<rect x="46" y="28" class="st2" width="6" height="18"/>
	<polygon class="st2" points="35,37 30,40 30,34 	"/>
	<circle class="st2" cx="43" cy="14" r="2"/>
	<circle class="st2" cx="21" cy="14" r="2"/>
	<circle class="st2" cx="32" cy="14" r="2"/>
	<circle class="st2" cx="32" cy="37" r="7"/>
	<rect x="8" y="19" class="st2" width="48" height="4"/>
	<rect x="8" y="51" class="st2" width="48" height="4"/>
	<rect x="13" y="9" class="st2" width="38" height="10"/>
	<rect x="12" y="23" class="st2" width="40" height="28"/>
	<rect x="10" y="46" class="st2" width="10" height="5"/>
	<rect x="10" y="23" class="st2" width="10" height="5"/>
	<rect x="12" y="28" class="st2" width="6" height="18"/>
	<rect x="44" y="46" class="st2" width="10" height="5"/>
	<rect x="44" y="23" class="st2" width="10" height="5"/>
	<rect x="46" y="28" class="st2" width="6" height="18"/>
	<polygon class="st2" points="35,37 30,40 30,34 	"/>
	<circle class="st2" cx="43" cy="14" r="2"/>
	<circle class="st2" cx="21" cy="14" r="2"/>
	<circle class="st2" cx="32" cy="14" r="2"/>
	<circle class="st2" cx="32" cy="37" r="7"/>
</g>
<g id="Glyph" class="st0">
	<path class="st1" d="M57,19v4c0,0.6-0.4,1-1,1H8c-0.6,0-1-0.4-1-1v-4c0-0.6,0.4-1,1-1h48C56.6,18,57,18.4,57,19z M56,50H8
		c-0.6,0-1,0.4-1,1v4c0,0.6,0.4,1,1,1h48c0.6,0,1-0.4,1-1v-4C57,50.4,56.6,50,56,50z M9,48h12v-2c0-0.5-0.5-1-1-1H10
		c-0.5,0-1,0.5-1,1V48z M43,48h12v-2c0-0.5-0.5-1-1-1H44c-0.5,0-1,0.5-1,1V48z M19,43V29h1c0.5,0,1-0.5,1-1v-2H9v2c0,0.5,0.5,1,1,1
		h1v14H19z M53,43V29h1c0.5,0,1-0.5,1-1v-2H43v2c0,0.5,0.5,1,1,1h1v14H53z M52,16H12V9c0-0.5,0.5-1,1-1h38c0.5,0,1,0.5,1,1V16z
		 M23,12c0-1.1-0.9-2-2-2s-2,0.9-2,2c0,1.1,0.9,2,2,2S23,13.1,23,12z M34,12c0-1.1-0.9-2-2-2s-2,0.9-2,2c0,1.1,0.9,2,2,2
		S34,13.1,34,12z M45,12c0-1.1-0.9-2-2-2s-2,0.9-2,2c0,1.1,0.9,2,2,2S45,13.1,45,12z M31,38.2l2.1-1.2L31,35.8V38.2z M32,45
		c-4.4,0-8-3.6-8-8c0-4.4,3.6-8,8-8s8,3.6,8,8C40,41.4,36.4,45,32,45z M30.5,40.9l5-3c0.3-0.2,0.5-0.5,0.5-0.9
		c0-0.4-0.2-0.7-0.5-0.9l-5-3c-0.3-0.2-0.7-0.2-1,0C29.2,33.3,29,33.6,29,34v6c0,0.4,0.2,0.7,0.5,0.9C29.7,41,29.8,41,30,41
		C30.2,41,30.4,41,30.5,40.9z"/>
</g>
<g id="Outline">
	<path d="M54,29c0.6,0,1-0.4,1-1v-4h1c0.6,0,1-0.4,1-1v-4c0-0.6-0.4-1-1-1h-5H14v-8h36v5.5c0,0.6,0.4,1,1,1s1-0.4,1-1V9
		c0-0.6-0.4-1-1-1H13c-0.6,0-1,0.4-1,1v9H8c-0.6,0-1,0.4-1,1v4c0,0.6,0.4,1,1,1h1v4c0,0.6,0.4,1,1,1h1v6.8c0,0.6,0.4,1,1,1
		s1-0.4,1-1V29h4v16h-4v-5.6c0-0.6-0.4-1-1-1s-1,0.4-1,1V45h-1c-0.6,0-1,0.4-1,1v4H8c-0.6,0-1,0.4-1,1v4c0,0.6,0.4,1,1,1h48
		c0.6,0,1-0.4,1-1v-4c0-0.6-0.4-1-1-1h-1v-4c0-0.6-0.4-1-1-1h-1V29H54z M53,27h-1h-6h-1v-3h8V27z M9,20h4h38h4v2h-1H44H20H10H9V20z
		 M12,27h-1v-3h8v3h-1H12z M19,29h1c0.6,0,1-0.4,1-1v-4h22v4c0,0.6,0.4,1,1,1h1v16h-1c-0.6,0-1,0.4-1,1v4H21v-4c0-0.6-0.4-1-1-1h-1
		V29z M11,47h1h6h1v3h-8V47z M55,54H9v-2h1h10h24h10h1V54z M45,50v-3h1h6h1v3H45z M51,45h-4V29h4V45z M29.5,40.9
		C29.7,41,29.8,41,30,41c0.2,0,0.4,0,0.5-0.1l5-3c0.3-0.2,0.5-0.5,0.5-0.9s-0.2-0.7-0.5-0.9l-5-3c-0.3-0.2-0.7-0.2-1,0
		S29,33.6,29,34v6C29,40.4,29.2,40.7,29.5,40.9z M31,35.8l2.1,1.2L31,38.2V35.8z M40,14c0,1.7,1.3,3,3,3s3-1.3,3-3s-1.3-3-3-3
		S40,12.3,40,14z M44,14c0,0.6-0.4,1-1,1s-1-0.4-1-1s0.4-1,1-1S44,13.4,44,14z M18,14c0,1.7,1.3,3,3,3s3-1.3,3-3s-1.3-3-3-3
		S18,12.3,18,14z M22,14c0,0.6-0.4,1-1,1s-1-0.4-1-1s0.4-1,1-1S22,13.4,22,14z M29,14c0,1.7,1.3,3,3,3s3-1.3,3-3s-1.3-3-3-3
		S29,12.3,29,14z M33,14c0,0.6-0.4,1-1,1s-1-0.4-1-1s0.4-1,1-1S33,13.4,33,14z M32,45c4.4,0,8-3.6,8-8s-3.6-8-8-8s-8,3.6-8,8
		S27.6,45,32,45z M32,31c3.3,0,6,2.7,6,6s-2.7,6-6,6s-6-2.7-6-6S28.7,31,32,31z"/>
</g>
<g id="Animation_Glyph" class="st0">
	<path class="st1" d="M56,16H8c-0.6,0-1,0.4-1,1v4c0,0.6,0.4,1,1,1h48c0.6,0,1-0.4,1-1v-4C57,16.4,56.6,16,56,16z"/>
	<path class="st1" d="M56,52H8c-0.6,0-1,0.4-1,1v4c0,0.6,0.4,1,1,1h48c0.6,0,1-0.4,1-1v-4C57,52.4,56.6,52,56,52z"/>
	<path class="st1" d="M21,46v4H9v-4c0-0.5,0.5-1,1-1h10C20.5,45,21,45.5,21,46z"/>
	<path class="st1" d="M21,24v4c0,0.5-0.5,1-1,1H10c-0.5,0-1-0.5-1-1v-4H21z"/>
	<path class="st1" d="M18,27h-6c-0.6,0-1,0.4-1,1v18c0,0.6,0.4,1,1,1h6c0.6,0,1-0.4,1-1V28C19,27.4,18.6,27,18,27z"/>
	<path class="st1" d="M55,46v4H43v-4c0-0.5,0.5-1,1-1h10C54.5,45,55,45.5,55,46z"/>
	<path class="st1" d="M55,24v4c0,0.5-0.5,1-1,1H44c-0.5,0-1-0.5-1-1v-4H55z"/>
	<path class="st1" d="M52,27h-6c-0.6,0-1,0.4-1,1v18c0,0.6,0.4,1,1,1h6c0.6,0,1-0.4,1-1V28C53,27.4,52.6,27,52,27z"/>
	<g class="st1">
		<circle cx="21" cy="11" r="1"/>
		<circle cx="32" cy="11" r="1"/>
		<path d="M51,6H13c-0.5,0-1,0.5-1,1v9h40V7C52,6.5,51.5,6,51,6z M21,14c-1.7,0-3-1.3-3-3s1.3-3,3-3s3,1.3,3,3S22.7,14,21,14z
			 M32,14c-1.7,0-3-1.3-3-3s1.3-3,3-3s3,1.3,3,3S33.7,14,32,14z M43,14c-1.7,0-3-1.3-3-3s1.3-3,3-3s3,1.3,3,3S44.7,14,43,14z"/>
		<circle cx="43" cy="11" r="1"/>
	</g>
	<g class="st1">
		<path d="M32,31c-3.3,0-6,2.7-6,6s2.7,6,6,6s6-2.7,6-6S35.3,31,32,31z M35.5,37.9l-5,3C30.4,41,30.2,41,30,41c-0.2,0-0.3,0-0.5-0.1
			C29.2,40.7,29,40.4,29,40v-6c0-0.4,0.2-0.7,0.5-0.9s0.7-0.2,1,0l5,3c0.3,0.2,0.5,0.5,0.5,0.9S35.8,37.7,35.5,37.9z"/>
		<polygon points="31,38.2 33.1,37 31,35.8 		"/>
		<path d="M41,28v-5c0-0.4,0.1-0.7,0.2-1H22.8c0.1,0.3,0.2,0.6,0.2,1v5c0,1.3-0.8,2.4-2,2.8v12.4c1.2,0.4,2,1.5,2,2.8v5
			c0,0.3-0.1,0.7-0.2,1h18.4c-0.1-0.3-0.2-0.7-0.2-1v-5c0-1.3,0.8-2.4,2-2.8V30.8C41.8,30.4,41,29.3,41,28z M32,45c-4.4,0-8-3.6-8-8
			s3.6-8,8-8s8,3.6,8,8S36.4,45,32,45z"/>
	</g>
</g>
<g id="Animation_Outline" class="st0">
	<rect x="8" y="19" class="st2" width="48" height="4"/>
	<rect x="8" y="51" class="st2" width="48" height="4"/>
	<polyline class="st2" points="51,19 13,19 13,9 51,9 51,15.5 	"/>
	<rect x="10" y="46" class="st2" width="10" height="5"/>
	<rect x="10" y="23" class="st2" width="10" height="5"/>
	<polyline class="st2" points="12,39.8 12,28 18,28 18,46 12,46 12,43.4 	"/>
	<rect x="44" y="46" class="st2" width="10" height="5"/>
	<rect x="44" y="23" class="st2" width="10" height="5"/>
	<rect x="46" y="28" class="st2" width="6" height="18"/>
	<polygon class="st2" points="35,37 30,40 30,34 	"/>
	<circle class="st2" cx="43" cy="14" r="2"/>
	<circle class="st2" cx="21" cy="14" r="2"/>
	<circle class="st2" cx="32" cy="14" r="2"/>
	<circle class="st2" cx="32" cy="37" r="7"/>
</g>
</svg>
