<?xml version="1.0" encoding="utf-8"?>
<!-- Generator: Adobe Illustrator 27.9.5, SVG Export Plug-In . SVG Version: 9.03 Build 54986)  -->
<svg version="1.1" xmlns="http://www.w3.org/2000/svg" xmlns:xlink="http://www.w3.org/1999/xlink" x="0px" y="0px"
	 viewBox="0 0 64 64" style="enable-background:new 0 0 64 64;" xml:space="preserve">
<style type="text/css">
	.st0{display:none;}
	.st1{display:inline;}
	.st2{display:inline;fill:none;stroke:#000000;stroke-width:2;stroke-linecap:round;stroke-linejoin:round;stroke-miterlimit:10;}
	.st3{fill:none;stroke:#000000;stroke-width:2;stroke-linecap:round;stroke-linejoin:round;stroke-miterlimit:10;}
	.st4{display:inline;fill:#231F20;}
	
		.st5{display:inline;fill:#FFFFFF;stroke:#000000;stroke-width:2;stroke-linecap:round;stroke-linejoin:round;stroke-miterlimit:10;}
	.st6{stroke:#000000;stroke-width:2;stroke-linecap:round;stroke-linejoin:round;stroke-miterlimit:10;}
</style>
<g id="Layer_1" class="st0">
</g>
<g id="Basic" class="st0">
	<line class="st2" x1="37.9" y1="29.1" x2="42.1" y2="24.9"/>
	<line class="st2" x1="42.1" y1="29.1" x2="37.9" y2="24.9"/>
	<line class="st2" x1="21.9" y1="47.1" x2="26.1" y2="42.9"/>
	<line class="st2" x1="26.1" y1="47.1" x2="21.9" y2="42.9"/>
	<circle class="st2" cx="24" cy="28" r="2"/>
	<path class="st2" d="M37,37h-8c-2.8,0-5-2.2-5-5v-2"/>
	<polyline class="st2" points="34,34 38.4,36.8 34,40 	"/>
	<path class="st2" d="M48,55H16c-1.1,0-2-0.9-2-2V16c0-1.1,0.9-2,2-2h32c1.1,0,2,0.9,2,2v37C50,54.1,49.1,55,48,55z"/>
	<path class="st2" d="M46,43V20c0-1.1-0.9-2-2-2H20c-1.1,0-2,0.9-2,2v29c0,1.1,0.9,2,2,2h18L46,43z"/>
	<path class="st2" d="M40,20H24v-8h4v0c0-2.2,1.8-4,4-4h0c2.2,0,4,1.8,4,4v0h4V20z"/>
	<polygon class="st2" points="46,43 38,43 38,51 	"/>
	<circle class="st1" cx="32" cy="12" r="1"/>
</g>
<g id="Glyph" class="st0">
	<path class="st1" d="M23,29c0-0.6,0.4-1,1-1s1,0.4,1,1s-0.4,1-1,1S23,29.6,23,29z M48,13h-5v4h1c1.7,0,3,1.3,3,3v23c0,0,0,0,0,0.1
		c0,0.1,0,0.2-0.1,0.3c0,0,0,0.1,0,0.1c0,0.1-0.1,0.2-0.2,0.3l-8,8c-0.1,0.1-0.2,0.2-0.3,0.2C38.3,52,38.1,52,38,52H20
		c-1.7,0-3-1.3-3-3V20c0-1.7,1.3-3,3-3h1v-4h-5c-1.7,0-3,1.3-3,3v37c0,1.6,1.3,3,3,3h32c1.7,0,3-1.4,3-3V16C51,14.3,49.7,13,48,13z
		 M21,20c0,1.6,1.3,3,3,3h16c1.7,0,3-1.4,3-3v-1h1c0.6,0,1,0.4,1,1v22h-7c-0.6,0-1,0.4-1,1v7H20c-0.6,0-1-0.4-1-1V20
		c0-0.6,0.4-1,1-1h1V20z M25.4,45l1.4-1.4c0.4-0.4,0.4-1,0-1.4c-0.4-0.4-1-0.4-1.4,0L24,43.6l-1.4-1.4c-0.4-0.4-1-0.4-1.4,0
		c-0.4,0.4-0.4,1,0,1.4l1.4,1.4l-1.4,1.4c-0.4,0.4-0.4,1,0,1.4c0.2,0.2,0.5,0.3,0.7,0.3s0.5-0.1,0.7-0.3l1.4-1.4l1.4,1.4
		c0.2,0.2,0.5,0.3,0.7,0.3s0.5-0.1,0.7-0.3c0.4-0.4,0.4-1,0-1.4L25.4,45z M38.6,30l-1.4,1.4c-0.4,0.4-0.4,1,0,1.4
		c0.2,0.2,0.5,0.3,0.7,0.3s0.5-0.1,0.7-0.3l1.4-1.4l1.4,1.4c0.2,0.2,0.5,0.3,0.7,0.3s0.5-0.1,0.7-0.3c0.4-0.4,0.4-1,0-1.4L41.4,30
		l1.4-1.4c0.4-0.4,0.4-1,0-1.4c-0.4-0.4-1-0.4-1.4,0L40,28.6l-1.4-1.4c-0.4-0.4-1-0.4-1.4,0c-0.4,0.4-0.4,1,0,1.4L38.6,30z M21,29
		c0,1.3,0.8,2.4,2,2.8V33c0,3.3,2.7,6,6,6h6l-1.6,1.2c-0.4,0.3-0.5,1-0.2,1.4c0.2,0.3,0.5,0.4,0.8,0.4c0.2,0,0.4-0.1,0.6-0.2
		l4.4-3.2c0.3-0.2,0.4-0.5,0.4-0.8c0-0.3-0.2-0.6-0.5-0.8l-4.4-2.8c-0.5-0.3-1.1-0.1-1.4,0.3c-0.3,0.5-0.1,1.1,0.3,1.4l1.9,1.2H29
		c-2.2,0-4-1.8-4-4v-1.2c1.2-0.4,2-1.5,2-2.8c0-1.7-1.3-3-3-3S21,27.3,21,29z M43.6,44H39v4.6L43.6,44z M23,20v-8c0-0.6,0.4-1,1-1
		h3.1c0.5-2.3,2.5-4,4.9-4s4.4,1.7,4.9,4H40c0.6,0,1,0.4,1,1v8c0,0.6-0.4,1-1,1H24C23.4,21,23,20.6,23,20z M31,12c0,0.6,0.4,1,1,1
		s1-0.4,1-1c0-0.6-0.4-1-1-1S31,11.4,31,12z"/>
</g>
<g id="Outline">
	<path d="M40,25.6l1.4-1.4c0.4-0.4,1-0.4,1.4,0c0.4,0.4,0.4,1,0,1.4L41.4,27l1.4,1.4c0.4,0.4,0.4,1,0,1.4c-0.2,0.2-0.5,0.3-0.7,0.3
		s-0.5-0.1-0.7-0.3L40,28.4l-1.4,1.4c-0.2,0.2-0.5,0.3-0.7,0.3s-0.5-0.1-0.7-0.3c-0.4-0.4-0.4-1,0-1.4l1.4-1.4l-1.4-1.4
		c-0.4-0.4-0.4-1,0-1.4c0.4-0.4,1-0.4,1.4,0L40,25.6z M26.8,42.2c-0.4-0.4-1-0.4-1.4,0L24,43.6l-1.4-1.4c-0.4-0.4-1-0.4-1.4,0
		c-0.4,0.4-0.4,1,0,1.4l1.4,1.4l-1.4,1.4c-0.4,0.4-0.4,1,0,1.4c0.2,0.2,0.5,0.3,0.7,0.3s0.5-0.1,0.7-0.3l1.4-1.4l1.4,1.4
		c0.2,0.2,0.5,0.3,0.7,0.3s0.5-0.1,0.7-0.3c0.4-0.4,0.4-1,0-1.4L25.4,45l1.4-1.4C27.2,43.2,27.2,42.6,26.8,42.2z M39.4,36.7
		c0,0.3-0.1,0.6-0.4,0.8l-4.4,3.2C34.4,40.9,34.2,41,34,41c-0.3,0-0.6-0.1-0.8-0.4c-0.3-0.4-0.2-1.1,0.2-1.4L35,38h-6
		c-3.3,0-6-2.7-6-6v-1.2c-1.2-0.4-2-1.5-2-2.8c0-1.7,1.3-3,3-3s3,1.3,3,3c0,1.3-0.8,2.4-2,2.8V32c0,2.2,1.8,4,4,4h6.3l-1.9-1.2
		c-0.5-0.3-0.6-0.9-0.3-1.4c0.3-0.5,0.9-0.6,1.4-0.3l4.4,2.8C39.3,36.1,39.4,36.4,39.4,36.7z M23,28c0,0.6,0.4,1,1,1s1-0.4,1-1
		s-0.4-1-1-1S23,27.4,23,28z M50,42c-0.6,0-1,0.4-1,1v10c0,0.6-0.4,1-1,1H16c-0.6,0-1-0.4-1-1V16c0-0.6,0.4-1,1-1h5c0.6,0,1-0.4,1-1
		s-0.4-1-1-1h-5c-1.7,0-3,1.3-3,3v37c0,1.7,1.3,3,3,3h32c1.7,0,3-1.3,3-3V43C51,42.4,50.6,42,50,42z M51,16v24c0,0.6-0.4,1-1,1
		s-1-0.4-1-1V16c0-0.6-0.4-1-1-1h-7v2h3c1.7,0,3,1.3,3,3v23c0,0,0,0,0,0.1c0,0.1,0,0.2-0.1,0.3c0,0,0,0.1,0,0.1
		c0,0.1-0.1,0.2-0.2,0.3l-8,8c-0.1,0.1-0.2,0.2-0.3,0.2C38.3,52,38.1,52,38,52H20c-1.7,0-3-1.3-3-3V20c0-1.7,1.3-3,3-3h3v-5
		c0-0.6,0.4-1,1-1h3.1c0.5-2.3,2.5-4,4.9-4s4.4,1.7,4.9,4H40c0.6,0,1,0.4,1,1v1h7C49.7,13,51,14.3,51,16z M25,19h14v-6h-3
		c-0.6,0-1-0.4-1-1c0-1.7-1.3-3-3-3s-3,1.3-3,3c0,0.6-0.4,1-1,1h-3V19z M43.6,44H39v4.6L43.6,44z M41,19v1c0,0.6-0.4,1-1,1H24
		c-0.6,0-1-0.4-1-1v-1h-3c-0.6,0-1,0.4-1,1v29c0,0.6,0.4,1,1,1h17v-7c0-0.6,0.4-1,1-1h7V20c0-0.6-0.4-1-1-1H41z M32,13
		c0.6,0,1-0.4,1-1c0-0.6-0.4-1-1-1s-1,0.4-1,1C31,12.6,31.4,13,32,13z"/>
</g>
<g id="Animation_Glyph" class="st0">
	<g class="st1">
		<circle cx="24" cy="29" r="1"/>
		<path d="M48,13h-5v4h1c1.7,0,3,1.3,3,3v23c0,0,0,0,0,0.1c0,0.1,0,0.2-0.1,0.3c0,0,0,0.1,0,0.1c0,0.1-0.1,0.2-0.2,0.3l-8,8
			c-0.1,0.1-0.2,0.2-0.3,0.2C38.3,52,38.1,52,38,52H20c-1.7,0-3-1.3-3-3V20c0-1.7,1.3-3,3-3h1v-4h-5c-1.7,0-3,1.3-3,3v37
			c0,1.6,1.3,3,3,3h32c1.7,0,3-1.4,3-3V16C51,14.3,49.7,13,48,13z"/>
		<path d="M20,19c-0.6,0-1,0.4-1,1v29c0,0.6,0.4,1,1,1h17v-7c0-0.6,0.4-1,1-1h7V20c0-0.6-0.4-1-1-1h-1v1c0,1.6-1.3,3-3,3H24
			c-1.7,0-3-1.4-3-3v-1H20z M26.8,46.4c0.4,0.4,0.4,1,0,1.4c-0.2,0.2-0.5,0.3-0.7,0.3s-0.5-0.1-0.7-0.3L24,46.4l-1.4,1.4
			c-0.2,0.2-0.5,0.3-0.7,0.3s-0.5-0.1-0.7-0.3c-0.4-0.4-0.4-1,0-1.4l1.4-1.4l-1.4-1.4c-0.4-0.4-0.4-1,0-1.4c0.4-0.4,1-0.4,1.4,0
			l1.4,1.4l1.4-1.4c0.4-0.4,1-0.4,1.4,0c0.4,0.4,0.4,1,0,1.4L25.4,45L26.8,46.4z M37.2,28.6c-0.4-0.4-0.4-1,0-1.4
			c0.4-0.4,1-0.4,1.4,0l1.4,1.4l1.4-1.4c0.4-0.4,1-0.4,1.4,0c0.4,0.4,0.4,1,0,1.4L41.4,30l1.4,1.4c0.4,0.4,0.4,1,0,1.4
			c-0.2,0.2-0.5,0.3-0.7,0.3s-0.5-0.1-0.7-0.3L40,31.4l-1.4,1.4c-0.2,0.2-0.5,0.3-0.7,0.3s-0.5-0.1-0.7-0.3c-0.4-0.4-0.4-1,0-1.4
			l1.4-1.4L37.2,28.6z M24,26c1.7,0,3,1.3,3,3c0,1.3-0.8,2.4-2,2.8V33c0,2.2,1.8,4,4,4h6.3l-1.9-1.2c-0.5-0.3-0.6-0.9-0.3-1.4
			c0.3-0.5,0.9-0.6,1.4-0.3l4.4,2.8c0.3,0.2,0.5,0.5,0.5,0.8c0,0.3-0.1,0.6-0.4,0.8l-4.4,3.2C34.4,41.9,34.2,42,34,42
			c-0.3,0-0.6-0.1-0.8-0.4c-0.3-0.4-0.2-1.1,0.2-1.4L35,39h-6c-3.3,0-6-2.7-6-6v-1.2c-1.2-0.4-2-1.5-2-2.8C21,27.3,22.3,26,24,26z"
			/>
		<polygon points="43.6,44 39,44 39,48.6 		"/>
	</g>
	<path class="st1" d="M40,11h-3.1c-0.5-2.3-2.5-4-4.9-4s-4.4,1.7-4.9,4H24c-0.6,0-1,0.4-1,1v8c0,0.6,0.4,1,1,1h16c0.6,0,1-0.4,1-1
		v-8C41,11.4,40.6,11,40,11z M32,13c-0.6,0-1-0.4-1-1c0-0.6,0.4-1,1-1s1,0.4,1,1C33,12.6,32.6,13,32,13z"/>
</g>
<g id="Animation_Outline" class="st0">
	<line class="st2" x1="37.9" y1="29.1" x2="42.1" y2="24.9"/>
	<line class="st2" x1="42.1" y1="29.1" x2="37.9" y2="24.9"/>
	<line class="st2" x1="21.9" y1="47.1" x2="26.1" y2="42.9"/>
	<line class="st2" x1="26.1" y1="47.1" x2="21.9" y2="42.9"/>
	<circle class="st2" cx="24" cy="28" r="2"/>
	<path class="st2" d="M37,37h-8c-2.8,0-5-2.2-5-5v-2"/>
	<polyline class="st2" points="34,34 38.4,36.8 34,40 	"/>
	<path class="st2" d="M50,43v10c0,1.1-0.9,2-2,2H16c-1.1,0-2-0.9-2-2V16c0-1.1,0.9-2,2-2h5"/>
	<path class="st2" d="M40,14h8c1.1,0,2,0.9,2,2v24"/>
	<path class="st2" d="M40,18h4c1.1,0,2,0.9,2,2v23l-8,8H20c-1.1,0-2-0.9-2-2V20c0-1.1,0.9-2,2-2h4"/>
	<path class="st2" d="M40,20H24v-8h4v0c0-2.2,1.8-4,4-4h0c2.2,0,4,1.8,4,4v0h4V20z"/>
	<polygon class="st2" points="46,43 38,43 38,51 	"/>
	<circle class="st1" cx="32" cy="12" r="1"/>
</g>
</svg>
