<?xml version="1.0" encoding="utf-8"?>
<!-- Generator: Adobe Illustrator 27.9.5, SVG Export Plug-In . SVG Version: 9.03 Build 54986)  -->
<svg version="1.1" xmlns="http://www.w3.org/2000/svg" xmlns:xlink="http://www.w3.org/1999/xlink" x="0px" y="0px"
	 viewBox="0 0 64 64" style="enable-background:new 0 0 64 64;" xml:space="preserve">
<style type="text/css">
	.st0{display:none;}
	.st1{display:inline;}
	.st2{display:inline;fill:none;stroke:#000000;stroke-width:2;stroke-linecap:round;stroke-linejoin:round;stroke-miterlimit:10;}
	.st3{fill:none;stroke:#000000;stroke-width:2;stroke-linecap:round;stroke-linejoin:round;stroke-miterlimit:10;}
	.st4{display:inline;fill:#231F20;}
	
		.st5{display:inline;fill:#FFFFFF;stroke:#000000;stroke-width:2;stroke-linecap:round;stroke-linejoin:round;stroke-miterlimit:10;}
	.st6{stroke:#000000;stroke-width:2;stroke-linecap:round;stroke-linejoin:round;stroke-miterlimit:10;}
</style>
<g id="Layer_1" class="st0">
</g>
<g id="Basic" class="st0">
	<path class="st2" d="M15.7,48.3C11.6,44.1,9,38.4,9,32c0-6.4,2.6-12.1,6.7-16.3L32,32L15.7,48.3z"/>
	<path class="st2" d="M18.9,13.1C22.6,10.5,27.1,9,32,9c12.7,0,23,10.3,23,23c0,5-1.6,9.5-4.2,13.3L18.9,13.1z"/>
	<path class="st2" d="M48.3,48.3C44.1,52.4,38.3,55,32,55c-5,0-9.7-1.6-13.4-4.3l15.8-16.3L48.3,48.3z"/>
	<path class="st2" d="M16.1,30c1-7.9,7.7-14,15.9-14c3.5,0,6.7,1.1,9.3,3"/>
	<path class="st2" d="M16.1,34c1,7.9,7.7,14,15.9,14"/>
	<path class="st2" d="M44.2,21.6C46.6,24.4,48,28,48,32c0,7.5-5.1,13.8-12.1,15.5"/>
	<circle class="st2" cx="43" cy="20" r="2"/>
	<circle class="st2" cx="34" cy="48" r="2"/>
	<circle class="st2" cx="16" cy="32" r="2"/>
</g>
<g id="Glyph" class="st0">
	<path class="st1" d="M56,32c0,5-1.5,9.8-4.4,13.9c-0.2,0.2-0.4,0.4-0.7,0.4c0,0-0.1,0-0.1,0c-0.3,0-0.5-0.1-0.7-0.3l-4.2-4.2
		c2-2.8,3.1-6.2,3.1-9.8c0-3.7-1.3-7.4-3.5-10.3c0.3-0.5,0.5-1.1,0.5-1.7c0-1.7-1.3-3-3-3c-0.7,0-1.4,0.3-1.9,0.7
		C38.4,15.9,35.3,15,32,15c-3.6,0-6.9,1.1-9.6,3l-4.2-4.2c-0.2-0.2-0.3-0.5-0.3-0.8c0-0.3,0.2-0.6,0.4-0.7C22.4,9.5,27.1,8,32,8
		C45.2,8,56,18.8,56,32z M44,20c0-0.6-0.4-1-1-1s-1,0.4-1,1s0.4,1,1,1S44,20.6,44,20z M32,17c-3,0-5.8,0.9-8.2,2.5l20.7,20.9
		c1.6-2.4,2.5-5.3,2.5-8.3c0-3.3-1.1-6.5-3.1-9.1C43.6,22.9,43.3,23,43,23c-1.7,0-3-1.3-3-3c0-0.2,0-0.4,0.1-0.6
		C37.7,17.8,34.9,17,32,17z M36.5,46.3c2.7-0.8,5-2.4,6.8-4.4l-8.2-8.2c-0.2-0.2-0.4-0.3-0.7-0.3c-0.3,0-0.5,0.1-0.7,0.3L23.4,44.3
		c2.2,1.6,4.9,2.6,7.8,2.7c0.4-1.1,1.5-2,2.8-2C35,45,35.9,45.5,36.5,46.3z M33,48c0,0.6,0.4,1,1,1s1-0.4,1-1s-0.4-1-1-1
		S33,47.4,33,48z M44.7,43.3c-2,2.3-4.7,4-7.7,5c-0.1,1.5-1.4,2.8-3,2.8c-1.3,0-2.4-0.9-2.8-2c-3.4-0.2-6.6-1.3-9.2-3.2L17.8,50
		c-0.2,0.2-0.3,0.5-0.3,0.8s0.2,0.6,0.4,0.7c4.1,3,9,4.5,14,4.5c6.4,0,12.4-2.5,17-7c0.4-0.4,0.4-1,0-1.4L44.7,43.3z M16,31
		C16,31,16,31,16,31c-0.6,0-1,0.4-1,1s0.4,1,1,1c0,0,0,0,0,0c0,0,0,0,0,0c0.5,0,1-0.4,1-1C17,31.5,16.6,31,16,31C16,31,16,31,16,31z
		 M15.3,34.9C14,34.6,13,33.4,13,32s1-2.6,2.3-2.9c0.7-3.9,2.6-7.3,5.4-9.8L16.4,15c-0.4-0.4-1-0.4-1.4,0c-4.5,4.5-7,10.6-7,17
		s2.5,12.4,7,17c0.2,0.2,0.5,0.3,0.7,0.3s0.5-0.1,0.7-0.3l4.3-4.3C17.9,42.2,15.9,38.8,15.3,34.9z M17.3,29.3c1,0.5,1.7,1.5,1.7,2.7
		s-0.7,2.2-1.7,2.7c0.6,3.4,2.4,6.4,4.9,8.6l10.6-10.6c0.4-0.4,0.4-1,0-1.4L22.1,20.7C19.6,22.9,17.9,25.9,17.3,29.3z"/>
</g>
<g id="Outline">
	<path d="M32,8c-4.9,0-9.6,1.5-13.7,4.3c-0.2,0.2-0.4,0.4-0.4,0.7c0,0.3,0.1,0.6,0.3,0.8L50.1,46c0.2,0.2,0.4,0.3,0.7,0.3
		c0,0,0.1,0,0.1,0c0.3,0,0.6-0.2,0.7-0.4C54.5,41.8,56,37,56,32C56,18.8,45.2,8,32,8z M43,21c-0.6,0-1-0.4-1-1s0.4-1,1-1s1,0.4,1,1
		S43.6,21,43,21z M43,23c0.3,0,0.6-0.1,0.9-0.1c2,2.6,3.1,5.8,3.1,9.1c0,2.3-0.5,4.5-1.5,6.5L25.6,18.4c2-0.9,4.2-1.4,6.4-1.4
		c2.9,0,5.7,0.8,8.1,2.4c0,0.2-0.1,0.4-0.1,0.6C40,21.7,41.3,23,43,23z M50.6,43.7L47,40c1.3-2.5,2-5.2,2-8c0-3.7-1.3-7.4-3.5-10.3
		c0.3-0.5,0.5-1.1,0.5-1.7c0-1.7-1.3-3-3-3c-0.7,0-1.4,0.3-1.9,0.7C38.4,15.9,35.3,15,32,15c-2.7,0-5.5,0.7-7.9,1.9l-3.6-3.7
		C23.9,11.1,27.9,10,32,10c12.1,0,22,9.9,22,22C54,36.2,52.8,40.2,50.6,43.7z M44,42.6C44,42.6,44,42.6,44,42.6
		C44,42.6,44,42.6,44,42.6l-9-9c-0.2-0.2-0.4-0.3-0.7-0.3c-0.3,0-0.5,0.1-0.7,0.3L17.8,50c-0.2,0.2-0.3,0.5-0.3,0.8s0.2,0.6,0.4,0.7
		c4.1,3,9,4.5,14,4.5c6.4,0,12.4-2.5,17-7c0.4-0.4,0.4-1,0-1.4L44,42.6z M34.4,35.8l7.5,7.5c-1.6,1.4-3.4,2.4-5.4,3
		C35.9,45.5,35,45,34,45c-1.3,0-2.4,0.8-2.8,2c-2.1-0.1-4.2-0.7-6.1-1.6L34.4,35.8z M35,48c0,0.6-0.4,1-1,1s-1-0.4-1-1s0.4-1,1-1
		S35,47.4,35,48z M32,54c-4.3,0-8.3-1.2-11.9-3.5l3.6-3.7c2.3,1.3,4.8,2,7.5,2.2c0.4,1.2,1.5,2,2.8,2c1.6,0,2.8-1.2,3-2.7
		c2.3-0.7,4.5-1.9,6.3-3.5l3.5,3.5C42.8,52,37.5,54,32,54z M21.4,44C21.4,44,21.4,44,21.4,44l11.3-11.3c0.4-0.4,0.4-1,0-1.4L21.4,20
		c0,0,0,0,0,0s0,0,0,0L16.4,15c-0.4-0.4-1-0.4-1.4,0c-4.5,4.5-7,10.6-7,17s2.5,12.4,7,17c0.2,0.2,0.5,0.3,0.7,0.3s0.5-0.1,0.7-0.3
		L21.4,44C21.4,44,21.4,44,21.4,44z M20.7,41.9c-1.8-2-3-4.5-3.5-7.2c1-0.5,1.7-1.5,1.7-2.7s-0.7-2.2-1.7-2.7
		c0.5-2.7,1.7-5.1,3.5-7.2l9.9,9.9L20.7,41.9z M16,31C16,31,16,31,16,31C16,31,16,31,16,31c0.6,0,1,0.5,1,1c0,0.5-0.4,1-1,1
		c0,0,0,0,0,0c0,0,0,0,0,0c-0.5,0-1-0.4-1-1S15.4,31,16,31z M15.8,46.8C12,42.8,10,37.5,10,32s2-10.8,5.8-14.8l3.5,3.5
		c-2.1,2.4-3.5,5.3-4,8.4C14,29.4,13,30.6,13,32s1,2.6,2.3,2.9c0.5,3.1,1.9,6,4,8.4L15.8,46.8z"/>
</g>
<g id="Animation_Glyph" class="st0">
	<g class="st1">
		<path d="M32,8c-4.9,0-9.6,1.5-13.7,4.3c-0.2,0.2-0.4,0.4-0.4,0.7c0,0.3,0.1,0.6,0.3,0.8l4.2,4.2c2.8-1.9,6.1-3,9.6-3
			c3.3,0,6.4,0.9,9.1,2.7c0.5-0.4,1.2-0.7,1.9-0.7c1.7,0,3,1.3,3,3c0,0.6-0.2,1.2-0.5,1.7c2.3,3,3.5,6.6,3.5,10.3
			c0,3.6-1.1,7-3.1,9.8l4.2,4.2c0.2,0.2,0.4,0.3,0.7,0.3c0,0,0.1,0,0.1,0c0.3,0,0.6-0.2,0.7-0.4C54.5,41.8,56,37,56,32
			C56,18.8,45.2,8,32,8z"/>
		<circle cx="43" cy="20" r="1"/>
		<path d="M32,17c-3,0-5.8,0.9-8.2,2.5l20.7,20.9c1.6-2.4,2.5-5.3,2.5-8.3c0-3.3-1.1-6.5-3.1-9.1C43.6,22.9,43.3,23,43,23
			c-1.7,0-3-1.3-3-3c0-0.2,0-0.4,0.1-0.6C37.7,17.8,34.9,17,32,17z"/>
	</g>
	<g class="st1">
		<path d="M31.2,47c0.4-1.1,1.5-2,2.8-2c1,0,1.9,0.5,2.5,1.3c2.7-0.8,5-2.4,6.8-4.4l-8.2-8.2c-0.2-0.2-0.4-0.3-0.7-0.3
			c-0.3,0-0.5,0.1-0.7,0.3L23.4,44.3C25.6,45.8,28.3,46.8,31.2,47z"/>
		<circle cx="34" cy="48" r="1"/>
		<path d="M49,47.6l-4.3-4.3c-2,2.3-4.7,4-7.7,5c-0.1,1.5-1.4,2.8-3,2.8c-1.3,0-2.4-0.9-2.8-2c-3.4-0.2-6.6-1.3-9.2-3.2L17.8,50
			c-0.2,0.2-0.3,0.5-0.3,0.8s0.2,0.6,0.4,0.7c4.1,3,9,4.5,14,4.5c6.4,0,12.4-2.5,17-7C49.4,48.6,49.4,47.9,49,47.6z"/>
	</g>
	<g class="st1">
		<path d="M16,33C16,33,16,33,16,33C16,33,16,33,16,33c0.6,0,1-0.4,1-1c0-0.5-0.4-1-1-1c0,0,0,0,0,0c0,0,0,0,0,0c-0.5,0-1,0.4-1,1
			S15.4,33,16,33z"/>
		<path d="M15.3,34.9C14,34.6,13,33.4,13,32s1-2.6,2.3-2.9c0.7-3.9,2.6-7.3,5.4-9.8L16.4,15c-0.4-0.4-1-0.4-1.4,0
			c-4.5,4.5-7,10.6-7,17s2.5,12.4,7,17c0.2,0.2,0.5,0.3,0.7,0.3s0.5-0.1,0.7-0.3l4.3-4.3C17.9,42.2,15.9,38.8,15.3,34.9z"/>
		<path d="M22.1,20.7c-2.5,2.2-4.2,5.2-4.9,8.6c1,0.5,1.7,1.5,1.7,2.7s-0.7,2.2-1.7,2.7c0.6,3.4,2.4,6.4,4.9,8.6l10.6-10.6
			c0.4-0.4,0.4-1,0-1.4L22.1,20.7z"/>
	</g>
</g>
<g id="Animation_Outline" class="st0">
	<path class="st2" d="M15.7,48.3C11.6,44.1,9,38.4,9,32c0-6.4,2.6-12.1,6.7-16.3L32,32L15.7,48.3z"/>
	<path class="st2" d="M18.9,13.1C22.6,10.5,27.1,9,32,9c12.7,0,23,10.3,23,23c0,5-1.6,9.5-4.2,13.3L18.9,13.1z"/>
	<path class="st2" d="M48.3,48.3C44.1,52.4,38.3,55,32,55c-5,0-9.7-1.6-13.4-4.3l15.8-16.3L48.3,48.3z"/>
	<path class="st2" d="M23.9,18.2c2.4-1.4,5.1-2.2,8.1-2.2c3.5,0,6.7,1.1,9.3,3"/>
	<path class="st2" d="M20.7,20.7c-2.5,2.5-4.1,5.7-4.6,9.3"/>
	<path class="st2" d="M32,48c-3.1,0-6-0.9-8.5-2.4"/>
	<path class="st2" d="M20.7,43.3c-2.5-2.5-4.1-5.7-4.6-9.3"/>
	<path class="st2" d="M43.3,43.3c-2,2-4.5,3.5-7.4,4.2"/>
	<path class="st2" d="M44.2,21.6C46.6,24.4,48,28,48,32c0,3-0.8,5.8-2.3,8.2"/>
	<circle class="st2" cx="43" cy="20" r="2"/>
	<circle class="st2" cx="34" cy="48" r="2"/>
	<circle class="st2" cx="16" cy="32" r="2"/>
</g>
</svg>
